  0
SECTION
  2
HEADER
  9
$ACADVER
  1
AC1027
  9
$ACADMAINTVER
 70
   125
  9
$DWGCODEPAGE
  3
ANSI_1252
  9
$LASTSAVEDBY
  1
Kenny
  9
$REQUIREDVERSIONS
160
                 0
  9
$INSBASE
 10
0.0
 20
0.0
 30
0.0
  9
$EXTMIN
 10
0.0937066
 20
0.0881944
 30
0.0
  9
$EXTMAX
 10
285.094
 20
94.68770000000001
 30
0.0
  9
$LIMMIN
 10
0.0
 20
0.0
  9
$LIMMAX
 10
12.0
 20
9.0
  9
$ORTHOMODE
 70
     0
  9
$REGENMODE
 70
     1
  9
$FILLMODE
 70
     0
  9
$QTEXTMODE
 70
     0
  9
$MIRRTEXT
 70
     0
  9
$LTSCALE
 40
1.0
  9
$ATTMODE
 70
     1
  9
$TEXTSIZE
 40
0.2
  9
$TRACEWID
 40
0.05
  9
$TEXTSTYLE
  7
Standard
  9
$CLAYER
  8
0
  9
$CELTYPE
  6
Continuous
  9
$CECOLOR
 62
   256
  9
$CELTSCALE
 40
1.0
  9
$DISPSILH
 70
     0
  9
$DIMSCALE
 40
1.0
  9
$DIMASZ
 40
0.18
  9
$DIMEXO
 40
0.0625
  9
$DIMDLI
 40
0.38
  9
$DIMRND
 40
0.0
  9
$DIMDLE
 40
0.0
  9
$DIMEXE
 40
0.18
  9
$DIMTP
 40
0.0
  9
$DIMTM
 40
0.0
  9
$DIMTXT
 40
0.18
  9
$DIMCEN
 40
0.09
  9
$DIMTSZ
 40
0.0
  9
$DIMTOL
 70
     0
  9
$DIMLIM
 70
     0
  9
$DIMTIH
 70
     1
  9
$DIMTOH
 70
     1
  9
$DIMSE1
 70
     0
  9
$DIMSE2
 70
     0
  9
$DIMTAD
 70
     0
  9
$DIMZIN
 70
     0
  9
$DIMBLK
  1

  9
$DIMASO
 70
     1
  9
$DIMSHO
 70
     1
  9
$DIMPOST
  1

  9
$DIMAPOST
  1

  9
$DIMALT
 70
     0
  9
$DIMALTD
 70
     2
  9
$DIMALTF
 40
25.4
  9
$DIMLFAC
 40
1.0
  9
$DIMTOFL
 70
     0
  9
$DIMTVP
 40
0.0
  9
$DIMTIX
 70
     0
  9
$DIMSOXD
 70
     0
  9
$DIMSAH
 70
     0
  9
$DIMBLK1
  1

  9
$DIMBLK2
  1

  9
$DIMSTYLE
  2
Standard
  9
$DIMCLRD
 70
     0
  9
$DIMCLRE
 70
     0
  9
$DIMCLRT
 70
     0
  9
$DIMTFAC
 40
1.0
  9
$DIMGAP
 40
0.09
  9
$DIMJUST
 70
     0
  9
$DIMSD1
 70
     0
  9
$DIMSD2
 70
     0
  9
$DIMTOLJ
 70
     1
  9
$DIMTZIN
 70
     0
  9
$DIMALTZ
 70
     0
  9
$DIMALTTZ
 70
     0
  9
$DIMUPT
 70
     0
  9
$DIMDEC
 70
     4
  9
$DIMTDEC
 70
     4
  9
$DIMALTU
 70
     2
  9
$DIMALTTD
 70
     2
  9
$DIMTXSTY
  7
Standard
  9
$DIMAUNIT
 70
     0
  9
$DIMADEC
 70
     0
  9
$DIMALTRND
 40
0.0
  9
$DIMAZIN
 70
     0
  9
$DIMDSEP
 70
    46
  9
$DIMATFIT
 70
     3
  9
$DIMFRAC
 70
     0
  9
$DIMLDRBLK
  1

  9
$DIMLUNIT
 70
     2
  9
$DIMLWD
 70
    -2
  9
$DIMLWE
 70
    -2
  9
$DIMTMOVE
 70
     0
  9
$DIMFXL
 40
1.0
  9
$DIMFXLON
 70
     0
  9
$DIMJOGANG
 40
0.7853981633974483
  9
$DIMTFILL
 70
     0
  9
$DIMTFILLCLR
 70
     0
  9
$DIMARCSYM
 70
     0
  9
$DIMLTYPE
  6

  9
$DIMLTEX1
  6

  9
$DIMLTEX2
  6

  9
$DIMTXTDIRECTION
 70
     0
  9
$LUNITS
 70
     2
  9
$LUPREC
 70
     4
  9
$SKETCHINC
 40
0.1
  9
$FILLETRAD
 40
0.0
  9
$AUNITS
 70
     0
  9
$AUPREC
 70
     0
  9
$MENU
  1
.
  9
$ELEVATION
 40
0.0
  9
$PELEVATION
 40
0.0
  9
$THICKNESS
 40
0.0
  9
$LIMCHECK
 70
     0
  9
$CHAMFERA
 40
0.0
  9
$CHAMFERB
 40
0.0
  9
$CHAMFERC
 40
0.0
  9
$CHAMFERD
 40
0.0
  9
$SKPOLY
 70
     0
  9
$TDCREATE
 40
2457557.878252315
  9
$TDUCREATE
 40
2457558.169918982
  9
$TDUPDATE
 40
2457608.571631944
  9
$TDUUPDATE
 40
2457608.863298611
  9
$TDINDWG
 40
0.9355092593
  9
$TDUSRTIMER
 40
0.9355092593
  9
$USRTIMER
 70
     1
  9
$ANGBASE
 50
0.0
  9
$ANGDIR
 70
     0
  9
$PDMODE
 70
     0
  9
$PDSIZE
 40
0.0
  9
$PLINEWID
 40
0.0
  9
$SPLFRAME
 70
     1
  9
$SPLINETYPE
 70
     6
  9
$SPLINESEGS
 70
     8
  9
$HANDSEED
  5
80C
  9
$SURFTAB1
 70
     6
  9
$SURFTAB2
 70
     6
  9
$SURFTYPE
 70
     6
  9
$SURFU
 70
     6
  9
$SURFV
 70
     6
  9
$UCSBASE
  2

  9
$UCSNAME
  2

  9
$UCSORG
 10
0.0
 20
0.0
 30
0.0
  9
$UCSXDIR
 10
1.0
 20
0.0
 30
0.0
  9
$UCSYDIR
 10
0.0
 20
1.0
 30
0.0
  9
$UCSORTHOREF
  2

  9
$UCSORTHOVIEW
 70
     0
  9
$UCSORGTOP
 10
0.0
 20
0.0
 30
0.0
  9
$UCSORGBOTTOM
 10
0.0
 20
0.0
 30
0.0
  9
$UCSORGLEFT
 10
0.0
 20
0.0
 30
0.0
  9
$UCSORGRIGHT
 10
0.0
 20
0.0
 30
0.0
  9
$UCSORGFRONT
 10
0.0
 20
0.0
 30
0.0
  9
$UCSORGBACK
 10
0.0
 20
0.0
 30
0.0
  9
$PUCSBASE
  2

  9
$PUCSNAME
  2

  9
$PUCSORG
 10
0.0
 20
0.0
 30
0.0
  9
$PUCSXDIR
 10
1.0
 20
0.0
 30
0.0
  9
$PUCSYDIR
 10
0.0
 20
1.0
 30
0.0
  9
$PUCSORTHOREF
  2

  9
$PUCSORTHOVIEW
 70
     0
  9
$PUCSORGTOP
 10
0.0
 20
0.0
 30
0.0
  9
$PUCSORGBOTTOM
 10
0.0
 20
0.0
 30
0.0
  9
$PUCSORGLEFT
 10
0.0
 20
0.0
 30
0.0
  9
$PUCSORGRIGHT
 10
0.0
 20
0.0
 30
0.0
  9
$PUCSORGFRONT
 10
0.0
 20
0.0
 30
0.0
  9
$PUCSORGBACK
 10
0.0
 20
0.0
 30
0.0
  9
$USERI1
 70
     0
  9
$USERI2
 70
     0
  9
$USERI3
 70
     0
  9
$USERI4
 70
     0
  9
$USERI5
 70
     0
  9
$USERR1
 40
0.0
  9
$USERR2
 40
0.0
  9
$USERR3
 40
0.0
  9
$USERR4
 40
0.0
  9
$USERR5
 40
0.0
  9
$WORLDVIEW
 70
     1
  9
$SHADEDGE
 70
     3
  9
$SHADEDIF
 70
    70
  9
$TILEMODE
 70
     1
  9
$MAXACTVP
 70
    64
  9
$PINSBASE
 10
0.0
 20
0.0
 30
0.0
  9
$PLIMCHECK
 70
     0
  9
$PEXTMIN
 10
1.041666706715982
 20
0.7916666203596448
 30
0.0
  9
$PEXTMAX
 10
9.375000360443838
 20
7.124999583236812
 30
0.0
  9
$PLIMMIN
 10
-0.3333336537278543
 20
-0.333333315811758
  9
$PLIMMAX
 10
10.66666610597625
 20
8.166666443892351
  9
$UNITMODE
 70
     0
  9
$VISRETAIN
 70
     1
  9
$PLINEGEN
 70
     0
  9
$PSLTSCALE
 70
     1
  9
$TREEDEPTH
 70
  3020
  9
$CMLSTYLE
  2
Standard
  9
$CMLJUST
 70
     0
  9
$CMLSCALE
 40
1.0
  9
$PROXYGRAPHICS
 70
     1
  9
$MEASUREMENT
 70
     0
  9
$CELWEIGHT
370
    -1
  9
$ENDCAPS
280
     0
  9
$JOINSTYLE
280
     0
  9
$LWDISPLAY
290
     0
  9
$INSUNITS
 70
     4
  9
$HYPERLINKBASE
  1

  9
$STYLESHEET
  1

  9
$XEDIT
290
     1
  9
$CEPSNTYPE
380
     0
  9
$PSTYLEMODE
290
     1
  9
$FINGERPRINTGUID
  2
{BFCFC479-568E-9A4B-A625-03ABF99A3C06}
  9
$VERSIONGUID
  2
{36BCD074-817E-B346-BBB1-12EA0BC600D7}
  9
$EXTNAMES
290
     1
  9
$PSVPSCALE
 40
0.0
  9
$OLESTARTUP
290
     0
  9
$SORTENTS
280
   127
  9
$INDEXCTL
280
     0
  9
$HIDETEXT
280
     0
  9
$XCLIPFRAME
280
     2
  9
$HALOGAP
280
     0
  9
$OBSCOLOR
 70
   257
  9
$OBSLTYPE
280
     0
  9
$INTERSECTIONDISPLAY
280
     0
  9
$INTERSECTIONCOLOR
 70
   257
  9
$DIMASSOC
280
     1
  9
$PROJECTNAME
  1

  9
$CAMERADISPLAY
290
     0
  9
$LENSLENGTH
 40
50.0
  9
$CAMERAHEIGHT
 40
0.0
  9
$STEPSPERSEC
 40
2.0
  9
$STEPSIZE
 40
6.0
  9
$3DDWFPREC
 40
2.0
  9
$PSOLWIDTH
 40
0.25
  9
$PSOLHEIGHT
 40
4.0
  9
$LOFTANG1
 40
1.570796326794896
  9
$LOFTANG2
 40
1.570796326794896
  9
$LOFTMAG1
 40
0.0
  9
$LOFTMAG2
 40
0.0
  9
$LOFTPARAM
 70
     7
  9
$LOFTNORMALS
280
     1
  9
$LATITUDE
 40
37.795
  9
$LONGITUDE
 40
-122.394
  9
$NORTHDIRECTION
 40
0.0
  9
$TIMEZONE
 70
 -8000
  9
$LIGHTGLYPHDISPLAY
280
     1
  9
$TILEMODELIGHTSYNCH
280
     1
  9
$CMATERIAL
347
11
  9
$SOLIDHIST
280
     0
  9
$SHOWHIST
280
     1
  9
$DWFFRAME
280
     2
  9
$DGNFRAME
280
     0
  9
$REALWORLDSCALE
290
     1
  9
$INTERFERECOLOR
 62
     1
  9
$INTERFEREOBJVS
345
33
  9
$INTERFEREVPVS
346
30
  9
$CSHADOW
280
     0
  9
$SHADOWPLANELOCATION
 40
0.0
  0
ENDSEC
  0
SECTION
  2
CLASSES
  0
CLASS
  1
ACDBDICTIONARYWDFLT
  2
AcDbDictionaryWithDefault
  3
ObjectDBX Classes
 90
        0
 91
        1
280
     0
281
     0
  0
CLASS
  1
MATERIAL
  2
AcDbMaterial
  3
ObjectDBX Classes
 90
     1153
 91
        3
280
     0
281
     0
  0
CLASS
  1
VISUALSTYLE
  2
AcDbVisualStyle
  3
ObjectDBX Classes
 90
     4095
 91
       24
280
     0
281
     0
  0
CLASS
  1
SCALE
  2
AcDbScale
  3
ObjectDBX Classes
 90
     1153
 91
       17
280
     0
281
     0
  0
CLASS
  1
TABLESTYLE
  2
AcDbTableStyle
  3
ObjectDBX Classes
 90
     4095
 91
        1
280
     0
281
     0
  0
CLASS
  1
MLEADERSTYLE
  2
AcDbMLeaderStyle
  3
ACDB_MLEADERSTYLE_CLASS
 90
     4095
 91
        1
280
     0
281
     0
  0
CLASS
  1
ACDBSECTIONVIEWSTYLE
  2
AcDbSectionViewStyle
  3
ObjectDBX Classes
 90
     1025
 91
        1
280
     0
281
     0
  0
CLASS
  1
ACDBDETAILVIEWSTYLE
  2
AcDbDetailViewStyle
  3
ObjectDBX Classes
 90
     1025
 91
        1
280
     0
281
     0
  0
CLASS
  1
DICTIONARYVAR
  2
AcDbDictionaryVar
  3
ObjectDBX Classes
 90
        0
 91
       10
280
     0
281
     0
  0
CLASS
  1
CELLSTYLEMAP
  2
AcDbCellStyleMap
  3
ObjectDBX Classes
 90
     1152
 91
        2
280
     0
281
     0
  0
CLASS
  1
SOLID_BACKGROUND
  2
AcDbSolidBackground
  3
SCENEOE
 90
     4095
 91
        0
280
     0
281
     0
  0
CLASS
  1
NPOCOLLECTION
  2
AcDbImpNonPersistentObjectsCollection
  3
ObjectDBX Classes
 90
     1153
 91
        0
280
     0
281
     0
  0
CLASS
  1
GROUND_PLANE_BACKGROUND
  2
AcDbGroundPlaneBackground
  3
SCENEOE
 90
     4095
 91
        0
280
     0
281
     0
  0
ENDSEC
  0
SECTION
  2
TABLES
  0
TABLE
  2
VPORT
  5
8
330
0
100
AcDbSymbolTable
 70
     1
1001
ACAD
1000
DbSaveVer
1071
        5
  0
VPORT
  5
74
330
8
100
AcDbSymbolTableRecord
100
AcDbViewportTableRecord
  2
*Active
 70
     0
 10
0.0
 20
0.0
 11
1.0
 21
1.0
 12
-61.14052189318428
 22
-41.4223276984898
 13
0.0
 23
0.0
 14
1.0
 24
1.0
 15
0.0
 25
0.0
 16
0.000000000000199
 26
0.0
 36
869.8392529247733
 17
142.5938503704965
 27
47.38794638216496
 37
0.0
 40
57.00627374924319
 41
2.506903353057199
 42
50.0
 43
0.0
 44
0.0
 50
0.0
 51
0.0
 71
     0
 72
   100
 73
     1
 74
     1
 75
     0
 76
     0
 77
     0
 78
     0
281
     0
 65
     1
110
0.0
120
0.0
130
0.0
111
1.0
121
0.0
131
0.0
112
0.0
122
1.0
132
0.0
 79
     0
146
0.0
348
2F
 60
     3
 61
     5
292
     1
282
     1
141
0.0
142
0.0
 63
   250
421
  3355443
1001
ACAD_NAV_VCDISPLAY
1070
     3
  0
ENDTAB
  0
TABLE
  2
LTYPE
  5
5
330
0
100
AcDbSymbolTable
 70
     2
  0
LTYPE
  5
5A
330
5
100
AcDbSymbolTableRecord
100
AcDbLinetypeTableRecord
  2
ByBlock
 70
     0
  3

 72
    65
 73
     0
 40
0.0
  0
LTYPE
  5
5B
330
5
100
AcDbSymbolTableRecord
100
AcDbLinetypeTableRecord
  2
ByLayer
 70
     0
  3

 72
    65
 73
     0
 40
0.0
  0
LTYPE
  5
5C
330
5
100
AcDbSymbolTableRecord
100
AcDbLinetypeTableRecord
  2
Continuous
 70
     0
  3
Solid line
 72
    65
 73
     0
 40
0.0
  0
ENDTAB
  0
TABLE
  2
LAYER
  5
2
102
{ACAD_XDICTIONARY
360
280
102
}
330
0
100
AcDbSymbolTable
 70
     2
  0
LAYER
  5
54
102
{ACAD_XDICTIONARY
360
26A
102
}
330
2
100
AcDbSymbolTableRecord
100
AcDbLayerTableRecord
  2
0
 70
     0
 62
     7
  6
Continuous
370
    -3
390
F
347
21
348
0
  0
LAYER
  5
253
330
2
100
AcDbSymbolTableRecord
100
AcDbLayerTableRecord
  2
Defpoints
 70
     0
 62
     7
  6
Continuous
290
     0
370
    -3
390
F
347
21
348
0
  0
ENDTAB
  0
TABLE
  2
STYLE
  5
3
330
0
100
AcDbSymbolTable
 70
     2
  0
STYLE
  5
55
330
3
100
AcDbSymbolTableRecord
100
AcDbTextStyleTableRecord
  2
Standard
 70
     0
 40
0.0
 41
1.0
 50
0.0
 71
     0
 42
0.2
  3
txt
  4

  0
STYLE
  5
59
330
3
100
AcDbSymbolTableRecord
100
AcDbTextStyleTableRecord
  2
Annotative
 70
     0
 40
0.0
 41
1.0
 50
0.0
 71
     0
 42
0.2
  3
txt
  4

1001
AcadAnnotative
1000
AnnotativeData
1002
{
1070
     1
1070
     1
1002
}
  0
ENDTAB
  0
TABLE
  2
VIEW
  5
6
330
0
100
AcDbSymbolTable
 70
     0
  0
ENDTAB
  0
TABLE
  2
UCS
  5
7
330
0
100
AcDbSymbolTable
 70
     0
  0
ENDTAB
  0
TABLE
  2
APPID
  5
9
330
0
100
AcDbSymbolTable
 70
     6
  0
APPID
  5
56
330
9
100
AcDbSymbolTableRecord
100
AcDbRegAppTableRecord
  2
ACAD
 70
     0
  0
APPID
  5
5D
330
9
100
AcDbSymbolTableRecord
100
AcDbRegAppTableRecord
  2
AcadAnnotative
 70
     0
  0
APPID
  5
251
330
9
100
AcDbSymbolTableRecord
100
AcDbRegAppTableRecord
  2
ACAD_NAV_VCDISPLAY
 70
     0
  0
APPID
  5
261
330
9
100
AcDbSymbolTableRecord
100
AcDbRegAppTableRecord
  2
ACAD_EXEMPT_FROM_CAD_STANDARDS
 70
     0
  0
APPID
  5
39A
330
9
100
AcDbSymbolTableRecord
100
AcDbRegAppTableRecord
  2
ACAD_DSTYLE_DIMRADIAL_EXTENSION
 70
     0
  0
APPID
  5
4E6
330
9
100
AcDbSymbolTableRecord
100
AcDbRegAppTableRecord
  2
ACAD_PSEXT
 70
     0
  0
ENDTAB
  0
TABLE
  2
DIMSTYLE
  5
A
330
0
100
AcDbSymbolTable
 70
     3
100
AcDbDimStyleTable
 71
     1
340
57
  0
DIMSTYLE
105
57
330
A
100
AcDbSymbolTableRecord
100
AcDbDimStyleTableRecord
  2
Standard
 70
     0
340
55
  0
DIMSTYLE
105
58
330
A
100
AcDbSymbolTableRecord
100
AcDbDimStyleTableRecord
  2
Annotative
 70
     0
340
55
1001
AcadAnnotative
1000
AnnotativeData
1002
{
1070
     1
1070
     1
1002
}
  0
ENDTAB
  0
TABLE
  2
BLOCK_RECORD
  5
1
330
0
100
AcDbSymbolTable
 70
     1
  0
BLOCK_RECORD
  5
6F
330
1
100
AcDbSymbolTableRecord
100
AcDbBlockTableRecord
  2
*Model_Space
340
72
 70
     0
280
     1
281
     0
  0
BLOCK_RECORD
  5
6B
330
1
100
AcDbSymbolTableRecord
100
AcDbBlockTableRecord
  2
*Paper_Space
340
6E
 70
     0
280
     1
281
     0
  0
ENDTAB
  0
ENDSEC
  0
SECTION
  2
BLOCKS
  0
BLOCK
  5
70
330
6F
100
AcDbEntity
  8
0
100
AcDbBlockBegin
  2
*Model_Space
 70
     0
 10
0.0
 20
0.0
 30
0.0
  3
*Model_Space
  1

  0
ENDBLK
  5
71
330
6F
100
AcDbEntity
  8
0
100
AcDbBlockEnd
  0
BLOCK
  5
6C
330
6B
100
AcDbEntity
 67
     1
  8
0
100
AcDbBlockBegin
  2
*Paper_Space
 70
     0
 10
0.0
 20
0.0
 30
0.0
  3
*Paper_Space
  1

  0
ENDBLK
  5
6D
330
6B
100
AcDbEntity
 67
     1
  8
0
100
AcDbBlockEnd
  0
ENDSEC
  0
SECTION
  2
ENTITIES
  0
LINE
  5
75
330
6F
100
AcDbEntity
  8
0
 62
     0
100
AcDbLine
 10
5.720219999999997
 20
19.2526
 30
0.0
 11
5.720219999999997
 21
24.4643
 31
0.0
  0
LINE
  5
76
330
6F
100
AcDbEntity
  8
0
 62
     0
100
AcDbLine
 10
5.720219999999997
 20
24.4643
 30
0.0
 11
8.38673
 21
24.4643
 31
0.0
  0
LINE
  5
77
330
6F
100
AcDbEntity
  8
0
 62
     0
100
AcDbLine
 10
8.38673
 20
24.4643
 30
0.0
 11
8.38673
 21
19.2581
 31
0.0
  0
LINE
  5
78
330
6F
100
AcDbEntity
  8
0
 62
     0
100
AcDbLine
 10
8.38673
 20
19.2581
 30
0.0
 11
5.720219999999997
 21
19.2526
 31
0.0
  0
LINE
  5
79
330
6F
100
AcDbEntity
  8
0
 62
     0
100
AcDbLine
 10
1.44418
 20
91.88769999999999
 30
0.0
 11
17.0436
 21
91.88769999999999
 31
0.0
  0
LINE
  5
7A
330
6F
100
AcDbEntity
  8
0
 62
     0
100
AcDbLine
 10
17.0436
 20
91.88769999999999
 30
0.0
 11
17.0436
 21
79.0885
 31
0.0
  0
LINE
  5
7B
330
6F
100
AcDbEntity
  8
0
 62
     0
100
AcDbLine
 10
17.0436
 20
79.0885
 30
0.0
 11
1.44418
 21
79.0885
 31
0.0
  0
LINE
  5
7C
330
6F
100
AcDbEntity
  8
0
 62
     0
100
AcDbLine
 10
1.44418
 20
79.0885
 30
0.0
 11
1.44418
 21
91.88769999999999
 31
0.0
  0
LINE
  5
7D
330
6F
100
AcDbEntity
  8
0
 62
     0
100
AcDbLine
 10
3.82545
 20
15.6876
 30
0.0
 11
19.4248
 21
15.6876
 31
0.0
  0
LINE
  5
7E
330
6F
100
AcDbEntity
  8
0
 62
     0
100
AcDbLine
 10
19.4248
 20
15.6876
 30
0.0
 11
19.4248
 21
2.88837
 31
0.0
  0
LINE
  5
7F
330
6F
100
AcDbEntity
  8
0
 62
     0
100
AcDbLine
 10
19.4248
 20
2.88837
 30
0.0
 11
3.82545
 21
2.88837
 31
0.0
  0
LINE
  5
80
330
6F
100
AcDbEntity
  8
0
 62
     0
100
AcDbLine
 10
3.82545
 20
2.88837
 30
0.0
 11
3.82545
 21
15.6876
 31
0.0
  0
LINE
  5
81
330
6F
100
AcDbEntity
  8
0
 62
     0
100
AcDbLine
 10
6.206699999999997
 20
72.8377
 30
0.0
 11
21.8061
 21
72.8377
 31
0.0
  0
LINE
  5
82
330
6F
100
AcDbEntity
  8
0
 62
     0
100
AcDbLine
 10
21.8061
 20
72.8377
 30
0.0
 11
21.8061
 21
60.03849999999999
 31
0.0
  0
LINE
  5
83
330
6F
100
AcDbEntity
  8
0
 62
     0
100
AcDbLine
 10
21.8061
 20
60.03849999999999
 30
0.0
 11
6.206699999999997
 21
60.03849999999999
 31
0.0
  0
LINE
  5
84
330
6F
100
AcDbEntity
  8
0
 62
     0
100
AcDbLine
 10
6.206699999999997
 20
60.03849999999999
 30
0.0
 11
6.206699999999997
 21
72.8377
 31
0.0
  0
LINE
  5
89
330
6F
100
AcDbEntity
  8
0
 62
     0
100
AcDbLine
 10
27.7937
 20
66.78789999999999
 30
0.0
 11
27.6724
 21
67.5612
 31
0.0
  0
LINE
  5
8A
330
6F
100
AcDbEntity
  8
0
 62
     0
100
AcDbLine
 10
27.6724
 20
67.5612
 30
0.0
 11
27.3169
 21
68.2569
 31
0.0
  0
LINE
  5
8B
330
6F
100
AcDbEntity
  8
0
 62
     0
100
AcDbLine
 10
27.3169
 20
68.2569
 30
0.0
 11
26.7629
 21
68.81109999999999
 31
0.0
  0
LINE
  5
8C
330
6F
100
AcDbEntity
  8
0
 62
     0
100
AcDbLine
 10
26.7629
 20
68.81109999999999
 30
0.0
 11
26.067
 21
69.1653
 31
0.0
  0
LINE
  5
8D
330
6F
100
AcDbEntity
  8
0
 62
     0
100
AcDbLine
 10
26.067
 20
69.1653
 30
0.0
 11
25.2939
 21
69.2877
 31
0.0
  0
LINE
  5
8E
330
6F
100
AcDbEntity
  8
0
 62
     0
100
AcDbLine
 10
25.2939
 20
69.2877
 30
0.0
 11
24.5208
 21
69.1653
 31
0.0
  0
LINE
  5
8F
330
6F
100
AcDbEntity
  8
0
 62
     0
100
AcDbLine
 10
24.5208
 20
69.1653
 30
0.0
 11
23.8249
 21
68.81109999999999
 31
0.0
  0
LINE
  5
90
330
6F
100
AcDbEntity
  8
0
 62
     0
100
AcDbLine
 10
23.8249
 20
68.81109999999999
 30
0.0
 11
23.2709
 21
68.2569
 31
0.0
  0
LINE
  5
91
330
6F
100
AcDbEntity
  8
0
 62
     0
100
AcDbLine
 10
23.2709
 20
68.2569
 30
0.0
 11
22.9154
 21
67.5612
 31
0.0
  0
LINE
  5
92
330
6F
100
AcDbEntity
  8
0
 62
     0
100
AcDbLine
 10
22.9154
 20
67.5612
 30
0.0
 11
22.7941
 21
66.78789999999999
 31
0.0
  0
LINE
  5
93
330
6F
100
AcDbEntity
  8
0
 62
     0
100
AcDbLine
 10
22.7941
 20
66.78789999999999
 30
0.0
 11
22.9154
 21
66.015
 31
0.0
  0
LINE
  5
94
330
6F
100
AcDbEntity
  8
0
 62
     0
100
AcDbLine
 10
22.9154
 20
66.015
 30
0.0
 11
23.2709
 21
65.3189
 31
0.0
  0
LINE
  5
95
330
6F
100
AcDbEntity
  8
0
 62
     0
100
AcDbLine
 10
23.2709
 20
65.3189
 30
0.0
 11
23.8249
 21
64.76510000000001
 31
0.0
  0
LINE
  5
96
330
6F
100
AcDbEntity
  8
0
 62
     0
100
AcDbLine
 10
23.8249
 20
64.76510000000001
 30
0.0
 11
24.5208
 21
64.40949999999999
 31
0.0
  0
LINE
  5
97
330
6F
100
AcDbEntity
  8
0
 62
     0
100
AcDbLine
 10
24.5208
 20
64.40949999999999
 30
0.0
 11
25.2939
 21
64.2881
 31
0.0
  0
LINE
  5
98
330
6F
100
AcDbEntity
  8
0
 62
     0
100
AcDbLine
 10
25.2939
 20
64.2881
 30
0.0
 11
26.067
 21
64.40949999999999
 31
0.0
  0
LINE
  5
99
330
6F
100
AcDbEntity
  8
0
 62
     0
100
AcDbLine
 10
26.067
 20
64.40949999999999
 30
0.0
 11
26.7629
 21
64.76510000000001
 31
0.0
  0
LINE
  5
9A
330
6F
100
AcDbEntity
  8
0
 62
     0
100
AcDbLine
 10
26.7629
 20
64.76510000000001
 30
0.0
 11
27.3169
 21
65.3189
 31
0.0
  0
LINE
  5
9B
330
6F
100
AcDbEntity
  8
0
 62
     0
100
AcDbLine
 10
27.3169
 20
65.3189
 30
0.0
 11
27.6724
 21
66.015
 31
0.0
  0
LINE
  5
9C
330
6F
100
AcDbEntity
  8
0
 62
     0
100
AcDbLine
 10
27.6724
 20
66.015
 30
0.0
 11
27.7937
 21
66.78789999999999
 31
0.0
  0
LINE
  5
9D
330
6F
100
AcDbEntity
  8
0
 62
     0
100
AcDbLine
 10
13.3505
 20
34.7376
 30
0.0
 11
28.9498
 21
34.7376
 31
0.0
  0
LINE
  5
9E
330
6F
100
AcDbEntity
  8
0
 62
     0
100
AcDbLine
 10
28.9498
 20
34.7376
 30
0.0
 11
28.9498
 21
21.9384
 31
0.0
  0
LINE
  5
9F
330
6F
100
AcDbEntity
  8
0
 62
     0
100
AcDbLine
 10
28.9498
 20
21.9384
 30
0.0
 11
13.3505
 21
21.9384
 31
0.0
  0
LINE
  5
A0
330
6F
100
AcDbEntity
  8
0
 62
     0
100
AcDbLine
 10
13.3505
 20
21.9384
 30
0.0
 11
13.3505
 21
34.7376
 31
0.0
  0
LINE
  5
A5
330
6F
100
AcDbEntity
  8
0
 62
     0
100
AcDbLine
 10
20.4942
 20
91.88769999999999
 30
0.0
 11
36.0938
 21
91.88769999999999
 31
0.0
  0
LINE
  5
A6
330
6F
100
AcDbEntity
  8
0
 62
     0
100
AcDbLine
 10
36.0938
 20
91.88769999999999
 30
0.0
 11
36.0938
 21
79.0885
 31
0.0
  0
LINE
  5
A7
330
6F
100
AcDbEntity
  8
0
 62
     0
100
AcDbLine
 10
36.0938
 20
79.0885
 30
0.0
 11
20.4942
 21
79.0885
 31
0.0
  0
LINE
  5
A8
330
6F
100
AcDbEntity
  8
0
 62
     0
100
AcDbLine
 10
20.4942
 20
79.0885
 30
0.0
 11
20.4942
 21
91.88769999999999
 31
0.0
  0
LINE
  5
A9
330
6F
100
AcDbEntity
  8
0
 62
     0
100
AcDbLine
 10
33.9121
 20
24.4643
 30
0.0
 11
36.5788
 21
24.4643
 31
0.0
  0
LINE
  5
AA
330
6F
100
AcDbEntity
  8
0
 62
     0
100
AcDbLine
 10
36.5788
 20
24.4643
 30
0.0
 11
36.5788
 21
19.2581
 31
0.0
  0
LINE
  5
AB
330
6F
100
AcDbEntity
  8
0
 62
     0
100
AcDbLine
 10
36.5788
 20
19.2581
 30
0.0
 11
33.9121
 21
19.2581
 31
0.0
  0
LINE
  5
AC
330
6F
100
AcDbEntity
  8
0
 62
     0
100
AcDbLine
 10
33.9121
 20
19.2581
 30
0.0
 11
33.9121
 21
24.4643
 31
0.0
  0
LINE
  5
AD
330
6F
100
AcDbEntity
  8
0
 62
     0
100
AcDbLine
 10
27.638
 20
15.6876
 30
0.0
 11
43.23749999999999
 21
15.6876
 31
0.0
  0
LINE
  5
AE
330
6F
100
AcDbEntity
  8
0
 62
     0
100
AcDbLine
 10
43.23749999999999
 20
15.6876
 30
0.0
 11
43.23749999999999
 21
2.88837
 31
0.0
  0
LINE
  5
AF
330
6F
100
AcDbEntity
  8
0
 62
     0
100
AcDbLine
 10
43.23749999999999
 20
2.88837
 30
0.0
 11
27.638
 21
2.88837
 31
0.0
  0
LINE
  5
B0
330
6F
100
AcDbEntity
  8
0
 62
     0
100
AcDbLine
 10
27.638
 20
2.88837
 30
0.0
 11
27.638
 21
15.6876
 31
0.0
  0
LINE
  5
B1
330
6F
100
AcDbEntity
  8
0
 62
     0
100
AcDbLine
 10
30.0192
 20
72.8377
 30
0.0
 11
45.6188
 21
72.8377
 31
0.0
  0
LINE
  5
B2
330
6F
100
AcDbEntity
  8
0
 62
     0
100
AcDbLine
 10
45.6188
 20
72.8377
 30
0.0
 11
45.6188
 21
60.03849999999999
 31
0.0
  0
LINE
  5
B3
330
6F
100
AcDbEntity
  8
0
 62
     0
100
AcDbLine
 10
45.6188
 20
60.03849999999999
 30
0.0
 11
30.0192
 21
60.03849999999999
 31
0.0
  0
LINE
  5
B4
330
6F
100
AcDbEntity
  8
0
 62
     0
100
AcDbLine
 10
30.0192
 20
60.03849999999999
 30
0.0
 11
30.0192
 21
72.8377
 31
0.0
  0
LINE
  5
B5
330
6F
100
AcDbEntity
  8
0
 62
     0
100
AcDbLine
 10
34.7817
 20
53.7877
 30
0.0
 11
50.3813
 21
53.7877
 31
0.0
  0
LINE
  5
B6
330
6F
100
AcDbEntity
  8
0
 62
     0
100
AcDbLine
 10
50.3813
 20
53.7877
 30
0.0
 11
50.3813
 21
40.9885
 31
0.0
  0
LINE
  5
B7
330
6F
100
AcDbEntity
  8
0
 62
     0
100
AcDbLine
 10
50.3813
 20
40.9885
 30
0.0
 11
34.7817
 21
40.9885
 31
0.0
  0
LINE
  5
B8
330
6F
100
AcDbEntity
  8
0
 62
     0
100
AcDbLine
 10
34.7817
 20
40.9885
 30
0.0
 11
34.7817
 21
53.7877
 31
0.0
  0
LINE
  5
B9
330
6F
100
AcDbEntity
  8
0
 62
     0
100
AcDbLine
 10
39.5443
 20
91.88769999999999
 30
0.0
 11
55.1438
 21
91.88769999999999
 31
0.0
  0
LINE
  5
BA
330
6F
100
AcDbEntity
  8
0
 62
     0
100
AcDbLine
 10
55.1438
 20
91.88769999999999
 30
0.0
 11
55.1438
 21
79.0885
 31
0.0
  0
LINE
  5
BB
330
6F
100
AcDbEntity
  8
0
 62
     0
100
AcDbLine
 10
55.1438
 20
79.0885
 30
0.0
 11
39.5443
 21
79.0885
 31
0.0
  0
LINE
  5
BC
330
6F
100
AcDbEntity
  8
0
 62
     0
100
AcDbLine
 10
39.5443
 20
79.0885
 30
0.0
 11
39.5443
 21
91.88769999999999
 31
0.0
  0
LINE
  5
BD
330
6F
100
AcDbEntity
  8
0
 62
     0
100
AcDbLine
 10
44.3068
 20
34.7376
 30
0.0
 11
59.9063
 21
34.7376
 31
0.0
  0
LINE
  5
BE
330
6F
100
AcDbEntity
  8
0
 62
     0
100
AcDbLine
 10
59.9063
 20
34.7376
 30
0.0
 11
59.9063
 21
21.9384
 31
0.0
  0
LINE
  5
BF
330
6F
100
AcDbEntity
  8
0
 62
     0
100
AcDbLine
 10
59.9063
 20
21.9384
 30
0.0
 11
44.3068
 21
21.9384
 31
0.0
  0
LINE
  5
C0
330
6F
100
AcDbEntity
  8
0
 62
     0
100
AcDbLine
 10
44.3068
 20
21.9384
 30
0.0
 11
44.3068
 21
34.7376
 31
0.0
  0
LINE
  5
C1
330
6F
100
AcDbEntity
  8
0
 62
     0
100
AcDbLine
 10
49.0693
 20
72.8377
 30
0.0
 11
64.6688
 21
72.8377
 31
0.0
  0
LINE
  5
C2
330
6F
100
AcDbEntity
  8
0
 62
     0
100
AcDbLine
 10
64.6688
 20
72.8377
 30
0.0
 11
64.6688
 21
60.03849999999999
 31
0.0
  0
LINE
  5
C3
330
6F
100
AcDbEntity
  8
0
 62
     0
100
AcDbLine
 10
64.6688
 20
60.03849999999999
 30
0.0
 11
49.0693
 21
60.03849999999999
 31
0.0
  0
LINE
  5
C4
330
6F
100
AcDbEntity
  8
0
 62
     0
100
AcDbLine
 10
49.0693
 20
60.03849999999999
 30
0.0
 11
49.0693
 21
72.8377
 31
0.0
  0
LINE
  5
C5
330
6F
100
AcDbEntity
  8
0
 62
     0
100
AcDbLine
 10
51.4505
 20
15.6876
 30
0.0
 11
67.05
 21
15.6876
 31
0.0
  0
LINE
  5
C6
330
6F
100
AcDbEntity
  8
0
 62
     0
100
AcDbLine
 10
67.05
 20
15.6876
 30
0.0
 11
67.05
 21
2.88837
 31
0.0
  0
LINE
  5
C7
330
6F
100
AcDbEntity
  8
0
 62
     0
100
AcDbLine
 10
67.05
 20
2.88837
 30
0.0
 11
51.4505
 21
2.88837
 31
0.0
  0
LINE
  5
C8
330
6F
100
AcDbEntity
  8
0
 62
     0
100
AcDbLine
 10
51.4505
 20
2.88837
 30
0.0
 11
51.4505
 21
15.6876
 31
0.0
  0
LINE
  5
C9
330
6F
100
AcDbEntity
  8
0
 62
     0
100
AcDbLine
 10
53.8304
 20
53.7877
 30
0.0
 11
69.4313
 21
53.7877
 31
0.0
  0
LINE
  5
CA
330
6F
100
AcDbEntity
  8
0
 62
     0
100
AcDbLine
 10
69.4313
 20
53.7877
 30
0.0
 11
69.4313
 21
40.9885
 31
0.0
  0
LINE
  5
CB
330
6F
100
AcDbEntity
  8
0
 62
     0
100
AcDbLine
 10
69.4313
 20
40.9885
 30
0.0
 11
53.8304
 21
40.9885
 31
0.0
  0
LINE
  5
CC
330
6F
100
AcDbEntity
  8
0
 62
     0
100
AcDbLine
 10
53.8304
 20
40.9885
 30
0.0
 11
53.8304
 21
53.7877
 31
0.0
  0
LINE
  5
CD
330
6F
100
AcDbEntity
  8
0
 62
     0
100
AcDbLine
 10
58.59429999999999
 20
91.88769999999999
 30
0.0
 11
74.1938
 21
91.88769999999999
 31
0.0
  0
LINE
  5
CE
330
6F
100
AcDbEntity
  8
0
 62
     0
100
AcDbLine
 10
74.1938
 20
91.88769999999999
 30
0.0
 11
74.1938
 21
79.0885
 31
0.0
  0
LINE
  5
CF
330
6F
100
AcDbEntity
  8
0
 62
     0
100
AcDbLine
 10
74.1938
 20
79.0885
 30
0.0
 11
58.59429999999999
 21
79.0885
 31
0.0
  0
LINE
  5
D0
330
6F
100
AcDbEntity
  8
0
 62
     0
100
AcDbLine
 10
58.59429999999999
 20
79.0885
 30
0.0
 11
58.59429999999999
 21
91.88769999999999
 31
0.0
  0
LINE
  5
D1
330
6F
100
AcDbEntity
  8
0
 62
     0
100
AcDbLine
 10
63.35679999999999
 20
34.7376
 30
0.0
 11
78.9563
 21
34.7376
 31
0.0
  0
LINE
  5
D2
330
6F
100
AcDbEntity
  8
0
 62
     0
100
AcDbLine
 10
78.9563
 20
34.7376
 30
0.0
 11
78.9563
 21
21.9384
 31
0.0
  0
LINE
  5
D3
330
6F
100
AcDbEntity
  8
0
 62
     0
100
AcDbLine
 10
78.9563
 20
21.9384
 30
0.0
 11
63.35679999999999
 21
21.9384
 31
0.0
  0
LINE
  5
D4
330
6F
100
AcDbEntity
  8
0
 62
     0
100
AcDbLine
 10
63.35679999999999
 20
21.9384
 30
0.0
 11
63.35679999999999
 21
34.7376
 31
0.0
  0
LINE
  5
D5
330
6F
100
AcDbEntity
  8
0
 62
     0
100
AcDbLine
 10
68.1193
 20
72.8377
 30
0.0
 11
83.7188
 21
72.8377
 31
0.0
  0
LINE
  5
D6
330
6F
100
AcDbEntity
  8
0
 62
     0
100
AcDbLine
 10
83.7188
 20
72.8377
 30
0.0
 11
83.7188
 21
60.03849999999999
 31
0.0
  0
LINE
  5
D7
330
6F
100
AcDbEntity
  8
0
 62
     0
100
AcDbLine
 10
83.7188
 20
60.03849999999999
 30
0.0
 11
68.1193
 21
60.03849999999999
 31
0.0
  0
LINE
  5
D8
330
6F
100
AcDbEntity
  8
0
 62
     0
100
AcDbLine
 10
68.1193
 20
60.03849999999999
 30
0.0
 11
68.1193
 21
72.8377
 31
0.0
  0
LINE
  5
D9
330
6F
100
AcDbEntity
  8
0
 62
     0
100
AcDbLine
 10
72.88039999999998
 20
53.7877
 30
0.0
 11
88.48130000000002
 21
53.7877
 31
0.0
  0
LINE
  5
DA
330
6F
100
AcDbEntity
  8
0
 62
     0
100
AcDbLine
 10
88.48130000000002
 20
53.7877
 30
0.0
 11
88.48130000000002
 21
40.9885
 31
0.0
  0
LINE
  5
DB
330
6F
100
AcDbEntity
  8
0
 62
     0
100
AcDbLine
 10
88.48130000000002
 20
40.9885
 30
0.0
 11
72.88039999999998
 21
40.9885
 31
0.0
  0
LINE
  5
DC
330
6F
100
AcDbEntity
  8
0
 62
     0
100
AcDbLine
 10
72.88039999999998
 20
40.9885
 30
0.0
 11
72.88039999999998
 21
53.7877
 31
0.0
  0
LINE
  5
E1
330
6F
100
AcDbEntity
  8
0
 62
     0
100
AcDbLine
 10
77.6443
 20
91.88769999999999
 30
0.0
 11
93.2437
 21
91.88769999999999
 31
0.0
  0
LINE
  5
E2
330
6F
100
AcDbEntity
  8
0
 62
     0
100
AcDbLine
 10
93.2437
 20
91.88769999999999
 30
0.0
 11
93.2437
 21
79.0885
 31
0.0
  0
LINE
  5
E3
330
6F
100
AcDbEntity
  8
0
 62
     0
100
AcDbLine
 10
93.2437
 20
79.0885
 30
0.0
 11
77.6443
 21
79.0885
 31
0.0
  0
LINE
  5
E4
330
6F
100
AcDbEntity
  8
0
 62
     0
100
AcDbLine
 10
77.6443
 20
79.0885
 30
0.0
 11
77.6443
 21
91.88769999999999
 31
0.0
  0
LINE
  5
E5
330
6F
100
AcDbEntity
  8
0
 62
     0
100
AcDbLine
 10
82.40540000000001
 20
34.7376
 30
0.0
 11
98.00620000000002
 21
34.7376
 31
0.0
  0
LINE
  5
E6
330
6F
100
AcDbEntity
  8
0
 62
     0
100
AcDbLine
 10
98.00620000000002
 20
34.7376
 30
0.0
 11
98.00620000000002
 21
21.9384
 31
0.0
  0
LINE
  5
E7
330
6F
100
AcDbEntity
  8
0
 62
     0
100
AcDbLine
 10
98.00620000000002
 20
21.9384
 30
0.0
 11
82.40540000000001
 21
21.9384
 31
0.0
  0
LINE
  5
E8
330
6F
100
AcDbEntity
  8
0
 62
     0
100
AcDbLine
 10
82.40540000000001
 20
21.9384
 30
0.0
 11
82.40540000000001
 21
34.7376
 31
0.0
  0
LINE
  5
E9
330
6F
100
AcDbEntity
  8
0
 62
     0
100
AcDbLine
 10
87.16930000000003
 20
72.8377
 30
0.0
 11
102.769
 21
72.8377
 31
0.0
  0
LINE
  5
EA
330
6F
100
AcDbEntity
  8
0
 62
     0
100
AcDbLine
 10
102.769
 20
72.8377
 30
0.0
 11
102.769
 21
60.03849999999999
 31
0.0
  0
LINE
  5
EB
330
6F
100
AcDbEntity
  8
0
 62
     0
100
AcDbLine
 10
102.769
 20
60.03849999999999
 30
0.0
 11
87.16930000000003
 21
60.03849999999999
 31
0.0
  0
LINE
  5
EC
330
6F
100
AcDbEntity
  8
0
 62
     0
100
AcDbLine
 10
87.16930000000003
 20
60.03849999999999
 30
0.0
 11
87.16930000000003
 21
72.8377
 31
0.0
  0
LINE
  5
ED
330
6F
100
AcDbEntity
  8
0
 62
     0
100
AcDbLine
 10
91.93040000000001
 20
53.7877
 30
0.0
 11
107.531
 21
53.7877
 31
0.0
  0
LINE
  5
EE
330
6F
100
AcDbEntity
  8
0
 62
     0
100
AcDbLine
 10
107.531
 20
53.7877
 30
0.0
 11
107.531
 21
40.9885
 31
0.0
  0
LINE
  5
EF
330
6F
100
AcDbEntity
  8
0
 62
     0
100
AcDbLine
 10
107.531
 20
40.9885
 30
0.0
 11
91.93040000000001
 21
40.9885
 31
0.0
  0
LINE
  5
F0
330
6F
100
AcDbEntity
  8
0
 62
     0
100
AcDbLine
 10
91.93040000000001
 20
40.9885
 30
0.0
 11
91.93040000000001
 21
53.7877
 31
0.0
  0
LINE
  5
F1
330
6F
100
AcDbEntity
  8
0
 62
     0
100
AcDbLine
 10
96.6943
 20
91.88769999999999
 30
0.0
 11
112.294
 21
91.88769999999999
 31
0.0
  0
LINE
  5
F2
330
6F
100
AcDbEntity
  8
0
 62
     0
100
AcDbLine
 10
112.294
 20
91.88769999999999
 30
0.0
 11
112.294
 21
79.0885
 31
0.0
  0
LINE
  5
F3
330
6F
100
AcDbEntity
  8
0
 62
     0
100
AcDbLine
 10
112.294
 20
79.0885
 30
0.0
 11
96.6943
 21
79.0885
 31
0.0
  0
LINE
  5
F4
330
6F
100
AcDbEntity
  8
0
 62
     0
100
AcDbLine
 10
96.6943
 20
79.0885
 30
0.0
 11
96.6943
 21
91.88769999999999
 31
0.0
  0
LINE
  5
F5
330
6F
100
AcDbEntity
  8
0
 62
     0
100
AcDbLine
 10
101.455
 20
34.7376
 30
0.0
 11
117.056
 21
34.7376
 31
0.0
  0
LINE
  5
F6
330
6F
100
AcDbEntity
  8
0
 62
     0
100
AcDbLine
 10
117.056
 20
34.7376
 30
0.0
 11
117.056
 21
21.9384
 31
0.0
  0
LINE
  5
F7
330
6F
100
AcDbEntity
  8
0
 62
     0
100
AcDbLine
 10
117.056
 20
21.9384
 30
0.0
 11
101.455
 21
21.9384
 31
0.0
  0
LINE
  5
F8
330
6F
100
AcDbEntity
  8
0
 62
     0
100
AcDbLine
 10
101.455
 20
21.9384
 30
0.0
 11
101.455
 21
34.7376
 31
0.0
  0
LINE
  5
F9
330
6F
100
AcDbEntity
  8
0
 62
     0
100
AcDbLine
 10
106.219
 20
72.8377
 30
0.0
 11
121.819
 21
72.8377
 31
0.0
  0
LINE
  5
FA
330
6F
100
AcDbEntity
  8
0
 62
     0
100
AcDbLine
 10
121.819
 20
72.8377
 30
0.0
 11
121.819
 21
60.03849999999999
 31
0.0
  0
LINE
  5
FB
330
6F
100
AcDbEntity
  8
0
 62
     0
100
AcDbLine
 10
121.819
 20
60.03849999999999
 30
0.0
 11
106.219
 21
60.03849999999999
 31
0.0
  0
LINE
  5
FC
330
6F
100
AcDbEntity
  8
0
 62
     0
100
AcDbLine
 10
106.219
 20
60.03849999999999
 30
0.0
 11
106.219
 21
72.8377
 31
0.0
  0
LINE
  5
FD
330
6F
100
AcDbEntity
  8
0
 62
     0
100
AcDbLine
 10
115.744
 20
91.88769999999999
 30
0.0
 11
131.344
 21
91.88769999999999
 31
0.0
  0
LINE
  5
FE
330
6F
100
AcDbEntity
  8
0
 62
     0
100
AcDbLine
 10
131.344
 20
91.88769999999999
 30
0.0
 11
131.344
 21
79.0885
 31
0.0
  0
LINE
  5
FF
330
6F
100
AcDbEntity
  8
0
 62
     0
100
AcDbLine
 10
131.344
 20
79.0885
 30
0.0
 11
115.744
 21
79.0885
 31
0.0
  0
LINE
  5
100
330
6F
100
AcDbEntity
  8
0
 62
     0
100
AcDbLine
 10
115.744
 20
79.0885
 30
0.0
 11
115.744
 21
91.88769999999999
 31
0.0
  0
LINE
  5
101
330
6F
100
AcDbEntity
  8
0
 62
     0
100
AcDbLine
 10
120.507
 20
34.7376
 30
0.0
 11
136.106
 21
34.7376
 31
0.0
  0
LINE
  5
102
330
6F
100
AcDbEntity
  8
0
 62
     0
100
AcDbLine
 10
136.106
 20
34.7376
 30
0.0
 11
136.106
 21
21.9384
 31
0.0
  0
LINE
  5
103
330
6F
100
AcDbEntity
  8
0
 62
     0
100
AcDbLine
 10
136.106
 20
21.9384
 30
0.0
 11
120.507
 21
21.9384
 31
0.0
  0
LINE
  5
104
330
6F
100
AcDbEntity
  8
0
 62
     0
100
AcDbLine
 10
120.507
 20
21.9384
 30
0.0
 11
120.507
 21
34.7376
 31
0.0
  0
LINE
  5
105
330
6F
100
AcDbEntity
  8
0
 62
     0
100
AcDbLine
 10
122.888
 20
15.6876
 30
0.0
 11
138.487
 21
15.6876
 31
0.0
  0
LINE
  5
106
330
6F
100
AcDbEntity
  8
0
 62
     0
100
AcDbLine
 10
138.487
 20
15.6876
 30
0.0
 11
138.487
 21
2.88837
 31
0.0
  0
LINE
  5
107
330
6F
100
AcDbEntity
  8
0
 62
     0
100
AcDbLine
 10
138.487
 20
2.88837
 30
0.0
 11
122.888
 21
2.88837
 31
0.0
  0
LINE
  5
108
330
6F
100
AcDbEntity
  8
0
 62
     0
100
AcDbLine
 10
122.888
 20
2.88837
 30
0.0
 11
122.888
 21
15.6876
 31
0.0
  0
LINE
  5
109
330
6F
100
AcDbEntity
  8
0
 62
     0
100
AcDbLine
 10
125.269
 20
72.8377
 30
0.0
 11
140.869
 21
72.8377
 31
0.0
  0
LINE
  5
10A
330
6F
100
AcDbEntity
  8
0
 62
     0
100
AcDbLine
 10
140.869
 20
72.8377
 30
0.0
 11
140.869
 21
60.03849999999999
 31
0.0
  0
LINE
  5
10B
330
6F
100
AcDbEntity
  8
0
 62
     0
100
AcDbLine
 10
140.869
 20
60.03849999999999
 30
0.0
 11
125.269
 21
60.03849999999999
 31
0.0
  0
LINE
  5
10C
330
6F
100
AcDbEntity
  8
0
 62
     0
100
AcDbLine
 10
125.269
 20
60.03849999999999
 30
0.0
 11
125.269
 21
72.8377
 31
0.0
  0
LINE
  5
115
330
6F
100
AcDbEntity
  8
0
 62
     0
100
AcDbLine
 10
126.581
 20
40.9885
 30
0.0
 11
110.98
 21
40.9885
 31
0.0
  0
LINE
  5
116
330
6F
100
AcDbEntity
  8
0
 62
     0
100
AcDbLine
 10
110.98
 20
40.9885
 30
0.0
 11
110.98
 21
53.7877
 31
0.0
  0
LINE
  5
117
330
6F
100
AcDbEntity
  8
0
 62
     0
100
AcDbLine
 10
110.98
 20
53.7877
 30
0.0
 11
126.581
 21
53.7877
 31
0.0
  0
LINE
  5
120
330
6F
100
AcDbEntity
  8
0
 62
     0
100
AcDbLine
 10
130.03
 20
53.7877
 30
0.0
 11
145.631
 21
53.7877
 31
0.0
  0
LINE
  5
121
330
6F
100
AcDbEntity
  8
0
 62
     0
100
AcDbLine
 10
145.631
 20
53.7877
 30
0.0
 11
145.631
 21
40.9885
 31
0.0
  0
LINE
  5
122
330
6F
100
AcDbEntity
  8
0
 62
     0
100
AcDbLine
 10
145.631
 20
40.9885
 30
0.0
 11
130.03
 21
40.9885
 31
0.0
  0
LINE
  5
123
330
6F
100
AcDbEntity
  8
0
 62
     0
100
AcDbLine
 10
134.794
 20
91.88769999999999
 30
0.0
 11
150.394
 21
91.88769999999999
 31
0.0
  0
LINE
  5
124
330
6F
100
AcDbEntity
  8
0
 62
     0
100
AcDbLine
 10
150.394
 20
91.88769999999999
 30
0.0
 11
150.394
 21
79.0885
 31
0.0
  0
LINE
  5
125
330
6F
100
AcDbEntity
  8
0
 62
     0
100
AcDbLine
 10
150.394
 20
79.0885
 30
0.0
 11
134.794
 21
79.0885
 31
0.0
  0
LINE
  5
126
330
6F
100
AcDbEntity
  8
0
 62
     0
100
AcDbLine
 10
134.794
 20
79.0885
 30
0.0
 11
134.794
 21
91.88769999999999
 31
0.0
  0
LINE
  5
127
330
6F
100
AcDbEntity
  8
0
 62
     0
100
AcDbLine
 10
139.557
 20
34.7376
 30
0.0
 11
155.156
 21
34.7376
 31
0.0
  0
LINE
  5
128
330
6F
100
AcDbEntity
  8
0
 62
     0
100
AcDbLine
 10
155.156
 20
34.7376
 30
0.0
 11
155.156
 21
21.9384
 31
0.0
  0
LINE
  5
129
330
6F
100
AcDbEntity
  8
0
 62
     0
100
AcDbLine
 10
155.156
 20
21.9384
 30
0.0
 11
139.557
 21
21.9384
 31
0.0
  0
LINE
  5
12A
330
6F
100
AcDbEntity
  8
0
 62
     0
100
AcDbLine
 10
139.557
 20
21.9384
 30
0.0
 11
139.557
 21
34.7376
 31
0.0
  0
LINE
  5
12B
330
6F
100
AcDbEntity
  8
0
 62
     0
100
AcDbLine
 10
144.319
 20
72.8377
 30
0.0
 11
159.919
 21
72.8377
 31
0.0
  0
LINE
  5
12C
330
6F
100
AcDbEntity
  8
0
 62
     0
100
AcDbLine
 10
159.919
 20
72.8377
 30
0.0
 11
159.919
 21
60.03849999999999
 31
0.0
  0
LINE
  5
12D
330
6F
100
AcDbEntity
  8
0
 62
     0
100
AcDbLine
 10
159.919
 20
60.03849999999999
 30
0.0
 11
144.319
 21
60.03849999999999
 31
0.0
  0
LINE
  5
12E
330
6F
100
AcDbEntity
  8
0
 62
     0
100
AcDbLine
 10
144.319
 20
60.03849999999999
 30
0.0
 11
144.319
 21
72.8377
 31
0.0
  0
LINE
  5
12F
330
6F
100
AcDbEntity
  8
0
 62
     0
100
AcDbLine
 10
149.08
 20
53.7877
 30
0.0
 11
164.681
 21
53.7877
 31
0.0
  0
LINE
  5
130
330
6F
100
AcDbEntity
  8
0
 62
     0
100
AcDbLine
 10
164.681
 20
53.7877
 30
0.0
 11
164.681
 21
40.9885
 31
0.0
  0
LINE
  5
131
330
6F
100
AcDbEntity
  8
0
 62
     0
100
AcDbLine
 10
164.681
 20
40.9885
 30
0.0
 11
149.08
 21
40.9885
 31
0.0
  0
LINE
  5
132
330
6F
100
AcDbEntity
  8
0
 62
     0
100
AcDbLine
 10
149.08
 20
40.9885
 30
0.0
 11
149.08
 21
53.7877
 31
0.0
  0
LINE
  5
133
330
6F
100
AcDbEntity
  8
0
 62
     0
100
AcDbLine
 10
153.844
 20
91.88769999999999
 30
0.0
 11
169.444
 21
91.88769999999999
 31
0.0
  0
LINE
  5
134
330
6F
100
AcDbEntity
  8
0
 62
     0
100
AcDbLine
 10
169.444
 20
91.88769999999999
 30
0.0
 11
169.444
 21
79.0885
 31
0.0
  0
LINE
  5
135
330
6F
100
AcDbEntity
  8
0
 62
     0
100
AcDbLine
 10
169.444
 20
79.0885
 30
0.0
 11
153.844
 21
79.0885
 31
0.0
  0
LINE
  5
136
330
6F
100
AcDbEntity
  8
0
 62
     0
100
AcDbLine
 10
153.844
 20
79.0885
 30
0.0
 11
153.844
 21
91.88769999999999
 31
0.0
  0
LINE
  5
13B
330
6F
100
AcDbEntity
  8
0
 62
     0
100
AcDbLine
 10
158.607
 20
34.7376
 30
0.0
 11
174.206
 21
34.7376
 31
0.0
  0
LINE
  5
13C
330
6F
100
AcDbEntity
  8
0
 62
     0
100
AcDbLine
 10
174.206
 20
34.7376
 30
0.0
 11
174.206
 21
21.9384
 31
0.0
  0
LINE
  5
13D
330
6F
100
AcDbEntity
  8
0
 62
     0
100
AcDbLine
 10
174.206
 20
21.9384
 30
0.0
 11
158.607
 21
21.9384
 31
0.0
  0
LINE
  5
13E
330
6F
100
AcDbEntity
  8
0
 62
     0
100
AcDbLine
 10
158.607
 20
21.9384
 30
0.0
 11
158.607
 21
34.7376
 31
0.0
  0
LINE
  5
13F
330
6F
100
AcDbEntity
  8
0
 62
     0
100
AcDbLine
 10
163.369
 20
72.8377
 30
0.0
 11
178.969
 21
72.8377
 31
0.0
  0
LINE
  5
140
330
6F
100
AcDbEntity
  8
0
 62
     0
100
AcDbLine
 10
178.969
 20
72.8377
 30
0.0
 11
178.969
 21
60.03849999999999
 31
0.0
  0
LINE
  5
141
330
6F
100
AcDbEntity
  8
0
 62
     0
100
AcDbLine
 10
178.969
 20
60.03849999999999
 30
0.0
 11
163.369
 21
60.03849999999999
 31
0.0
  0
LINE
  5
142
330
6F
100
AcDbEntity
  8
0
 62
     0
100
AcDbLine
 10
163.369
 20
60.03849999999999
 30
0.0
 11
163.369
 21
72.8377
 31
0.0
  0
LINE
  5
143
330
6F
100
AcDbEntity
  8
0
 62
     0
100
AcDbLine
 10
168.13
 20
53.7877
 30
0.0
 11
183.731
 21
53.7877
 31
0.0
  0
LINE
  5
144
330
6F
100
AcDbEntity
  8
0
 62
     0
100
AcDbLine
 10
183.731
 20
53.7877
 30
0.0
 11
183.731
 21
40.9885
 31
0.0
  0
LINE
  5
145
330
6F
100
AcDbEntity
  8
0
 62
     0
100
AcDbLine
 10
183.731
 20
40.9885
 30
0.0
 11
168.13
 21
40.9885
 31
0.0
  0
LINE
  5
146
330
6F
100
AcDbEntity
  8
0
 62
     0
100
AcDbLine
 10
168.13
 20
40.9885
 30
0.0
 11
168.13
 21
53.7877
 31
0.0
  0
LINE
  5
147
330
6F
100
AcDbEntity
  8
0
 62
     0
100
AcDbLine
 10
172.894
 20
91.88769999999999
 30
0.0
 11
188.494
 21
91.88769999999999
 31
0.0
  0
LINE
  5
148
330
6F
100
AcDbEntity
  8
0
 62
     0
100
AcDbLine
 10
188.494
 20
91.88769999999999
 30
0.0
 11
188.494
 21
79.0885
 31
0.0
  0
LINE
  5
149
330
6F
100
AcDbEntity
  8
0
 62
     0
100
AcDbLine
 10
188.494
 20
79.0885
 30
0.0
 11
172.894
 21
79.0885
 31
0.0
  0
LINE
  5
14A
330
6F
100
AcDbEntity
  8
0
 62
     0
100
AcDbLine
 10
172.894
 20
79.0885
 30
0.0
 11
172.894
 21
91.88769999999999
 31
0.0
  0
LINE
  5
14B
330
6F
100
AcDbEntity
  8
0
 62
     0
100
AcDbLine
 10
193.094
 20
9.48778
 30
0.0
 11
192.972
 21
10.2609
 31
0.0
  0
LINE
  5
14C
330
6F
100
AcDbEntity
  8
0
 62
     0
100
AcDbLine
 10
192.972
 20
10.2609
 30
0.0
 11
192.617
 21
10.9568
 31
0.0
  0
LINE
  5
14D
330
6F
100
AcDbEntity
  8
0
 62
     0
100
AcDbLine
 10
192.617
 20
10.9568
 30
0.0
 11
192.063
 21
11.5108
 31
0.0
  0
LINE
  5
14E
330
6F
100
AcDbEntity
  8
0
 62
     0
100
AcDbLine
 10
192.063
 20
11.5108
 30
0.0
 11
191.367
 21
11.8663
 31
0.0
  0
LINE
  5
14F
330
6F
100
AcDbEntity
  8
0
 62
     0
100
AcDbLine
 10
191.367
 20
11.8663
 30
0.0
 11
190.594
 21
11.9876
 31
0.0
  0
LINE
  5
150
330
6F
100
AcDbEntity
  8
0
 62
     0
100
AcDbLine
 10
190.594
 20
11.9876
 30
0.0
 11
189.821
 21
11.8663
 31
0.0
  0
LINE
  5
151
330
6F
100
AcDbEntity
  8
0
 62
     0
100
AcDbLine
 10
189.821
 20
11.8663
 30
0.0
 11
189.125
 21
11.5108
 31
0.0
  0
LINE
  5
152
330
6F
100
AcDbEntity
  8
0
 62
     0
100
AcDbLine
 10
189.125
 20
11.5108
 30
0.0
 11
188.571
 21
10.9568
 31
0.0
  0
LINE
  5
153
330
6F
100
AcDbEntity
  8
0
 62
     0
100
AcDbLine
 10
188.571
 20
10.9568
 30
0.0
 11
188.215
 21
10.2609
 31
0.0
  0
LINE
  5
154
330
6F
100
AcDbEntity
  8
0
 62
     0
100
AcDbLine
 10
188.215
 20
10.2609
 30
0.0
 11
188.094
 21
9.48778
 31
0.0
  0
LINE
  5
155
330
6F
100
AcDbEntity
  8
0
 62
     0
100
AcDbLine
 10
188.094
 20
9.48778
 30
0.0
 11
188.215
 21
8.7147
 31
0.0
  0
LINE
  5
156
330
6F
100
AcDbEntity
  8
0
 62
     0
100
AcDbLine
 10
188.215
 20
8.7147
 30
0.0
 11
188.571
 21
8.018819999999998
 31
0.0
  0
LINE
  5
157
330
6F
100
AcDbEntity
  8
0
 62
     0
100
AcDbLine
 10
188.571
 20
8.018819999999998
 30
0.0
 11
189.125
 21
7.46485
 31
0.0
  0
LINE
  5
158
330
6F
100
AcDbEntity
  8
0
 62
     0
100
AcDbLine
 10
189.125
 20
7.46485
 30
0.0
 11
189.821
 21
7.10928
 31
0.0
  0
LINE
  5
159
330
6F
100
AcDbEntity
  8
0
 62
     0
100
AcDbLine
 10
189.821
 20
7.10928
 30
0.0
 11
190.594
 21
6.98803
 31
0.0
  0
LINE
  5
15A
330
6F
100
AcDbEntity
  8
0
 62
     0
100
AcDbLine
 10
190.594
 20
6.98803
 30
0.0
 11
191.367
 21
7.10928
 31
0.0
  0
LINE
  5
15B
330
6F
100
AcDbEntity
  8
0
 62
     0
100
AcDbLine
 10
191.367
 20
7.10928
 30
0.0
 11
192.063
 21
7.46485
 31
0.0
  0
LINE
  5
15C
330
6F
100
AcDbEntity
  8
0
 62
     0
100
AcDbLine
 10
192.063
 20
7.46485
 30
0.0
 11
192.617
 21
8.018819999999998
 31
0.0
  0
LINE
  5
15D
330
6F
100
AcDbEntity
  8
0
 62
     0
100
AcDbLine
 10
192.617
 20
8.018819999999998
 30
0.0
 11
192.972
 21
8.7147
 31
0.0
  0
LINE
  5
15E
330
6F
100
AcDbEntity
  8
0
 62
     0
100
AcDbLine
 10
192.972
 20
8.7147
 30
0.0
 11
193.094
 21
9.48778
 31
0.0
  0
LINE
  5
15F
330
6F
100
AcDbEntity
  8
0
 62
     0
100
AcDbLine
 10
177.657
 20
34.7376
 30
0.0
 11
193.256
 21
34.7376
 31
0.0
  0
LINE
  5
160
330
6F
100
AcDbEntity
  8
0
 62
     0
100
AcDbLine
 10
193.256
 20
34.7376
 30
0.0
 11
193.256
 21
21.9384
 31
0.0
  0
LINE
  5
161
330
6F
100
AcDbEntity
  8
0
 62
     0
100
AcDbLine
 10
193.256
 20
21.9384
 30
0.0
 11
177.657
 21
21.9384
 31
0.0
  0
LINE
  5
162
330
6F
100
AcDbEntity
  8
0
 62
     0
100
AcDbLine
 10
177.657
 20
21.9384
 30
0.0
 11
177.657
 21
34.7376
 31
0.0
  0
LINE
  5
163
330
6F
100
AcDbEntity
  8
0
 62
     0
100
AcDbLine
 10
182.419
 20
72.8377
 30
0.0
 11
198.019
 21
72.8377
 31
0.0
  0
LINE
  5
164
330
6F
100
AcDbEntity
  8
0
 62
     0
100
AcDbLine
 10
198.019
 20
72.8377
 30
0.0
 11
198.019
 21
60.03849999999999
 31
0.0
  0
LINE
  5
165
330
6F
100
AcDbEntity
  8
0
 62
     0
100
AcDbLine
 10
198.019
 20
60.03849999999999
 30
0.0
 11
182.419
 21
60.03849999999999
 31
0.0
  0
LINE
  5
166
330
6F
100
AcDbEntity
  8
0
 62
     0
100
AcDbLine
 10
182.419
 20
60.03849999999999
 30
0.0
 11
182.419
 21
72.8377
 31
0.0
  0
LINE
  5
167
330
6F
100
AcDbEntity
  8
0
 62
     0
100
AcDbLine
 10
187.182
 20
53.7877
 30
0.0
 11
202.781
 21
53.7877
 31
0.0
  0
LINE
  5
168
330
6F
100
AcDbEntity
  8
0
 62
     0
100
AcDbLine
 10
202.781
 20
53.7877
 30
0.0
 11
202.781
 21
40.9885
 31
0.0
  0
LINE
  5
169
330
6F
100
AcDbEntity
  8
0
 62
     0
100
AcDbLine
 10
202.781
 20
40.9885
 30
0.0
 11
187.182
 21
40.9885
 31
0.0
  0
LINE
  5
16A
330
6F
100
AcDbEntity
  8
0
 62
     0
100
AcDbLine
 10
187.182
 20
40.9885
 30
0.0
 11
187.182
 21
53.7877
 31
0.0
  0
LINE
  5
16B
330
6F
100
AcDbEntity
  8
0
 62
     0
100
AcDbLine
 10
191.944
 20
91.88769999999999
 30
0.0
 11
207.544
 21
91.88769999999999
 31
0.0
  0
LINE
  5
16C
330
6F
100
AcDbEntity
  8
0
 62
     0
100
AcDbLine
 10
207.544
 20
91.88769999999999
 30
0.0
 11
207.544
 21
79.0885
 31
0.0
  0
LINE
  5
16D
330
6F
100
AcDbEntity
  8
0
 62
     0
100
AcDbLine
 10
207.544
 20
79.0885
 30
0.0
 11
191.944
 21
79.0885
 31
0.0
  0
LINE
  5
16E
330
6F
100
AcDbEntity
  8
0
 62
     0
100
AcDbLine
 10
191.944
 20
79.0885
 30
0.0
 11
191.944
 21
91.88769999999999
 31
0.0
  0
LINE
  5
16F
330
6F
100
AcDbEntity
  8
0
 62
     0
100
AcDbLine
 10
194.326
 20
15.6876
 30
0.0
 11
209.925
 21
15.6876
 31
0.0
  0
LINE
  5
170
330
6F
100
AcDbEntity
  8
0
 62
     0
100
AcDbLine
 10
209.925
 20
15.6876
 30
0.0
 11
209.925
 21
2.88837
 31
0.0
  0
LINE
  5
171
330
6F
100
AcDbEntity
  8
0
 62
     0
100
AcDbLine
 10
209.925
 20
2.88837
 30
0.0
 11
194.326
 21
2.88837
 31
0.0
  0
LINE
  5
172
330
6F
100
AcDbEntity
  8
0
 62
     0
100
AcDbLine
 10
194.326
 20
2.88837
 30
0.0
 11
194.326
 21
15.6876
 31
0.0
  0
LINE
  5
173
330
6F
100
AcDbEntity
  8
0
 62
     0
100
AcDbLine
 10
196.707
 20
34.7376
 30
0.0
 11
212.306
 21
34.7376
 31
0.0
  0
LINE
  5
174
330
6F
100
AcDbEntity
  8
0
 62
     0
100
AcDbLine
 10
212.306
 20
34.7376
 30
0.0
 11
212.306
 21
21.9384
 31
0.0
  0
LINE
  5
175
330
6F
100
AcDbEntity
  8
0
 62
     0
100
AcDbLine
 10
212.306
 20
21.9384
 30
0.0
 11
196.707
 21
21.9384
 31
0.0
  0
LINE
  5
176
330
6F
100
AcDbEntity
  8
0
 62
     0
100
AcDbLine
 10
196.707
 20
21.9384
 30
0.0
 11
196.707
 21
34.7376
 31
0.0
  0
LINE
  5
177
330
6F
100
AcDbEntity
  8
0
 62
     0
100
AcDbLine
 10
201.469
 20
72.8377
 30
0.0
 11
217.069
 21
72.8377
 31
0.0
  0
LINE
  5
178
330
6F
100
AcDbEntity
  8
0
 62
     0
100
AcDbLine
 10
217.069
 20
72.8377
 30
0.0
 11
217.069
 21
60.03849999999999
 31
0.0
  0
LINE
  5
179
330
6F
100
AcDbEntity
  8
0
 62
     0
100
AcDbLine
 10
217.069
 20
60.03849999999999
 30
0.0
 11
201.469
 21
60.03849999999999
 31
0.0
  0
LINE
  5
17A
330
6F
100
AcDbEntity
  8
0
 62
     0
100
AcDbLine
 10
201.469
 20
60.03849999999999
 30
0.0
 11
201.469
 21
72.8377
 31
0.0
  0
LINE
  5
17B
330
6F
100
AcDbEntity
  8
0
 62
     0
100
AcDbLine
 10
206.232
 20
53.7877
 30
0.0
 11
221.831
 21
53.7877
 31
0.0
  0
LINE
  5
17C
330
6F
100
AcDbEntity
  8
0
 62
     0
100
AcDbLine
 10
221.831
 20
53.7877
 30
0.0
 11
221.831
 21
40.9885
 31
0.0
  0
LINE
  5
17D
330
6F
100
AcDbEntity
  8
0
 62
     0
100
AcDbLine
 10
221.831
 20
40.9885
 30
0.0
 11
206.232
 21
40.9885
 31
0.0
  0
LINE
  5
17E
330
6F
100
AcDbEntity
  8
0
 62
     0
100
AcDbLine
 10
206.232
 20
40.9885
 30
0.0
 11
206.232
 21
53.7877
 31
0.0
  0
LINE
  5
17F
330
6F
100
AcDbEntity
  8
0
 62
     0
100
AcDbLine
 10
210.994
 20
91.88769999999999
 30
0.0
 11
226.594
 21
91.88769999999999
 31
0.0
  0
LINE
  5
180
330
6F
100
AcDbEntity
  8
0
 62
     0
100
AcDbLine
 10
226.594
 20
91.88769999999999
 30
0.0
 11
226.594
 21
79.0885
 31
0.0
  0
LINE
  5
181
330
6F
100
AcDbEntity
  8
0
 62
     0
100
AcDbLine
 10
226.594
 20
79.0885
 30
0.0
 11
210.994
 21
79.0885
 31
0.0
  0
LINE
  5
182
330
6F
100
AcDbEntity
  8
0
 62
     0
100
AcDbLine
 10
210.994
 20
79.0885
 30
0.0
 11
210.994
 21
91.88769999999999
 31
0.0
  0
LINE
  5
183
330
6F
100
AcDbEntity
  8
0
 62
     0
100
AcDbLine
 10
215.757
 20
34.7376
 30
0.0
 11
231.356
 21
34.7376
 31
0.0
  0
LINE
  5
184
330
6F
100
AcDbEntity
  8
0
 62
     0
100
AcDbLine
 10
231.356
 20
34.7376
 30
0.0
 11
231.356
 21
21.9384
 31
0.0
  0
LINE
  5
185
330
6F
100
AcDbEntity
  8
0
 62
     0
100
AcDbLine
 10
231.356
 20
21.9384
 30
0.0
 11
215.757
 21
21.9384
 31
0.0
  0
LINE
  5
186
330
6F
100
AcDbEntity
  8
0
 62
     0
100
AcDbLine
 10
215.757
 20
21.9384
 30
0.0
 11
215.757
 21
34.7376
 31
0.0
  0
LINE
  5
187
330
6F
100
AcDbEntity
  8
0
 62
     0
100
AcDbLine
 10
218.138
 20
15.6876
 30
0.0
 11
233.737
 21
15.6876
 31
0.0
  0
LINE
  5
188
330
6F
100
AcDbEntity
  8
0
 62
     0
100
AcDbLine
 10
233.737
 20
15.6876
 30
0.0
 11
233.737
 21
2.88837
 31
0.0
  0
LINE
  5
189
330
6F
100
AcDbEntity
  8
0
 62
     0
100
AcDbLine
 10
233.737
 20
2.88837
 30
0.0
 11
218.138
 21
2.88837
 31
0.0
  0
LINE
  5
18A
330
6F
100
AcDbEntity
  8
0
 62
     0
100
AcDbLine
 10
218.138
 20
2.88837
 30
0.0
 11
218.138
 21
15.6876
 31
0.0
  0
LINE
  5
18B
330
6F
100
AcDbEntity
  8
0
 62
     0
100
AcDbLine
 10
220.519
 20
72.8377
 30
0.0
 11
236.119
 21
72.8377
 31
0.0
  0
LINE
  5
18C
330
6F
100
AcDbEntity
  8
0
 62
     0
100
AcDbLine
 10
236.119
 20
72.8377
 30
0.0
 11
236.119
 21
60.03849999999999
 31
0.0
  0
LINE
  5
18D
330
6F
100
AcDbEntity
  8
0
 62
     0
100
AcDbLine
 10
236.119
 20
60.03849999999999
 30
0.0
 11
220.519
 21
60.03849999999999
 31
0.0
  0
LINE
  5
18E
330
6F
100
AcDbEntity
  8
0
 62
     0
100
AcDbLine
 10
220.519
 20
60.03849999999999
 30
0.0
 11
220.519
 21
72.8377
 31
0.0
  0
LINE
  5
18F
330
6F
100
AcDbEntity
  8
0
 62
     0
100
AcDbLine
 10
236.352
 20
19.2526
 30
0.0
 11
236.352
 21
24.4643
 31
0.0
  0
LINE
  5
190
330
6F
100
AcDbEntity
  8
0
 62
     0
100
AcDbLine
 10
236.352
 20
24.4643
 30
0.0
 11
239.018
 21
24.4643
 31
0.0
  0
LINE
  5
191
330
6F
100
AcDbEntity
  8
0
 62
     0
100
AcDbLine
 10
239.018
 20
24.4643
 30
0.0
 11
239.018
 21
19.2581
 31
0.0
  0
LINE
  5
192
330
6F
100
AcDbEntity
  8
0
 62
     0
100
AcDbLine
 10
239.018
 20
19.2581
 30
0.0
 11
236.352
 21
19.2526
 31
0.0
  0
LINE
  5
193
330
6F
100
AcDbEntity
  8
0
 62
     0
100
AcDbLine
 10
225.282
 20
53.7877
 30
0.0
 11
240.881
 21
53.7877
 31
0.0
  0
LINE
  5
194
330
6F
100
AcDbEntity
  8
0
 62
     0
100
AcDbLine
 10
240.881
 20
53.7877
 30
0.0
 11
240.881
 21
40.9885
 31
0.0
  0
LINE
  5
195
330
6F
100
AcDbEntity
  8
0
 62
     0
100
AcDbLine
 10
240.881
 20
40.9885
 30
0.0
 11
225.282
 21
40.9885
 31
0.0
  0
LINE
  5
196
330
6F
100
AcDbEntity
  8
0
 62
     0
100
AcDbLine
 10
225.282
 20
40.9885
 30
0.0
 11
225.282
 21
53.7877
 31
0.0
  0
LINE
  5
197
330
6F
100
AcDbEntity
  8
0
 62
     0
100
AcDbLine
 10
230.044
 20
91.88769999999999
 30
0.0
 11
245.644
 21
91.88769999999999
 31
0.0
  0
LINE
  5
198
330
6F
100
AcDbEntity
  8
0
 62
     0
100
AcDbLine
 10
245.644
 20
91.88769999999999
 30
0.0
 11
245.644
 21
79.0885
 31
0.0
  0
LINE
  5
199
330
6F
100
AcDbEntity
  8
0
 62
     0
100
AcDbLine
 10
245.644
 20
79.0885
 30
0.0
 11
230.044
 21
79.0885
 31
0.0
  0
LINE
  5
19A
330
6F
100
AcDbEntity
  8
0
 62
     0
100
AcDbLine
 10
230.044
 20
79.0885
 30
0.0
 11
230.044
 21
91.88769999999999
 31
0.0
  0
LINE
  5
19B
330
6F
100
AcDbEntity
  8
0
 62
     0
100
AcDbLine
 10
248.609
 20
38.3025
 30
0.0
 11
248.609
 21
43.5144
 31
0.0
  0
LINE
  5
19C
330
6F
100
AcDbEntity
  8
0
 62
     0
100
AcDbLine
 10
248.609
 20
43.5144
 30
0.0
 11
251.274
 21
43.5144
 31
0.0
  0
LINE
  5
19D
330
6F
100
AcDbEntity
  8
0
 62
     0
100
AcDbLine
 10
251.274
 20
43.5144
 30
0.0
 11
251.274
 21
38.30810000000001
 31
0.0
  0
LINE
  5
19E
330
6F
100
AcDbEntity
  8
0
 62
     0
100
AcDbLine
 10
251.274
 20
38.30810000000001
 30
0.0
 11
248.609
 21
38.3025
 31
0.0
  0
LINE
  5
19F
330
6F
100
AcDbEntity
  8
0
 62
     0
100
AcDbLine
 10
250.99
 20
76.4025
 30
0.0
 11
250.99
 21
81.6144
 31
0.0
  0
LINE
  5
1A0
330
6F
100
AcDbEntity
  8
0
 62
     0
100
AcDbLine
 10
250.99
 20
81.6144
 30
0.0
 11
253.655
 21
81.6144
 31
0.0
  0
LINE
  5
1A1
330
6F
100
AcDbEntity
  8
0
 62
     0
100
AcDbLine
 10
253.655
 20
81.6144
 30
0.0
 11
253.655
 21
76.4081
 31
0.0
  0
LINE
  5
1A2
330
6F
100
AcDbEntity
  8
0
 62
     0
100
AcDbLine
 10
253.655
 20
76.4081
 30
0.0
 11
250.99
 21
76.4025
 31
0.0
  0
LINE
  5
1A3
330
6F
100
AcDbEntity
  8
0
 62
     0
100
AcDbLine
 10
239.569
 20
72.8377
 30
0.0
 11
255.169
 21
72.8377
 31
0.0
  0
LINE
  5
1A4
330
6F
100
AcDbEntity
  8
0
 62
     0
100
AcDbLine
 10
255.169
 20
72.8377
 30
0.0
 11
255.169
 21
60.03849999999999
 31
0.0
  0
LINE
  5
1A5
330
6F
100
AcDbEntity
  8
0
 62
     0
100
AcDbLine
 10
255.169
 20
60.03849999999999
 30
0.0
 11
239.569
 21
60.03849999999999
 31
0.0
  0
LINE
  5
1A6
330
6F
100
AcDbEntity
  8
0
 62
     0
100
AcDbLine
 10
239.569
 20
60.03849999999999
 30
0.0
 11
239.569
 21
72.8377
 31
0.0
  0
LINE
  5
1A7
330
6F
100
AcDbEntity
  8
0
 62
     0
100
AcDbLine
 10
241.949
 20
15.6876
 30
0.0
 11
257.55
 21
15.6876
 31
0.0
  0
LINE
  5
1A8
330
6F
100
AcDbEntity
  8
0
 62
     0
100
AcDbLine
 10
257.55
 20
15.6876
 30
0.0
 11
257.55
 21
2.88837
 31
0.0
  0
LINE
  5
1A9
330
6F
100
AcDbEntity
  8
0
 62
     0
100
AcDbLine
 10
257.55
 20
2.88837
 30
0.0
 11
241.949
 21
2.88837
 31
0.0
  0
LINE
  5
1AA
330
6F
100
AcDbEntity
  8
0
 62
     0
100
AcDbLine
 10
241.949
 20
2.88837
 30
0.0
 11
241.949
 21
15.6876
 31
0.0
  0
LINE
  5
1AB
330
6F
100
AcDbEntity
  8
0
 62
     0
100
AcDbLine
 10
262.643
 20
66.78789999999999
 30
0.0
 11
262.522
 21
67.5612
 31
0.0
  0
LINE
  5
1AC
330
6F
100
AcDbEntity
  8
0
 62
     0
100
AcDbLine
 10
262.522
 20
67.5612
 30
0.0
 11
262.166
 21
68.2569
 31
0.0
  0
LINE
  5
1AD
330
6F
100
AcDbEntity
  8
0
 62
     0
100
AcDbLine
 10
262.166
 20
68.2569
 30
0.0
 11
261.612
 21
68.81109999999999
 31
0.0
  0
LINE
  5
1AE
330
6F
100
AcDbEntity
  8
0
 62
     0
100
AcDbLine
 10
261.612
 20
68.81109999999999
 30
0.0
 11
260.916
 21
69.1653
 31
0.0
  0
LINE
  5
1AF
330
6F
100
AcDbEntity
  8
0
 62
     0
100
AcDbLine
 10
260.916
 20
69.1653
 30
0.0
 11
260.143
 21
69.2877
 31
0.0
  0
LINE
  5
1B0
330
6F
100
AcDbEntity
  8
0
 62
     0
100
AcDbLine
 10
260.143
 20
69.2877
 30
0.0
 11
259.37
 21
69.1653
 31
0.0
  0
LINE
  5
1B1
330
6F
100
AcDbEntity
  8
0
 62
     0
100
AcDbLine
 10
259.37
 20
69.1653
 30
0.0
 11
258.674
 21
68.81109999999999
 31
0.0
  0
LINE
  5
1B2
330
6F
100
AcDbEntity
  8
0
 62
     0
100
AcDbLine
 10
258.674
 20
68.81109999999999
 30
0.0
 11
258.12
 21
68.2569
 31
0.0
  0
LINE
  5
1B3
330
6F
100
AcDbEntity
  8
0
 62
     0
100
AcDbLine
 10
258.12
 20
68.2569
 30
0.0
 11
257.766
 21
67.5612
 31
0.0
  0
LINE
  5
1B4
330
6F
100
AcDbEntity
  8
0
 62
     0
100
AcDbLine
 10
257.766
 20
67.5612
 30
0.0
 11
257.643
 21
66.78789999999999
 31
0.0
  0
LINE
  5
1B5
330
6F
100
AcDbEntity
  8
0
 62
     0
100
AcDbLine
 10
257.643
 20
66.78789999999999
 30
0.0
 11
257.766
 21
66.015
 31
0.0
  0
LINE
  5
1B6
330
6F
100
AcDbEntity
  8
0
 62
     0
100
AcDbLine
 10
257.766
 20
66.015
 30
0.0
 11
258.12
 21
65.3189
 31
0.0
  0
LINE
  5
1B7
330
6F
100
AcDbEntity
  8
0
 62
     0
100
AcDbLine
 10
258.12
 20
65.3189
 30
0.0
 11
258.674
 21
64.76510000000001
 31
0.0
  0
LINE
  5
1B8
330
6F
100
AcDbEntity
  8
0
 62
     0
100
AcDbLine
 10
258.674
 20
64.76510000000001
 30
0.0
 11
259.37
 21
64.40949999999999
 31
0.0
  0
LINE
  5
1B9
330
6F
100
AcDbEntity
  8
0
 62
     0
100
AcDbLine
 10
259.37
 20
64.40949999999999
 30
0.0
 11
260.143
 21
64.2881
 31
0.0
  0
LINE
  5
1BA
330
6F
100
AcDbEntity
  8
0
 62
     0
100
AcDbLine
 10
260.143
 20
64.2881
 30
0.0
 11
260.916
 21
64.40949999999999
 31
0.0
  0
LINE
  5
1BB
330
6F
100
AcDbEntity
  8
0
 62
     0
100
AcDbLine
 10
260.916
 20
64.40949999999999
 30
0.0
 11
261.612
 21
64.76510000000001
 31
0.0
  0
LINE
  5
1BC
330
6F
100
AcDbEntity
  8
0
 62
     0
100
AcDbLine
 10
261.612
 20
64.76510000000001
 30
0.0
 11
262.166
 21
65.3189
 31
0.0
  0
LINE
  5
1BD
330
6F
100
AcDbEntity
  8
0
 62
     0
100
AcDbLine
 10
262.166
 20
65.3189
 30
0.0
 11
262.522
 21
66.015
 31
0.0
  0
LINE
  5
1BE
330
6F
100
AcDbEntity
  8
0
 62
     0
100
AcDbLine
 10
262.522
 20
66.015
 30
0.0
 11
262.643
 21
66.78789999999999
 31
0.0
  0
LINE
  5
1BF
330
6F
100
AcDbEntity
  8
0
 62
     0
100
AcDbLine
 10
251.474
 20
34.7376
 30
0.0
 11
267.075
 21
34.7376
 31
0.0
  0
LINE
  5
1C0
330
6F
100
AcDbEntity
  8
0
 62
     0
100
AcDbLine
 10
267.075
 20
34.7376
 30
0.0
 11
267.075
 21
21.9384
 31
0.0
  0
LINE
  5
1C1
330
6F
100
AcDbEntity
  8
0
 62
     0
100
AcDbLine
 10
267.075
 20
21.9384
 30
0.0
 11
251.474
 21
21.9384
 31
0.0
  0
LINE
  5
1C2
330
6F
100
AcDbEntity
  8
0
 62
     0
100
AcDbLine
 10
251.474
 20
21.9384
 30
0.0
 11
251.474
 21
34.7376
 31
0.0
  0
LINE
  5
1C3
330
6F
100
AcDbEntity
  8
0
 62
     0
100
AcDbLine
 10
256.238
 20
53.7877
 30
0.0
 11
271.837
 21
53.7877
 31
0.0
  0
LINE
  5
1C4
330
6F
100
AcDbEntity
  8
0
 62
     0
100
AcDbLine
 10
271.837
 20
53.7877
 30
0.0
 11
271.837
 21
40.9885
 31
0.0
  0
LINE
  5
1C5
330
6F
100
AcDbEntity
  8
0
 62
     0
100
AcDbLine
 10
271.837
 20
40.9885
 30
0.0
 11
256.238
 21
40.9885
 31
0.0
  0
LINE
  5
1C6
330
6F
100
AcDbEntity
  8
0
 62
     0
100
AcDbLine
 10
256.238
 20
40.9885
 30
0.0
 11
256.238
 21
53.7877
 31
0.0
  0
LINE
  5
1C7
330
6F
100
AcDbEntity
  8
0
 62
     0
100
AcDbLine
 10
258.619
 20
91.88769999999999
 30
0.0
 11
274.219
 21
91.88769999999999
 31
0.0
  0
LINE
  5
1C8
330
6F
100
AcDbEntity
  8
0
 62
     0
100
AcDbLine
 10
274.219
 20
91.88769999999999
 30
0.0
 11
274.219
 21
79.0885
 31
0.0
  0
LINE
  5
1C9
330
6F
100
AcDbEntity
  8
0
 62
     0
100
AcDbLine
 10
274.219
 20
79.0885
 30
0.0
 11
258.619
 21
79.0885
 31
0.0
  0
LINE
  5
1CA
330
6F
100
AcDbEntity
  8
0
 62
     0
100
AcDbLine
 10
258.619
 20
79.0885
 30
0.0
 11
258.619
 21
91.88769999999999
 31
0.0
  0
LINE
  5
1CB
330
6F
100
AcDbEntity
  8
0
 62
     0
100
AcDbLine
 10
263.382
 20
72.8377
 30
0.0
 11
278.981
 21
72.8377
 31
0.0
  0
LINE
  5
1CC
330
6F
100
AcDbEntity
  8
0
 62
     0
100
AcDbLine
 10
278.981
 20
72.8377
 30
0.0
 11
278.981
 21
60.03849999999999
 31
0.0
  0
LINE
  5
1CD
330
6F
100
AcDbEntity
  8
0
 62
     0
100
AcDbLine
 10
278.981
 20
60.03849999999999
 30
0.0
 11
263.382
 21
60.03849999999999
 31
0.0
  0
LINE
  5
1CE
330
6F
100
AcDbEntity
  8
0
 62
     0
100
AcDbLine
 10
263.382
 20
60.03849999999999
 30
0.0
 11
263.382
 21
72.8377
 31
0.0
  0
LINE
  5
1CF
330
6F
100
AcDbEntity
  8
0
 62
     0
100
AcDbLine
 10
265.763
 20
15.6876
 30
0.0
 11
281.362
 21
15.6876
 31
0.0
  0
LINE
  5
1D0
330
6F
100
AcDbEntity
  8
0
 62
     0
100
AcDbLine
 10
281.362
 20
15.6876
 30
0.0
 11
281.362
 21
2.88837
 31
0.0
  0
LINE
  5
1D1
330
6F
100
AcDbEntity
  8
0
 62
     0
100
AcDbLine
 10
281.362
 20
2.88837
 30
0.0
 11
265.763
 21
2.88837
 31
0.0
  0
LINE
  5
1D2
330
6F
100
AcDbEntity
  8
0
 62
     0
100
AcDbLine
 10
265.763
 20
2.88837
 30
0.0
 11
265.763
 21
15.6876
 31
0.0
  0
LINE
  5
1D3
330
6F
100
AcDbEntity
  8
0
 62
     0
100
AcDbLine
 10
279.182
 20
81.6144
 30
0.0
 11
281.848
 21
81.6144
 31
0.0
  0
LINE
  5
1D4
330
6F
100
AcDbEntity
  8
0
 62
     0
100
AcDbLine
 10
281.848
 20
81.6144
 30
0.0
 11
281.848
 21
76.4081
 31
0.0
  0
LINE
  5
1D5
330
6F
100
AcDbEntity
  8
0
 62
     0
100
AcDbLine
 10
281.848
 20
76.4081
 30
0.0
 11
279.182
 21
76.4081
 31
0.0
  0
LINE
  5
1D6
330
6F
100
AcDbEntity
  8
0
 62
     0
100
AcDbLine
 10
279.182
 20
76.4081
 30
0.0
 11
279.182
 21
81.6144
 31
0.0
  0
LINE
  5
1D7
330
6F
100
AcDbEntity
  8
0
 62
     0
100
AcDbLine
 10
279.532
 20
24.4643
 30
0.0
 11
282.198
 21
24.4643
 31
0.0
  0
LINE
  5
1D8
330
6F
100
AcDbEntity
  8
0
 62
     0
100
AcDbLine
 10
282.198
 20
24.4643
 30
0.0
 11
282.198
 21
19.2581
 31
0.0
  0
LINE
  5
1D9
330
6F
100
AcDbEntity
  8
0
 62
     0
100
AcDbLine
 10
282.198
 20
19.2581
 30
0.0
 11
279.532
 21
19.2581
 31
0.0
  0
LINE
  5
1DA
330
6F
100
AcDbEntity
  8
0
 62
     0
100
AcDbLine
 10
279.532
 20
19.2581
 30
0.0
 11
279.532
 21
24.4643
 31
0.0
  0
LINE
  5
1DB
330
6F
100
AcDbEntity
  8
0
 62
     0
100
AcDbLine
 10
285.094
 20
92.1879
 30
0.0
 11
285.086
 21
92.38370000000001
 31
0.0
  0
LINE
  5
1DC
330
6F
100
AcDbEntity
  8
0
 62
     0
100
AcDbLine
 10
285.086
 20
92.38370000000001
 30
0.0
 11
285.062
 21
92.57949999999999
 31
0.0
  0
LINE
  5
1DD
330
6F
100
AcDbEntity
  8
0
 62
     0
100
AcDbLine
 10
285.062
 20
92.57949999999999
 30
0.0
 11
285.025
 21
92.7724
 31
0.0
  0
LINE
  5
1DE
330
6F
100
AcDbEntity
  8
0
 62
     0
100
AcDbLine
 10
285.025
 20
92.7724
 30
0.0
 11
284.971
 21
92.9612
 31
0.0
  0
LINE
  5
1DF
330
6F
100
AcDbEntity
  8
0
 62
     0
100
AcDbLine
 10
284.971
 20
92.9612
 30
0.0
 11
284.904
 21
93.14429999999999
 31
0.0
  0
LINE
  5
1E0
330
6F
100
AcDbEntity
  8
0
 62
     0
100
AcDbLine
 10
284.904
 20
93.14429999999999
 30
0.0
 11
284.821
 21
93.32210000000001
 31
0.0
  0
LINE
  5
1E1
330
6F
100
AcDbEntity
  8
0
 62
     0
100
AcDbLine
 10
284.821
 20
93.32210000000001
 30
0.0
 11
284.726
 21
93.4942
 31
0.0
  0
LINE
  5
1E2
330
6F
100
AcDbEntity
  8
0
 62
     0
100
AcDbLine
 10
284.726
 20
93.4942
 30
0.0
 11
284.617
 21
93.65689999999998
 31
0.0
  0
LINE
  5
1E3
330
6F
100
AcDbEntity
  8
0
 62
     0
100
AcDbLine
 10
284.617
 20
93.65689999999998
 30
0.0
 11
284.494
 21
93.8114
 31
0.0
  0
LINE
  5
1E4
330
6F
100
AcDbEntity
  8
0
 62
     0
100
AcDbLine
 10
284.494
 20
93.8114
 30
0.0
 11
284.3620000000001
 21
93.95599999999999
 31
0.0
  0
LINE
  5
1E5
330
6F
100
AcDbEntity
  8
0
 62
     0
100
AcDbLine
 10
284.3620000000001
 20
93.95599999999999
 30
0.0
 11
284.218
 21
94.0883
 31
0.0
  0
LINE
  5
1E6
330
6F
100
AcDbEntity
  8
0
 62
     0
100
AcDbLine
 10
284.218
 20
94.0883
 30
0.0
 11
284.063
 21
94.2111
 31
0.0
  0
LINE
  5
1E7
330
6F
100
AcDbEntity
  8
0
 62
     0
100
AcDbLine
 10
284.063
 20
94.2111
 30
0.0
 11
283.899
 21
94.31969999999999
 31
0.0
  0
LINE
  5
1E8
330
6F
100
AcDbEntity
  8
0
 62
     0
100
AcDbLine
 10
283.899
 20
94.31969999999999
 30
0.0
 11
283.729
 21
94.41639999999999
 31
0.0
  0
LINE
  5
1E9
330
6F
100
AcDbEntity
  8
0
 62
     0
100
AcDbLine
 10
283.729
 20
94.41639999999999
 30
0.0
 11
283.551
 21
94.49749999999999
 31
0.0
  0
LINE
  5
1EA
330
6F
100
AcDbEntity
  8
0
 62
     0
100
AcDbLine
 10
283.551
 20
94.49749999999999
 30
0.0
 11
283.367
 21
94.56529999999998
 31
0.0
  0
LINE
  5
1EB
330
6F
100
AcDbEntity
  8
0
 62
     0
100
AcDbLine
 10
283.367
 20
94.56529999999998
 30
0.0
 11
283.177
 21
94.6189
 31
0.0
  0
LINE
  5
1EC
330
6F
100
AcDbEntity
  8
0
 62
     0
100
AcDbLine
 10
283.177
 20
94.6189
 30
0.0
 11
282.984
 21
94.6559
 31
0.0
  0
LINE
  5
1ED
330
6F
100
AcDbEntity
  8
0
 62
     0
100
AcDbLine
 10
282.984
 20
94.6559
 30
0.0
 11
282.79
 21
94.67959999999999
 31
0.0
  0
LINE
  5
1EE
330
6F
100
AcDbEntity
  8
0
 62
     0
100
AcDbLine
 10
282.79
 20
94.67959999999999
 30
0.0
 11
282.594
 21
94.68770000000001
 31
0.0
  0
LINE
  5
1EF
330
6F
100
AcDbEntity
  8
0
 62
     0
100
AcDbLine
 10
282.594
 20
94.68770000000001
 30
0.0
 11
2.593469999999999
 21
94.68770000000001
 31
0.0
  0
LINE
  5
1F0
330
6F
100
AcDbEntity
  8
0
 62
     0
100
AcDbLine
 10
2.593469999999999
 20
94.68770000000001
 30
0.0
 11
2.39779
 21
94.67959999999999
 31
0.0
  0
LINE
  5
1F1
330
6F
100
AcDbEntity
  8
0
 62
     0
100
AcDbLine
 10
2.39779
 20
94.67959999999999
 30
0.0
 11
2.202109999999998
 21
94.6559
 31
0.0
  0
LINE
  5
1F2
330
6F
100
AcDbEntity
  8
0
 62
     0
100
AcDbLine
 10
2.202109999999998
 20
94.6559
 30
0.0
 11
2.009179999999999
 21
94.6189
 31
0.0
  0
LINE
  5
1F3
330
6F
100
AcDbEntity
  8
0
 62
     0
100
AcDbLine
 10
2.009179999999999
 20
94.6189
 30
0.0
 11
1.82039
 21
94.56529999999998
 31
0.0
  0
LINE
  5
1F4
330
6F
100
AcDbEntity
  8
0
 62
     0
100
AcDbLine
 10
1.82039
 20
94.56529999999998
 30
0.0
 11
1.63711
 21
94.49749999999999
 31
0.0
  0
LINE
  5
1F5
330
6F
100
AcDbEntity
  8
0
 62
     0
100
AcDbLine
 10
1.63711
 20
94.49749999999999
 30
0.0
 11
1.459339999999999
 21
94.41639999999999
 31
0.0
  0
LINE
  5
1F6
330
6F
100
AcDbEntity
  8
0
 62
     0
100
AcDbLine
 10
1.459339999999999
 20
94.41639999999999
 30
0.0
 11
1.28709
 21
94.31969999999999
 31
0.0
  0
LINE
  5
1F7
330
6F
100
AcDbEntity
  8
0
 62
     0
100
AcDbLine
 10
1.28709
 20
94.31969999999999
 30
0.0
 11
1.124479999999999
 21
94.2111
 31
0.0
  0
LINE
  5
1F8
330
6F
100
AcDbEntity
  8
0
 62
     0
100
AcDbLine
 10
1.124479999999999
 20
94.2111
 30
0.0
 11
0.9701389999999999
 21
94.0883
 31
0.0
  0
LINE
  5
1F9
330
6F
100
AcDbEntity
  8
0
 62
     0
100
AcDbLine
 10
0.9701389999999999
 20
94.0883
 30
0.0
 11
0.825444
 21
93.95599999999999
 31
0.0
  0
LINE
  5
1FA
330
6F
100
AcDbEntity
  8
0
 62
     0
100
AcDbLine
 10
0.825444
 20
93.95599999999999
 30
0.0
 11
0.693152
 21
93.8114
 31
0.0
  0
LINE
  5
1FB
330
6F
100
AcDbEntity
  8
0
 62
     0
100
AcDbLine
 10
0.693152
 20
93.8114
 30
0.0
 11
0.5705090000000002
 21
93.65689999999998
 31
0.0
  0
LINE
  5
1FC
330
6F
100
AcDbEntity
  8
0
 62
     0
100
AcDbLine
 10
0.5705090000000002
 20
93.65689999999998
 30
0.0
 11
0.4616410000000001
 21
93.4942
 31
0.0
  0
LINE
  5
1FD
330
6F
100
AcDbEntity
  8
0
 62
     0
100
AcDbLine
 10
0.4616410000000001
 20
93.4942
 30
0.0
 11
0.365181
 21
93.32210000000001
 31
0.0
  0
LINE
  5
1FE
330
6F
100
AcDbEntity
  8
0
 62
     0
100
AcDbLine
 10
0.365181
 20
93.32210000000001
 30
0.0
 11
0.283876
 21
93.14429999999999
 31
0.0
  0
LINE
  5
1FF
330
6F
100
AcDbEntity
  8
0
 62
     0
100
AcDbLine
 10
0.283876
 20
93.14429999999999
 30
0.0
 11
0.216352
 21
92.9612
 31
0.0
  0
LINE
  5
200
330
6F
100
AcDbEntity
  8
0
 62
     0
100
AcDbLine
 10
0.216352
 20
92.9612
 30
0.0
 11
0.162609
 21
92.7724
 31
0.0
  0
LINE
  5
201
330
6F
100
AcDbEntity
  8
0
 62
     0
100
AcDbLine
 10
0.162609
 20
92.7724
 30
0.0
 11
0.125402
 21
92.57949999999999
 31
0.0
  0
LINE
  5
202
330
6F
100
AcDbEntity
  8
0
 62
     0
100
AcDbLine
 10
0.125402
 20
92.57949999999999
 30
0.0
 11
0.101975
 21
92.38370000000001
 31
0.0
  0
LINE
  5
203
330
6F
100
AcDbEntity
  8
0
 62
     0
100
AcDbLine
 10
0.101975
 20
92.38370000000001
 30
0.0
 11
0.0937066
 21
92.1879
 31
0.0
  0
LINE
  5
204
330
6F
100
AcDbEntity
  8
0
 62
     0
100
AcDbLine
 10
0.0937066
 20
92.1879
 30
0.0
 11
0.0937066
 21
40.688
 31
0.0
  0
LINE
  5
212
330
6F
100
AcDbEntity
  8
0
 62
     0
100
AcDbLine
 10
0.0937066
 20
35.687
 30
0.0
 11
0.0937066
 21
2.587959999999998
 31
0.0
  0
LINE
  5
213
330
6F
100
AcDbEntity
  8
0
 62
     0
100
AcDbLine
 10
0.0937066
 20
2.587959999999998
 30
0.0
 11
0.101975
 21
2.392269999999999
 31
0.0
  0
LINE
  5
214
330
6F
100
AcDbEntity
  8
0
 62
     0
100
AcDbLine
 10
0.101975
 20
2.392269999999999
 30
0.0
 11
0.125402
 21
2.19659
 31
0.0
  0
LINE
  5
215
330
6F
100
AcDbEntity
  8
0
 62
     0
100
AcDbLine
 10
0.125402
 20
2.19659
 30
0.0
 11
0.162609
 21
2.00367
 31
0.0
  0
LINE
  5
216
330
6F
100
AcDbEntity
  8
0
 62
     0
100
AcDbLine
 10
0.162609
 20
2.00367
 30
0.0
 11
0.216352
 21
1.814879999999999
 31
0.0
  0
LINE
  5
217
330
6F
100
AcDbEntity
  8
0
 62
     0
100
AcDbLine
 10
0.216352
 20
1.814879999999999
 30
0.0
 11
0.283876
 21
1.63022
 31
0.0
  0
LINE
  5
218
330
6F
100
AcDbEntity
  8
0
 62
     0
100
AcDbLine
 10
0.283876
 20
1.63022
 30
0.0
 11
0.365181
 21
1.452449999999999
 31
0.0
  0
LINE
  5
219
330
6F
100
AcDbEntity
  8
0
 62
     0
100
AcDbLine
 10
0.365181
 20
1.452449999999999
 30
0.0
 11
0.4616410000000001
 21
1.28157
 31
0.0
  0
LINE
  5
21A
330
6F
100
AcDbEntity
  8
0
 62
     0
100
AcDbLine
 10
0.4616410000000001
 20
1.28157
 30
0.0
 11
0.5705090000000002
 21
1.11897
 31
0.0
  0
LINE
  5
21B
330
6F
100
AcDbEntity
  8
0
 62
     0
100
AcDbLine
 10
0.5705090000000002
 20
1.11897
 30
0.0
 11
0.693152
 21
0.963249
 31
0.0
  0
LINE
  5
21C
330
6F
100
AcDbEntity
  8
0
 62
     0
100
AcDbLine
 10
0.693152
 20
0.963249
 30
0.0
 11
0.825444
 21
0.8199329999999999
 31
0.0
  0
LINE
  5
21D
330
6F
100
AcDbEntity
  8
0
 62
     0
100
AcDbLine
 10
0.825444
 20
0.8199329999999999
 30
0.0
 11
0.9701389999999999
 21
0.6862620000000002
 31
0.0
  0
LINE
  5
21E
330
6F
100
AcDbEntity
  8
0
 62
     0
100
AcDbLine
 10
0.9701389999999999
 20
0.6862620000000002
 30
0.0
 11
1.124479999999999
 21
0.5649950000000003
 31
0.0
  0
LINE
  5
21F
330
6F
100
AcDbEntity
  8
0
 62
     0
100
AcDbLine
 10
1.124479999999999
 20
0.5649950000000003
 30
0.0
 11
1.28709
 21
0.4561310000000002
 31
0.0
  0
LINE
  5
220
330
6F
100
AcDbEntity
  8
0
 62
     0
100
AcDbLine
 10
1.28709
 20
0.4561310000000002
 30
0.0
 11
1.459339999999999
 21
0.359668
 31
0.0
  0
LINE
  5
221
330
6F
100
AcDbEntity
  8
0
 62
     0
100
AcDbLine
 10
1.459339999999999
 20
0.359668
 30
0.0
 11
1.63711
 21
0.278364
 31
0.0
  0
LINE
  5
222
330
6F
100
AcDbEntity
  8
0
 62
     0
100
AcDbLine
 10
1.63711
 20
0.278364
 30
0.0
 11
1.82039
 21
0.209462
 31
0.0
  0
LINE
  5
223
330
6F
100
AcDbEntity
  8
0
 62
     0
100
AcDbLine
 10
1.82039
 20
0.209462
 30
0.0
 11
2.009179999999999
 21
0.157097
 31
0.0
  0
LINE
  5
224
330
6F
100
AcDbEntity
  8
0
 62
     0
100
AcDbLine
 10
2.009179999999999
 20
0.157097
 30
0.0
 11
2.202109999999998
 21
0.118511
 31
0.0
  0
LINE
  5
225
330
6F
100
AcDbEntity
  8
0
 62
     0
100
AcDbLine
 10
2.202109999999998
 20
0.118511
 30
0.0
 11
2.39779
 21
0.0950846
 31
0.0
  0
LINE
  5
226
330
6F
100
AcDbEntity
  8
0
 62
     0
100
AcDbLine
 10
2.39779
 20
0.0950846
 30
0.0
 11
2.593469999999999
 21
0.0881944
 31
0.0
  0
LINE
  5
227
330
6F
100
AcDbEntity
  8
0
 62
     0
100
AcDbLine
 10
2.593469999999999
 20
0.0881944
 30
0.0
 11
282.594
 21
0.0881944
 31
0.0
  0
LINE
  5
228
330
6F
100
AcDbEntity
  8
0
 62
     0
100
AcDbLine
 10
282.594
 20
0.0881944
 30
0.0
 11
282.79
 21
0.0950846
 31
0.0
  0
LINE
  5
229
330
6F
100
AcDbEntity
  8
0
 62
     0
100
AcDbLine
 10
282.79
 20
0.0950846
 30
0.0
 11
282.984
 21
0.118511
 31
0.0
  0
LINE
  5
22A
330
6F
100
AcDbEntity
  8
0
 62
     0
100
AcDbLine
 10
282.984
 20
0.118511
 30
0.0
 11
283.177
 21
0.157097
 31
0.0
  0
LINE
  5
22B
330
6F
100
AcDbEntity
  8
0
 62
     0
100
AcDbLine
 10
283.177
 20
0.157097
 30
0.0
 11
283.367
 21
0.209462
 31
0.0
  0
LINE
  5
22C
330
6F
100
AcDbEntity
  8
0
 62
     0
100
AcDbLine
 10
283.367
 20
0.209462
 30
0.0
 11
283.551
 21
0.278364
 31
0.0
  0
LINE
  5
22D
330
6F
100
AcDbEntity
  8
0
 62
     0
100
AcDbLine
 10
283.551
 20
0.278364
 30
0.0
 11
283.729
 21
0.359668
 31
0.0
  0
LINE
  5
22E
330
6F
100
AcDbEntity
  8
0
 62
     0
100
AcDbLine
 10
283.729
 20
0.359668
 30
0.0
 11
283.899
 21
0.4561310000000002
 31
0.0
  0
LINE
  5
22F
330
6F
100
AcDbEntity
  8
0
 62
     0
100
AcDbLine
 10
283.899
 20
0.4561310000000002
 30
0.0
 11
284.063
 21
0.5649950000000003
 31
0.0
  0
LINE
  5
230
330
6F
100
AcDbEntity
  8
0
 62
     0
100
AcDbLine
 10
284.063
 20
0.5649950000000003
 30
0.0
 11
284.218
 21
0.6862620000000002
 31
0.0
  0
LINE
  5
231
330
6F
100
AcDbEntity
  8
0
 62
     0
100
AcDbLine
 10
284.218
 20
0.6862620000000002
 30
0.0
 11
284.3620000000001
 21
0.8199329999999999
 31
0.0
  0
LINE
  5
232
330
6F
100
AcDbEntity
  8
0
 62
     0
100
AcDbLine
 10
284.3620000000001
 20
0.8199329999999999
 30
0.0
 11
284.494
 21
0.963249
 31
0.0
  0
LINE
  5
233
330
6F
100
AcDbEntity
  8
0
 62
     0
100
AcDbLine
 10
284.494
 20
0.963249
 30
0.0
 11
284.617
 21
1.11897
 31
0.0
  0
LINE
  5
234
330
6F
100
AcDbEntity
  8
0
 62
     0
100
AcDbLine
 10
284.617
 20
1.11897
 30
0.0
 11
284.726
 21
1.28157
 31
0.0
  0
LINE
  5
235
330
6F
100
AcDbEntity
  8
0
 62
     0
100
AcDbLine
 10
284.726
 20
1.28157
 30
0.0
 11
284.821
 21
1.452449999999999
 31
0.0
  0
LINE
  5
236
330
6F
100
AcDbEntity
  8
0
 62
     0
100
AcDbLine
 10
284.821
 20
1.452449999999999
 30
0.0
 11
284.904
 21
1.63022
 31
0.0
  0
LINE
  5
237
330
6F
100
AcDbEntity
  8
0
 62
     0
100
AcDbLine
 10
284.904
 20
1.63022
 30
0.0
 11
284.971
 21
1.814879999999999
 31
0.0
  0
LINE
  5
238
330
6F
100
AcDbEntity
  8
0
 62
     0
100
AcDbLine
 10
284.971
 20
1.814879999999999
 30
0.0
 11
285.025
 21
2.00367
 31
0.0
  0
LINE
  5
239
330
6F
100
AcDbEntity
  8
0
 62
     0
100
AcDbLine
 10
285.025
 20
2.00367
 30
0.0
 11
285.062
 21
2.19659
 31
0.0
  0
LINE
  5
23A
330
6F
100
AcDbEntity
  8
0
 62
     0
100
AcDbLine
 10
285.062
 20
2.19659
 30
0.0
 11
285.086
 21
2.392269999999999
 31
0.0
  0
LINE
  5
23B
330
6F
100
AcDbEntity
  8
0
 62
     0
100
AcDbLine
 10
285.086
 20
2.392269999999999
 30
0.0
 11
285.094
 21
2.587959999999998
 31
0.0
  0
LINE
  5
23C
330
6F
100
AcDbEntity
  8
0
 62
     0
100
AcDbLine
 10
285.094
 20
2.587959999999998
 30
0.0
 11
285.094
 21
35.687
 31
0.0
  0
LINE
  5
245
330
6F
100
AcDbEntity
  8
0
 62
     0
100
AcDbLine
 10
279.114
 20
38.30810000000001
 30
0.0
 11
276.801
 21
38.30810000000001
 31
0.0
  0
LINE
  5
246
330
6F
100
AcDbEntity
  8
0
 62
     0
100
AcDbLine
 10
276.801
 20
38.30810000000001
 30
0.0
 11
276.801
 21
43.5144
 31
0.0
  0
LINE
  5
247
330
6F
100
AcDbEntity
  8
0
 62
     0
100
AcDbLine
 10
276.801
 20
43.5144
 30
0.0
 11
279.466
 21
43.5144
 31
0.0
  0
LINE
  5
24E
330
6F
100
AcDbEntity
  8
0
 62
     0
100
AcDbLine
 10
285.094
 20
40.688
 30
0.0
 11
285.094
 21
92.1879
 31
0.0
  0
LINE
  5
269
330
6F
100
AcDbEntity
  8
0
  6
Continuous
100
AcDbLine
 10
279.4660000000001
 20
38.30810000000001
 30
0.0
 11
278.7188792087373
 21
38.30810000000001
 31
0.0
  0
LINE
  5
295
330
6F
100
AcDbEntity
  8
0
  6
Continuous
100
AcDbLine
 10
285.094
 20
35.687
 30
0.0
 11
282.594
 21
35.687
 31
0.0
  0
LINE
  5
296
330
6F
100
AcDbEntity
  8
0
  6
Continuous
100
AcDbLine
 10
285.094
 20
40.688
 30
0.0
 11
282.594
 21
40.688
 31
0.0
  0
ARC
  5
299
330
6F
100
AcDbEntity
  8
0
  6
Continuous
100
AcDbCircle
 10
282.594
 20
38.1875
 30
0.0
 40
2.500500000000001
100
AcDbArc
 50
90.0
 51
270.0
  0
LINE
  5
2B1
330
6F
100
AcDbEntity
  8
0
  6
Continuous
100
AcDbLine
 10
0.0937066
 20
40.688
 30
0.0
 11
2.593706599999999
 21
40.688
 31
0.0
  0
LINE
  5
2B2
330
6F
100
AcDbEntity
  8
0
  6
Continuous
100
AcDbLine
 10
0.0937066
 20
35.687
 30
0.0
 11
2.593706599999999
 21
35.687
 31
0.0
  0
ARC
  5
2B3
330
6F
100
AcDbEntity
  8
0
  6
Continuous
100
AcDbCircle
 10
2.593706599999999
 20
38.1875
 30
0.0
 40
2.500500000000001
100
AcDbArc
 50
270.0
 51
90.0
  0
LINE
  5
433
330
6F
100
AcDbEntity
  8
0
  6
Continuous
100
AcDbLine
 10
126.581
 20
53.7877
 30
0.0
 11
126.581
 21
40.9885
 31
0.0
  0
LINE
  5
434
330
6F
100
AcDbEntity
  8
0
  6
Continuous
100
AcDbLine
 10
130.03
 20
53.7877
 30
0.0
 11
130.03
 21
40.9885
 31
0.0
  0
LINE
  5
43F
330
6F
100
AcDbEntity
  8
0
  6
Continuous
100
AcDbLine
 10
279.466
 20
43.5144
 30
0.0
 11
279.4660000000001
 21
38.30810000000001
 31
0.0
  0
LINE
  5
49E
330
6F
100
AcDbEntity
  8
0
  6
Continuous
100
AcDbLine
 10
6.206699999999997
 20
53.7877
 30
0.0
 11
21.8061
 21
53.7877
 31
0.0
  0
LINE
  5
49F
330
6F
100
AcDbEntity
  8
0
  6
Continuous
100
AcDbLine
 10
21.8061
 20
53.7877
 30
0.0
 11
21.8061
 21
40.9885
 31
0.0
  0
LINE
  5
4A0
330
6F
100
AcDbEntity
  8
0
  6
Continuous
100
AcDbLine
 10
21.8061
 20
40.9885
 30
0.0
 11
6.206699999999997
 21
40.9885
 31
0.0
  0
LINE
  5
4A1
330
6F
100
AcDbEntity
  8
0
  6
Continuous
100
AcDbLine
 10
6.206699999999997
 20
40.9885
 30
0.0
 11
6.206699999999997
 21
53.7877
 31
0.0
  0
LINE
  5
78F
330
6F
100
AcDbEntity
  8
0
  6
Continuous
100
AcDbLine
 10
82.33759999999998
 20
1.537885000000004
 30
0.0
 11
82.33759999999998
 21
15.737185
 31
0.0
  0
LINE
  5
79E
330
6F
100
AcDbEntity
  8
0
  6
Continuous
100
AcDbLine
 10
179.038
 20
1.537885
 30
0.0
 11
179.038
 21
15.737185
 31
0.0
  0
LINE
  5
7CD
330
6F
100
AcDbEntity
  8
0
  6
Continuous
100
AcDbLine
 10
82.33759999999998
 20
15.737185
 30
0.0
 11
79.03759999999998
 21
15.737185
 31
0.0
  0
LINE
  5
7CE
330
6F
100
AcDbEntity
  8
0
  6
Continuous
100
AcDbLine
 10
82.33759999999998
 20
1.537885000000004
 30
0.0
 11
79.03759999999998
 21
1.537885000000004
 31
0.0
  0
LINE
  5
7CF
330
6F
100
AcDbEntity
  8
0
  6
Continuous
100
AcDbLine
 10
79.03759999999998
 20
1.537885000000004
 30
0.0
 11
79.03759999999998
 21
15.737185
 31
0.0
  0
LINE
  5
7D0
330
6F
100
AcDbEntity
  8
0
  6
Continuous
100
AcDbLine
 10
179.038
 20
15.737185
 30
0.0
 11
182.338
 21
15.737185
 31
0.0
  0
LINE
  5
7D1
330
6F
100
AcDbEntity
  8
0
  6
Continuous
100
AcDbLine
 10
179.038
 20
1.537885
 30
0.0
 11
182.338
 21
1.537885
 31
0.0
  0
LINE
  5
7D2
330
6F
100
AcDbEntity
  8
0
  6
Continuous
100
AcDbLine
 10
182.338
 20
1.537885
 30
0.0
 11
182.338
 21
15.737185
 31
0.0
  0
VIEWPORT
  5
4E3
102
{ACAD_XDICTIONARY
360
4E4
102
}
330
6B
100
AcDbEntity
 67
     1
  8
0
  6
Continuous
348
2F
100
AcDbViewport
 10
2.763029503757373
 20
5.544509513895556
 30
0.0
 40
24.80086696136344
 41
9.348728289525103
 68
     1
 69
     1
 12
2.763029503757373
 22
5.544509513895556
 13
0.0
 23
0.0
 14
0.5
 24
0.5
 15
0.5
 25
0.5
 16
0.0
 26
0.0
 36
1.0
 17
0.0
 27
0.0
 37
0.0
 42
50.0
 43
0.0
 44
0.0
 45
9.348728289525103
 50
0.0
 51
0.0
 72
   100
 90
   819232
  1

281
     0
 71
     1
 74
     0
110
0.0
120
0.0
130
0.0
111
1.0
121
0.0
131
0.0
112
0.0
122
1.0
132
0.0
 79
     0
146
0.0
170
     0
 61
     5
292
     1
282
     1
141
0.0
142
0.0
 63
   250
421
  3355443
  0
VIEWPORT
  5
4E8
102
{ACAD_XDICTIONARY
360
4E9
102
}
330
6B
100
AcDbEntity
 67
     1
  8
0
  6
Continuous
348
2F
100
AcDbViewport
 10
5.20833353357991
 20
3.958333101798228
 30
0.0
 40
8.333333653727855
 41
6.333332962877167
 68
     2
 69
     2
 12
142.5938533
 22
47.3879472
 13
0.0
 23
0.0
 14
1.0
 24
1.0
 15
0.0
 25
0.0
 16
0.0
 26
0.0
 36
1.0
 17
0.0
 27
0.0
 37
0.0
 42
50.0
 43
0.0
 44
0.0
 45
219.4818011261963
 50
0.0
 51
0.0
 72
   100
 90
   819232
  1

281
     0
 71
     1
 74
     0
110
0.0
120
0.0
130
0.0
111
1.0
121
0.0
131
0.0
112
0.0
122
1.0
132
0.0
 79
     0
146
0.0
170
     0
 61
     5
292
     1
282
     1
141
0.0
142
0.0
 63
   250
421
  3355443
  0
ENDSEC
  0
SECTION
  2
OBJECTS
  0
DICTIONARY
  5
C
330
0
100
AcDbDictionary
281
     1
  3
ACAD_BACKGROUND
350
5E7
  3
ACAD_CIP_PREVIOUS_PRODUCT_INFO
350
250
  3
ACAD_COLOR
350
62
  3
ACAD_DETAILVIEWSTYLE
350
69
  3
ACAD_GROUP
350
D
  3
ACAD_LAYOUT
350
61
  3
ACAD_MATERIAL
350
10
  3
ACAD_MLEADERSTYLE
350
65
  3
ACAD_MLINESTYLE
350
5E
  3
ACAD_PLOTSETTINGS
350
60
  3
ACAD_PLOTSTYLENAME
350
E
  3
ACAD_SCALELIST
350
42
  3
ACAD_SECTIONVIEWSTYLE
350
67
  3
ACAD_TABLESTYLE
350
63
  3
ACAD_VISUALSTYLE
350
29
  3
ACDB_RECOMPOSE_DATA
350
80B
  3
AcDbVariableDictionary
350
410
  0
DICTIONARY
  5
280
330
2
100
AcDbDictionary
280
     1
281
     1
  3
ACAD_LAYERSTATES
360
281
  0
DICTIONARY
  5
26A
330
54
100
AcDbDictionary
280
     1
281
     1
  3
ADSK_XREC_LAYER_RECONCILED
360
26B
  0
DICTIONARY
  5
4E4
330
4E3
100
AcDbDictionary
280
     1
281
     1
  3
ASDK_XREC_ANNOTATION_SCALE_INFO
360
4E5
  0
DICTIONARY
  5
4E9
330
4E8
100
AcDbDictionary
280
     1
281
     1
  3
ASDK_XREC_ANNOTATION_SCALE_INFO
360
4EA
  0
DICTIONARY
  5
5E7
102
{ACAD_REACTORS
330
C
102
}
330
C
100
AcDbDictionary
281
     1
  0
XRECORD
  5
250
102
{ACAD_REACTORS
330
C
102
}
330
C
100
AcDbXrecord
280
     1
300
ACD
300
2017
300
ACD_F_S
  0
DICTIONARY
  5
62
102
{ACAD_REACTORS
330
C
102
}
330
C
100
AcDbDictionary
281
     1
  0
DICTIONARY
  5
69
102
{ACAD_REACTORS
330
C
102
}
330
C
100
AcDbDictionary
281
     1
  3
Imperial24
350
6A
  0
DICTIONARY
  5
D
102
{ACAD_REACTORS
330
C
102
}
330
C
100
AcDbDictionary
281
     1
  0
DICTIONARY
  5
61
102
{ACAD_REACTORS
330
C
102
}
330
C
100
AcDbDictionary
281
     1
  3
Layout1
350
6E
  3
Model
350
72
  0
DICTIONARY
  5
10
102
{ACAD_REACTORS
330
C
102
}
330
C
100
AcDbDictionary
281
     1
  3
ByBlock
350
19
  3
ByLayer
350
11
  3
Global
350
21
  0
DICTIONARY
  5
65
102
{ACAD_REACTORS
330
C
102
}
330
C
100
AcDbDictionary
281
     1
  3
Standard
350
66
  0
DICTIONARY
  5
5E
102
{ACAD_REACTORS
330
C
102
}
330
C
100
AcDbDictionary
281
     1
  3
Standard
350
5F
  0
DICTIONARY
  5
60
102
{ACAD_REACTORS
330
C
102
}
330
C
100
AcDbDictionary
281
     1
  0
ACDBDICTIONARYWDFLT
  5
E
102
{ACAD_REACTORS
330
C
102
}
330
C
100
AcDbDictionary
281
     1
  3
Normal
350
F
100
AcDbDictionaryWithDefault
340
F
  0
DICTIONARY
  5
42
102
{ACAD_REACTORS
330
C
102
}
330
C
100
AcDbDictionary
281
     1
  3
A0
350
43
  3
A1
350
44
  3
A2
350
45
  3
A3
350
46
  3
A4
350
47
  3
A5
350
48
  3
A6
350
49
  3
A7
350
4A
  3
A8
350
4B
  3
A9
350
4C
  3
B0
350
4D
  3
B1
350
4E
  3
B2
350
4F
  3
B3
350
50
  3
B4
350
51
  3
B5
350
52
  3
B6
350
53
  0
DICTIONARY
  5
67
102
{ACAD_REACTORS
330
C
102
}
330
C
100
AcDbDictionary
281
     1
  3
Imperial24
350
68
  0
DICTIONARY
  5
63
102
{ACAD_REACTORS
330
C
102
}
330
C
100
AcDbDictionary
281
     1
  3
Standard
350
64
  0
DICTIONARY
  5
29
102
{ACAD_REACTORS
330
C
102
}
330
C
100
AcDbDictionary
281
     1
  3
2dWireframe
350
2F
  3
Basic
350
2E
  3
Brighten
350
35
  3
ColorChange
350
39
  3
Conceptual
350
32
  3
Dim
350
34
  3
EdgeColorOff
350
41
  3
Facepattern
350
38
  3
Flat
350
2A
  3
FlatWithEdges
350
2B
  3
Gouraud
350
2C
  3
GouraudWithEdges
350
2D
  3
Hidden
350
31
  3
JitterOff
350
3F
  3
Linepattern
350
37
  3
OverhangOff
350
40
  3
Realistic
350
33
  3
Shaded
350
3E
  3
Shaded with edges
350
3D
  3
Shades of Gray
350
3A
  3
Sketchy
350
3B
  3
Thicken
350
36
  3
Wireframe
350
30
  3
X-Ray
350
3C
  0
XRECORD
  5
80B
102
{ACAD_REACTORS
330
C
102
}
330
C
100
AcDbXrecord
280
     1
 90
        1
330
64
330
68
330
6A
  0
DICTIONARY
  5
410
102
{ACAD_REACTORS
330
C
102
}
330
C
100
AcDbDictionary
281
     1
  3
ANNOALLVISIBLE
350
416
  3
CANNOSCALE
350
417
  3
CMLEADERSTYLE
350
412
  3
CTABLESTYLE
350
411
  3
CVIEWDETAILSTYLE
350
413
  3
CVIEWSECTIONSTYLE
350
414
  3
LAYEREVAL
350
419
  3
LAYERNOTIFY
350
41A
  3
LIGHTINGUNITS
350
418
  3
MSLTSCALE
350
415
  0
DICTIONARY
  5
281
102
{ACAD_REACTORS
330
280
102
}
330
280
100
AcDbDictionary
281
     1
  0
XRECORD
  5
26B
102
{ACAD_REACTORS
330
26A
102
}
330
26A
100
AcDbXrecord
280
     1
290
     1
  0
XRECORD
  5
4E5
102
{ACAD_REACTORS
330
4E4
102
}
330
4E4
100
AcDbXrecord
280
     1
 90
        1
340
43
  0
XRECORD
  5
4EA
102
{ACAD_REACTORS
330
4E9
102
}
330
4E9
100
AcDbXrecord
280
     1
 90
        1
340
43
  0
ACDBDETAILVIEWSTYLE
  5
6A
102
{ACAD_XDICTIONARY
360
40D
102
}
102
{ACAD_REACTORS
330
69
102
}
330
69
100
AcDbModelDocViewStyle
 70
     0
  3
Imperial24
290
     0
100
AcDbDetailViewStyle
 70
     0
 71
     0
 90
        3
 71
     1
340
55
 62
   256
 40
0.24
340
0
 62
   256
 40
0.24
300

 40
0.36
280
     3
 71
     2
340
5C
 90
       25
 62
   256
 71
     3
340
55
 62
   256
 40
0.24
 90
        1
 40
0.75
 90
        1
300
%<\AcVar ViewType \f "%tc1">% %<\AcVar ViewDetailId>%\PSCALE %<\AcVar ViewScale \f "%sn">%
 71
     4
340
5C
 90
       25
 62
   256
340
5C
 90
       25
 62
   256
280
     0
  0
LAYOUT
  5
6E
102
{ACAD_REACTORS
330
61
102
}
330
61
100
AcDbPlotSettings
  1

  2
Send To OneNote 2013
  4
Letter
  6

 40
8.466666221618652
 41
6.3499755859375
 42
6.350006103515625
 43
8.4666748046875
 44
215.8999938964844
 45
279.3999938964844
 46
0.0
 47
0.0
 48
0.0
 49
0.0
140
0.0
141
0.0
142
1.0
143
1.0
 70
   688
 72
     0
 73
     1
 74
     5
  7

 75
    16
147
1.0
 76
     0
 77
     2
 78
   300
148
0.0
149
0.0
100
AcDbLayout
  1
Layout1
 70
     1
 71
     1
 10
-0.3333336537278543
 20
-0.333333315811758
 11
10.66666610597625
 21
8.166666443892351
 12
0.0
 22
0.0
 32
0.0
 14
1.041666706715982
 24
0.7916666203596448
 34
0.0
 15
9.375000360443838
 25
7.124999583236812
 35
0.0
146
0.0
 13
0.0
 23
0.0
 33
0.0
 16
1.0
 26
0.0
 36
0.0
 17
0.0
 27
1.0
 37
0.0
 76
     0
330
6B
331
4E3
1001
ACAD_PSEXT
1000
Send To OneNote 2013
1000
Send to Microsoft OneNote 15 Driver
1000
nul:
1000

1070
     0
  0
LAYOUT
  5
72
102
{ACAD_REACTORS
330
61
102
}
330
61
100
AcDbPlotSettings
  1

  2
Send To OneNote 2013
  4

  6

 40
0.0
 41
0.0
 42
0.0
 43
0.0
 44
0.0
 45
0.0
 46
0.0
 47
0.0
 48
0.0
 49
0.0
140
0.0
141
0.0
142
1.0
143
1.0
 70
  1712
 72
     0
 73
     0
 74
     0
  7

 75
     0
147
1.0
 76
     0
 77
     2
 78
   300
148
0.0
149
0.0
100
AcDbLayout
  1
Model
 70
     1
 71
     0
 10
0.0
 20
0.0
 11
12.0
 21
9.0
 12
0.0
 22
0.0
 32
0.0
 14
0.0
 24
0.0
 34
0.0
 15
0.0
 25
0.0
 35
0.0
146
0.0
 13
0.0
 23
0.0
 33
0.0
 16
1.0
 26
0.0
 36
0.0
 17
0.0
 27
1.0
 37
0.0
 76
     0
330
6F
331
74
  0
MATERIAL
  5
19
102
{ACAD_XDICTIONARY
360
1A
102
}
102
{ACAD_REACTORS
330
10
102
}
330
10
100
AcDbMaterial
  1
ByBlock
 72
     0
 43
0.0208333333333333
 43
0.0
 43
0.0
 43
0.0
 43
0.0
 43
0.0208333333333333
 43
0.0
 43
0.0
 43
0.0
 43
0.0
 43
1.0
 43
0.0
 43
0.0
 43
0.0
 43
0.0
 43
1.0
 77
     0
 47
0.0208333333333333
 47
0.0
 47
0.0
 47
0.0
 47
0.0
 47
0.0208333333333333
 47
0.0
 47
0.0
 47
0.0
 47
0.0
 47
1.0
 47
0.0
 47
0.0
 47
0.0
 47
0.0
 47
1.0
171
     0
 49
0.0208333333333333
 49
0.0
 49
0.0
 49
0.0
 49
0.0
 49
0.0208333333333333
 49
0.0
 49
0.0
 49
0.0
 49
0.0
 49
1.0
 49
0.0
 49
0.0
 49
0.0
 49
0.0
 49
1.0
175
     0
142
0.0208333333333333
142
0.0
142
0.0
142
0.0
142
0.0
142
0.0208333333333333
142
0.0
142
0.0
142
0.0
142
0.0
142
1.0
142
0.0
142
0.0
142
0.0
142
0.0
142
1.0
179
     0
144
0.0208333333333333
144
0.0
144
0.0
144
0.0
144
0.0
144
0.0208333333333333
144
0.0
144
0.0
144
0.0
144
0.0
144
1.0
144
0.0
144
0.0
144
0.0
144
0.0
144
1.0
147
0.0208333333333333
147
0.0
147
0.0
147
0.0
147
0.0
147
0.0208333333333333
147
0.0
147
0.0
147
0.0
147
0.0
147
1.0
147
0.0
147
0.0
147
0.0
147
0.0
147
1.0
  0
MATERIAL
  5
11
102
{ACAD_XDICTIONARY
360
12
102
}
102
{ACAD_REACTORS
330
10
102
}
330
10
100
AcDbMaterial
  1
ByLayer
 72
     0
 43
0.0208333333333333
 43
0.0
 43
0.0
 43
0.0
 43
0.0
 43
0.0208333333333333
 43
0.0
 43
0.0
 43
0.0
 43
0.0
 43
1.0
 43
0.0
 43
0.0
 43
0.0
 43
0.0
 43
1.0
 77
     0
 47
0.0208333333333333
 47
0.0
 47
0.0
 47
0.0
 47
0.0
 47
0.0208333333333333
 47
0.0
 47
0.0
 47
0.0
 47
0.0
 47
1.0
 47
0.0
 47
0.0
 47
0.0
 47
0.0
 47
1.0
171
     0
 49
0.0208333333333333
 49
0.0
 49
0.0
 49
0.0
 49
0.0
 49
0.0208333333333333
 49
0.0
 49
0.0
 49
0.0
 49
0.0
 49
1.0
 49
0.0
 49
0.0
 49
0.0
 49
0.0
 49
1.0
175
     0
142
0.0208333333333333
142
0.0
142
0.0
142
0.0
142
0.0
142
0.0208333333333333
142
0.0
142
0.0
142
0.0
142
0.0
142
1.0
142
0.0
142
0.0
142
0.0
142
0.0
142
1.0
179
     0
144
0.0208333333333333
144
0.0
144
0.0
144
0.0
144
0.0
144
0.0208333333333333
144
0.0
144
0.0
144
0.0
144
0.0
144
1.0
144
0.0
144
0.0
144
0.0
144
0.0
144
1.0
147
0.0208333333333333
147
0.0
147
0.0
147
0.0
147
0.0
147
0.0208333333333333
147
0.0
147
0.0
147
0.0
147
0.0
147
1.0
147
0.0
147
0.0
147
0.0
147
0.0
147
1.0
  0
MATERIAL
  5
21
102
{ACAD_XDICTIONARY
360
22
102
}
102
{ACAD_REACTORS
330
10
102
}
330
10
100
AcDbMaterial
  1
Global
 72
     0
 43
0.0208333333333333
 43
0.0
 43
0.0
 43
0.0
 43
0.0
 43
0.0208333333333333
 43
0.0
 43
0.0
 43
0.0
 43
0.0
 43
1.0
 43
0.0
 43
0.0
 43
0.0
 43
0.0
 43
1.0
 77
     0
 47
0.0208333333333333
 47
0.0
 47
0.0
 47
0.0
 47
0.0
 47
0.0208333333333333
 47
0.0
 47
0.0
 47
0.0
 47
0.0
 47
1.0
 47
0.0
 47
0.0
 47
0.0
 47
0.0
 47
1.0
171
     0
 49
0.0208333333333333
 49
0.0
 49
0.0
 49
0.0
 49
0.0
 49
0.0208333333333333
 49
0.0
 49
0.0
 49
0.0
 49
0.0
 49
1.0
 49
0.0
 49
0.0
 49
0.0
 49
0.0
 49
1.0
175
     0
142
0.0208333333333333
142
0.0
142
0.0
142
0.0
142
0.0
142
0.0208333333333333
142
0.0
142
0.0
142
0.0
142
0.0
142
1.0
142
0.0
142
0.0
142
0.0
142
0.0
142
1.0
179
     0
144
0.0208333333333333
144
0.0
144
0.0
144
0.0
144
0.0
144
0.0208333333333333
144
0.0
144
0.0
144
0.0
144
0.0
144
1.0
144
0.0
144
0.0
144
0.0
144
0.0
144
1.0
147
0.0208333333333333
147
0.0
147
0.0
147
0.0
147
0.0
147
0.0208333333333333
147
0.0
147
0.0
147
0.0
147
0.0
147
1.0
147
0.0
147
0.0
147
0.0
147
0.0
147
1.0
  0
MLEADERSTYLE
  5
66
102
{ACAD_REACTORS
330
65
102
}
330
65
100
AcDbMLeaderStyle
179
     2
170
     2
171
     1
172
     0
 90
        2
 40
0.0
 41
0.0
173
     1
 91
-1056964608
340
5A
 92
       -2
290
     1
 42
0.09
291
     1
 43
0.36
  3
Standard
 44
0.18
300

342
55
174
     1
178
     6
175
     1
176
     0
 93
-1056964608
 45
0.18
292
     0
297
     0
 46
0.18
 94
-1056964608
 47
1.0
 49
1.0
140
1.0
293
     1
141
0.0
294
     1
177
     0
142
1.0
295
     0
296
     0
143
0.125
271
     0
272
     9
273
     9
298
     0
  0
MLINESTYLE
  5
5F
102
{ACAD_REACTORS
330
5E
102
}
330
5E
100
AcDbMlineStyle
  2
STANDARD
 70
     0
  3

 62
   256
 51
90.0
 52
90.0
 71
     2
 49
0.5
 62
   256
  6
BYLAYER
 49
-0.5
 62
   256
  6
BYLAYER
  0
ACDBPLACEHOLDER
  5
F
102
{ACAD_REACTORS
330
E
102
}
330
E
  0
SCALE
  5
43
102
{ACAD_REACTORS
330
42
102
}
330
42
100
AcDbScale
 70
     0
300
1:1
140
1.0
141
1.0
290
     1
  0
SCALE
  5
44
102
{ACAD_REACTORS
330
42
102
}
330
42
100
AcDbScale
 70
     0
300
1/128" = 1'-0"
140
0.0078125
141
12.0
290
     0
  0
SCALE
  5
45
102
{ACAD_REACTORS
330
42
102
}
330
42
100
AcDbScale
 70
     0
300
1/64" = 1'-0"
140
0.015625
141
12.0
290
     0
  0
SCALE
  5
46
102
{ACAD_REACTORS
330
42
102
}
330
42
100
AcDbScale
 70
     0
300
1/32" = 1'-0"
140
0.03125
141
12.0
290
     0
  0
SCALE
  5
47
102
{ACAD_REACTORS
330
42
102
}
330
42
100
AcDbScale
 70
     0
300
1/16" = 1'-0"
140
0.0625
141
12.0
290
     0
  0
SCALE
  5
48
102
{ACAD_REACTORS
330
42
102
}
330
42
100
AcDbScale
 70
     0
300
3/32" = 1'-0"
140
0.09375
141
12.0
290
     0
  0
SCALE
  5
49
102
{ACAD_REACTORS
330
42
102
}
330
42
100
AcDbScale
 70
     0
300
1/8" = 1'-0"
140
0.125
141
12.0
290
     0
  0
SCALE
  5
4A
102
{ACAD_REACTORS
330
42
102
}
330
42
100
AcDbScale
 70
     0
300
3/16" = 1'-0"
140
0.1875
141
12.0
290
     0
  0
SCALE
  5
4B
102
{ACAD_REACTORS
330
42
102
}
330
42
100
AcDbScale
 70
     0
300
1/4" = 1'-0"
140
0.25
141
12.0
290
     0
  0
SCALE
  5
4C
102
{ACAD_REACTORS
330
42
102
}
330
42
100
AcDbScale
 70
     0
300
3/8" = 1'-0"
140
0.375
141
12.0
290
     0
  0
SCALE
  5
4D
102
{ACAD_REACTORS
330
42
102
}
330
42
100
AcDbScale
 70
     0
300
1/2" = 1'-0"
140
0.5
141
12.0
290
     0
  0
SCALE
  5
4E
102
{ACAD_REACTORS
330
42
102
}
330
42
100
AcDbScale
 70
     0
300
3/4" = 1'-0"
140
0.75
141
12.0
290
     0
  0
SCALE
  5
4F
102
{ACAD_REACTORS
330
42
102
}
330
42
100
AcDbScale
 70
     0
300
1" = 1'-0"
140
1.0
141
12.0
290
     0
  0
SCALE
  5
50
102
{ACAD_REACTORS
330
42
102
}
330
42
100
AcDbScale
 70
     0
300
1-1/2" = 1'-0"
140
1.5
141
12.0
290
     0
  0
SCALE
  5
51
102
{ACAD_REACTORS
330
42
102
}
330
42
100
AcDbScale
 70
     0
300
3" = 1'-0"
140
3.0
141
12.0
290
     0
  0
SCALE
  5
52
102
{ACAD_REACTORS
330
42
102
}
330
42
100
AcDbScale
 70
     0
300
6" = 1'-0"
140
6.0
141
12.0
290
     0
  0
SCALE
  5
53
102
{ACAD_REACTORS
330
42
102
}
330
42
100
AcDbScale
 70
     0
300
1'-0" = 1'-0"
140
12.0
141
12.0
290
     0
  0
ACDBSECTIONVIEWSTYLE
  5
68
102
{ACAD_XDICTIONARY
360
40B
102
}
102
{ACAD_REACTORS
330
67
102
}
330
67
100
AcDbModelDocViewStyle
 70
     0
  3
Imperial24
290
     0
100
AcDbSectionViewStyle
 70
     0
 71
     0
 90
       78
 71
     1
340
55
 62
   256
 40
0.24
340
0
340
0
 62
   256
 40
0.24
300
I, O, Q, S, X, Z
 40
0.48
 90
        3
 40
0.18
 90
        1
 71
     2
340
5C
 90
       25
 62
   256
340
5C
 90
       50
 62
   256
 40
0.24
 40
0.0
 40
0.24
 71
     3
340
55
 62
   256
 40
0.24
 90
        1
 40
0.75
 90
        1
300
%<\AcVar ViewType \f "%tc1">% %<\AcVar ViewSectionStartId>%-%<\AcVar ViewSectionEndId>%\PSCALE %<\AcVar ViewScale \f "%sn">%
 71
     4
 62
   256
 62
   257
300
ANSI31
 40
1.0
 90
        0
290
     0
290
     0
 90
        6
 40
0.0
 40
1.570796326794896
 40
0.2617993877991494
 40
1.308996938995747
 40
-0.2617993877991494
 40
1.832595714594044
  0
TABLESTYLE
  5
64
102
{ACAD_XDICTIONARY
360
5B6
102
}
102
{ACAD_REACTORS
330
63
102
}
330
63
100
AcDbTableStyle
280
     0
  3
Standard
 70
     0
 71
     0
 40
0.06
 41
0.06
280
     0
281
     0
  7
Standard
140
0.18
170
     2
 62
     0
 63
     7
283
     0
 90
      512
 91
        0
  1

274
    -2
284
     1
 64
     0
275
    -2
285
     1
 65
     0
276
    -2
286
     1
 66
     0
277
    -2
287
     1
 67
     0
278
    -2
288
     1
 68
     0
279
    -2
289
     1
 69
     0
  7
Standard
140
0.25
170
     5
 62
     0
 63
     7
283
     0
 90
      512
 91
        0
  1

274
    -2
284
     1
 64
     0
275
    -2
285
     1
 65
     0
276
    -2
286
     1
 66
     0
277
    -2
287
     1
 67
     0
278
    -2
288
     1
 68
     0
279
    -2
289
     1
 69
     0
  7
Standard
140
0.18
170
     5
 62
     0
 63
     7
283
     0
 90
      512
 91
        0
  1

274
    -2
284
     1
 64
     0
275
    -2
285
     1
 65
     0
276
    -2
286
     1
 66
     0
277
    -2
287
     1
 67
     0
278
    -2
288
     1
 68
     0
279
    -2
289
     1
 69
     0
  0
VISUALSTYLE
  5
2F
102
{ACAD_REACTORS
330
29
102
}
330
29
100
AcDbVisualStyle
  2
2dWireframe
 70
     4
177
     3
291
     0
 70
    58
 90
        0
176
     1
 90
        2
176
     1
 90
        0
176
     1
 90
        0
176
     1
 40
0.6
176
     1
 40
30.0
176
     1
 62
     7
420
 16777215
176
     1
 90
        1
176
     1
 90
        4
176
     1
 62
     7
176
     1
 62
   257
176
     1
 90
        1
176
     1
 90
        1
176
     1
 40
1.0
176
     1
 90
        0
176
     1
 62
   257
176
     1
 40
1.0
176
     1
 90
        1
176
     1
 90
        6
176
     1
 90
        2
176
     1
 62
     7
176
     1
 90
        5
176
     1
 90
        0
176
     1
 90
        0
176
     1
290
     0
176
     1
 90
        1
176
     1
 40
0.0
176
     1
 90
        0
176
     1
290
     1
176
     1
290
     1
176
     1
290
     0
176
     1
290
     0
176
     1
290
     0
176
     1
290
     0
176
     1
290
     0
176
     1
290
     0
176
     1
290
     0
176
     1
 90
       50
176
     1
 40
0.0
176
     1
 40
1.0
176
     1
 90
        0
176
     1
 62
    18
176
     1
 90
       50
176
     1
 90
        3
176
     1
 62
     5
420
      255
176
     1
290
     0
176
     1
 90
       50
176
     1
 90
       50
176
     1
 90
       50
176
     1
290
     0
176
     1
 90
       50
176
     1
 62
   256
176
     0
 40
1.0
176
     0
 90
        2
176
     1
  1
strokes_ogs.tif
176
     1
290
     0
176
     1
 40
1.0
176
     1
 40
1.0
176
     1
  0
VISUALSTYLE
  5
2E
102
{ACAD_REACTORS
330
29
102
}
330
29
100
AcDbVisualStyle
  2
Basic
 70
     7
177
     3
291
     1
 70
    58
 90
        1
176
     1
 90
        0
176
     1
 90
        1
176
     1
 90
        0
176
     1
 40
0.6
176
     1
 40
30.0
176
     1
 62
     7
420
 16777215
176
     1
 90
        0
176
     1
 90
        4
176
     1
 62
     7
176
     1
 62
   257
176
     1
 90
        1
176
     1
 90
        1
176
     1
 40
1.0
176
     1
 90
        8
176
     1
 62
     7
176
     1
 40
1.0
176
     1
 90
        1
176
     1
 90
        6
176
     1
 90
        2
176
     1
 62
     7
176
     1
 90
        5
176
     1
 90
        0
176
     1
 90
        0
176
     1
290
     0
176
     1
 90
        1
176
     1
 40
0.0
176
     1
 90
        0
176
     1
290
     0
176
     1
290
     1
176
     1
290
     1
176
     1
290
     0
176
     1
290
     0
176
     1
290
     0
176
     1
290
     0
176
     1
290
     0
176
     1
290
     0
176
     1
 90
       50
176
     1
 40
0.0
176
     1
 40
1.0
176
     1
 90
        0
176
     1
 62
    18
176
     1
 90
       50
176
     1
 90
        3
176
     1
 62
     5
420
      255
176
     1
290
     0
176
     1
 90
       50
176
     1
 90
       50
176
     1
 90
       50
176
     1
290
     0
176
     1
 90
       50
176
     1
 62
   256
176
     0
 40
1.0
176
     0
 90
        2
176
     1
  1
strokes_ogs.tif
176
     1
290
     0
176
     1
 40
1.0
176
     1
 40
1.0
176
     1
  0
VISUALSTYLE
  5
35
102
{ACAD_REACTORS
330
29
102
}
330
29
100
AcDbVisualStyle
  2
Brighten
 70
    12
177
     3
291
     1
 70
    58
 90
        2
176
     1
 90
        2
176
     1
 90
        0
176
     1
 90
        0
176
     1
 40
0.6
176
     1
 40
30.0
176
     1
 62
     7
420
 16777215
176
     1
 90
        1
176
     1
 90
        4
176
     1
 62
     7
176
     1
 62
   257
176
     1
 90
        1
176
     1
 90
        1
176
     1
 40
1.0
176
     1
 90
        8
176
     1
 62
     7
176
     1
 40
1.0
176
     1
 90
        1
176
     1
 90
        6
176
     1
 90
        2
176
     1
 62
     7
176
     1
 90
        5
176
     1
 90
        0
176
     1
 90
        0
176
     1
290
     0
176
     1
 90
        1
176
     1
 40
50.0
176
     1
 90
        0
176
     1
290
     0
176
     1
290
     1
176
     1
290
     1
176
     1
290
     0
176
     1
290
     0
176
     1
290
     0
176
     1
290
     0
176
     1
290
     0
176
     1
290
     0
176
     1
 90
       50
176
     1
 40
0.0
176
     1
 40
1.0
176
     1
 90
        0
176
     1
 62
    18
176
     1
 90
       50
176
     1
 90
        3
176
     1
 62
     5
420
      255
176
     1
290
     0
176
     1
 90
       50
176
     1
 90
       50
176
     1
 90
       50
176
     1
290
     0
176
     1
 90
       50
176
     1
 62
   256
176
     0
 40
1.0
176
     0
 90
        2
176
     1
  1
strokes_ogs.tif
176
     1
290
     0
176
     1
 40
1.0
176
     1
 40
1.0
176
     1
  0
VISUALSTYLE
  5
39
102
{ACAD_REACTORS
330
29
102
}
330
29
100
AcDbVisualStyle
  2
ColorChange
 70
    16
177
     3
291
     1
 70
    58
 90
        2
176
     1
 90
        2
176
     1
 90
        3
176
     1
 90
        0
176
     1
 40
0.6
176
     1
 40
30.0
176
     1
 62
     8
420
  8421504
176
     1
 90
        1
176
     1
 90
        4
176
     1
 62
     7
176
     1
 62
   257
176
     1
 90
        1
176
     1
 90
        1
176
     1
 40
1.0
176
     1
 90
        8
176
     1
 62
     8
420
  8421504
176
     1
 40
1.0
176
     1
 90
        1
176
     1
 90
        6
176
     1
 90
        2
176
     1
 62
     7
176
     1
 90
        5
176
     1
 90
        0
176
     1
 90
        0
176
     1
290
     0
176
     1
 90
        1
176
     1
 40
0.0
176
     1
 90
        0
176
     1
290
     0
176
     1
290
     1
176
     1
290
     1
176
     1
290
     0
176
     1
290
     0
176
     1
290
     0
176
     1
290
     0
176
     1
290
     0
176
     1
290
     0
176
     1
 90
       50
176
     1
 40
0.0
176
     1
 40
1.0
176
     1
 90
        0
176
     1
 62
    18
176
     1
 90
       50
176
     1
 90
        3
176
     1
 62
     5
420
      255
176
     1
290
     0
176
     1
 90
       50
176
     1
 90
       50
176
     1
 90
       50
176
     1
290
     0
176
     1
 90
       50
176
     1
 62
   256
176
     0
 40
1.0
176
     0
 90
        2
176
     1
  1
strokes_ogs.tif
176
     1
290
     0
176
     1
 40
1.0
176
     1
 40
1.0
176
     1
  0
VISUALSTYLE
  5
32
102
{ACAD_REACTORS
330
29
102
}
330
29
100
AcDbVisualStyle
  2
Conceptual
 70
     9
177
     3
291
     0
 70
    58
 90
        3
176
     1
 90
        2
176
     1
 90
        0
176
     1
 90
        0
176
     1
 40
0.6
176
     1
 40
30.0
176
     1
 62
     7
420
 16777215
176
     1
 90
        2
176
     1
 90
        2
176
     1
 62
     7
176
     1
 62
   257
176
     1
 90
        1
176
     1
 90
        1
176
     1
 40
179.0
176
     1
 90
        8
176
     1
 62
     7
176
     1
 40
1.0
176
     1
 90
        1
176
     1
 90
        6
176
     1
 90
        2
176
     1
 62
     7
176
     1
 90
        3
176
     1
 90
        0
176
     1
 90
        0
176
     1
290
     0
176
     1
 90
        1
176
     1
 40
0.0
176
     1
 90
        0
176
     1
290
     0
176
     1
290
     1
176
     1
290
     1
176
     1
290
     0
176
     1
290
     0
176
     1
290
     0
176
     1
290
     0
176
     1
290
     0
176
     1
290
     0
176
     1
 90
       50
176
     1
 40
0.0
176
     1
 40
1.0
176
     1
 90
        0
176
     1
 62
    18
176
     1
 90
       50
176
     1
 90
        3
176
     1
 62
     5
420
      255
176
     1
290
     0
176
     1
 90
       50
176
     1
 90
       50
176
     1
 90
       50
176
     1
290
     0
176
     1
 90
       50
176
     1
 62
   256
176
     0
 40
1.0
176
     0
 90
        2
176
     1
  1
strokes_ogs.tif
176
     1
290
     0
176
     1
 40
1.0
176
     1
 40
1.0
176
     1
  0
VISUALSTYLE
  5
34
102
{ACAD_REACTORS
330
29
102
}
330
29
100
AcDbVisualStyle
  2
Dim
 70
    11
177
     3
291
     1
 70
    58
 90
        2
176
     1
 90
        2
176
     1
 90
        0
176
     1
 90
        0
176
     1
 40
0.6
176
     1
 40
30.0
176
     1
 62
     7
420
 16777215
176
     1
 90
        1
176
     1
 90
        4
176
     1
 62
     7
176
     1
 62
   257
176
     1
 90
        1
176
     1
 90
        1
176
     1
 40
1.0
176
     1
 90
        8
176
     1
 62
     7
176
     1
 40
1.0
176
     1
 90
        1
176
     1
 90
        6
176
     1
 90
        2
176
     1
 62
     7
176
     1
 90
        5
176
     1
 90
        0
176
     1
 90
        0
176
     1
290
     0
176
     1
 90
        1
176
     1
 40
-50.0
176
     1
 90
        0
176
     1
290
     0
176
     1
290
     1
176
     1
290
     1
176
     1
290
     0
176
     1
290
     0
176
     1
290
     0
176
     1
290
     0
176
     1
290
     0
176
     1
290
     0
176
     1
 90
       50
176
     1
 40
0.0
176
     1
 40
1.0
176
     1
 90
        0
176
     1
 62
    18
176
     1
 90
       50
176
     1
 90
        3
176
     1
 62
     5
420
      255
176
     1
290
     0
176
     1
 90
       50
176
     1
 90
       50
176
     1
 90
       50
176
     1
290
     0
176
     1
 90
       50
176
     1
 62
   256
176
     0
 40
1.0
176
     0
 90
        2
176
     1
  1
strokes_ogs.tif
176
     1
290
     0
176
     1
 40
1.0
176
     1
 40
1.0
176
     1
  0
VISUALSTYLE
  5
41
102
{ACAD_REACTORS
330
29
102
}
330
29
100
AcDbVisualStyle
  2
EdgeColorOff
 70
    22
177
     3
291
     1
 70
    58
 90
        2
176
     0
 90
        2
176
     0
 90
        0
176
     0
 90
        0
176
     0
 40
0.6
176
     0
 40
30.0
176
     0
 62
     7
420
 16777215
176
     0
 90
        1
176
     0
 90
        4
176
     0
 62
     7
176
     0
 62
   257
176
     0
 90
        1
176
     0
 90
        1
176
     0
 40
1.0
176
     0
 90
        8
176
     2
 62
     7
176
     0
 40
1.0
176
     0
 90
        1
176
     0
 90
        6
176
     0
 90
        2
176
     0
 62
     7
176
     0
 90
        5
176
     0
 90
        0
176
     0
 90
        0
176
     0
290
     0
176
     0
 90
        1
176
     0
 40
0.0
176
     0
 90
        0
176
     0
290
     0
176
     1
290
     1
176
     1
290
     1
176
     1
290
     0
176
     1
290
     0
176
     1
290
     0
176
     1
290
     0
176
     1
290
     0
176
     1
290
     0
176
     1
 90
       50
176
     0
 40
0.0
176
     0
 40
1.0
176
     0
 90
        0
176
     0
 62
    18
176
     0
 90
       50
176
     0
 90
        3
176
     0
 62
     5
420
      255
176
     0
290
     0
176
     1
 90
       50
176
     0
 90
       50
176
     0
 90
       50
176
     0
290
     0
176
     1
 90
       50
176
     0
 62
   256
176
     0
 40
1.0
176
     0
 90
        2
176
     0
  1
strokes_ogs.tif
176
     0
290
     0
176
     1
 40
1.0
176
     0
 40
1.0
176
     0
  0
VISUALSTYLE
  5
38
102
{ACAD_REACTORS
330
29
102
}
330
29
100
AcDbVisualStyle
  2
Facepattern
 70
    15
177
     3
291
     1
 70
    58
 90
        2
176
     1
 90
        2
176
     1
 90
        0
176
     1
 90
        0
176
     1
 40
0.6
176
     1
 40
30.0
176
     1
 62
     7
420
 16777215
176
     1
 90
        1
176
     1
 90
        4
176
     1
 62
     7
176
     1
 62
   257
176
     1
 90
        1
176
     1
 90
        1
176
     1
 40
1.0
176
     1
 90
        8
176
     1
 62
     7
176
     1
 40
1.0
176
     1
 90
        1
176
     1
 90
        6
176
     1
 90
        2
176
     1
 62
     7
176
     1
 90
        5
176
     1
 90
        0
176
     1
 90
        0
176
     1
290
     0
176
     1
 90
        1
176
     1
 40
0.0
176
     1
 90
        0
176
     1
290
     0
176
     1
290
     1
176
     1
290
     1
176
     1
290
     0
176
     1
290
     0
176
     1
290
     0
176
     1
290
     0
176
     1
290
     0
176
     1
290
     0
176
     1
 90
       50
176
     1
 40
0.0
176
     1
 40
1.0
176
     1
 90
        0
176
     1
 62
    18
176
     1
 90
       50
176
     1
 90
        3
176
     1
 62
     5
420
      255
176
     1
290
     0
176
     1
 90
       50
176
     1
 90
       50
176
     1
 90
       50
176
     1
290
     0
176
     1
 90
       50
176
     1
 62
   256
176
     0
 40
1.0
176
     0
 90
        2
176
     1
  1
strokes_ogs.tif
176
     1
290
     0
176
     1
 40
1.0
176
     1
 40
1.0
176
     1
  0
VISUALSTYLE
  5
2A
102
{ACAD_REACTORS
330
29
102
}
330
29
100
AcDbVisualStyle
  2
Flat
 70
     0
177
     3
291
     1
 70
    58
 90
        2
176
     1
 90
        1
176
     1
 90
        1
176
     1
 90
        2
176
     1
 40
0.6
176
     1
 40
30.0
176
     1
 62
     7
420
 16777215
176
     1
 90
        0
176
     1
 90
        0
176
     1
 62
     7
176
     1
 62
   257
176
     1
 90
        1
176
     1
 90
        1
176
     1
 40
1.0
176
     1
 90
        8
176
     1
 62
     7
176
     1
 40
1.0
176
     1
 90
        1
176
     1
 90
        6
176
     1
 90
        2
176
     1
 62
     7
176
     1
 90
        5
176
     1
 90
        0
176
     1
 90
        0
176
     1
290
     0
176
     1
 90
       13
176
     1
 40
0.0
176
     1
 90
        0
176
     1
290
     0
176
     1
290
     1
176
     1
290
     1
176
     1
290
     0
176
     1
290
     0
176
     1
290
     0
176
     1
290
     0
176
     1
290
     0
176
     1
290
     0
176
     1
 90
       50
176
     1
 40
0.0
176
     1
 40
1.0
176
     1
 90
        0
176
     1
 62
    18
176
     1
 90
       50
176
     1
 90
        3
176
     1
 62
     5
420
      255
176
     1
290
     0
176
     1
 90
       50
176
     1
 90
       50
176
     1
 90
       50
176
     1
290
     0
176
     1
 90
       50
176
     1
 62
   256
176
     0
 40
1.0
176
     0
 90
        2
176
     1
  1
strokes_ogs.tif
176
     1
290
     0
176
     1
 40
1.0
176
     1
 40
1.0
176
     1
  0
VISUALSTYLE
  5
2B
102
{ACAD_REACTORS
330
29
102
}
330
29
100
AcDbVisualStyle
  2
FlatWithEdges
 70
     1
177
     3
291
     1
 70
    58
 90
        2
176
     1
 90
        1
176
     1
 90
        1
176
     1
 90
        2
176
     1
 40
0.6
176
     1
 40
30.0
176
     1
 62
     7
420
 16777215
176
     1
 90
        1
176
     1
 90
        0
176
     1
 62
     7
176
     1
 62
   257
176
     1
 90
        1
176
     1
 90
        1
176
     1
 40
1.0
176
     1
 90
        0
176
     1
 62
   257
176
     1
 40
1.0
176
     1
 90
        1
176
     1
 90
        6
176
     1
 90
        2
176
     1
 62
     7
176
     1
 90
        5
176
     1
 90
        0
176
     1
 90
        0
176
     1
290
     0
176
     1
 90
       13
176
     1
 40
0.0
176
     1
 90
        0
176
     1
290
     0
176
     1
290
     1
176
     1
290
     1
176
     1
290
     0
176
     1
290
     0
176
     1
290
     0
176
     1
290
     0
176
     1
290
     0
176
     1
290
     0
176
     1
 90
       50
176
     1
 40
0.0
176
     1
 40
1.0
176
     1
 90
        0
176
     1
 62
    18
176
     1
 90
       50
176
     1
 90
        3
176
     1
 62
     5
420
      255
176
     1
290
     0
176
     1
 90
       50
176
     1
 90
       50
176
     1
 90
       50
176
     1
290
     0
176
     1
 90
       50
176
     1
 62
   256
176
     0
 40
1.0
176
     0
 90
        2
176
     1
  1
strokes_ogs.tif
176
     1
290
     0
176
     1
 40
1.0
176
     1
 40
1.0
176
     1
  0
VISUALSTYLE
  5
2C
102
{ACAD_REACTORS
330
29
102
}
330
29
100
AcDbVisualStyle
  2
Gouraud
 70
     2
177
     3
291
     1
 70
    58
 90
        2
176
     1
 90
        2
176
     1
 90
        1
176
     1
 90
        2
176
     1
 40
0.6
176
     1
 40
30.0
176
     1
 62
     7
420
 16777215
176
     1
 90
        0
176
     1
 90
        0
176
     1
 62
     7
176
     1
 62
   257
176
     1
 90
        1
176
     1
 90
        1
176
     1
 40
1.0
176
     1
 90
        0
176
     1
 62
     7
176
     1
 40
1.0
176
     1
 90
        1
176
     1
 90
        6
176
     1
 90
        2
176
     1
 62
     7
176
     1
 90
        5
176
     1
 90
        0
176
     1
 90
        0
176
     1
290
     0
176
     1
 90
       13
176
     1
 40
0.0
176
     1
 90
        0
176
     1
290
     0
176
     1
290
     1
176
     1
290
     1
176
     1
290
     0
176
     1
290
     0
176
     1
290
     0
176
     1
290
     0
176
     1
290
     0
176
     1
290
     0
176
     1
 90
       50
176
     1
 40
0.0
176
     1
 40
1.0
176
     1
 90
        0
176
     1
 62
    18
176
     1
 90
       50
176
     1
 90
        3
176
     1
 62
     5
420
      255
176
     1
290
     0
176
     1
 90
       50
176
     1
 90
       50
176
     1
 90
       50
176
     1
290
     0
176
     1
 90
       50
176
     1
 62
   256
176
     0
 40
1.0
176
     0
 90
        2
176
     1
  1
strokes_ogs.tif
176
     1
290
     0
176
     1
 40
1.0
176
     1
 40
1.0
176
     1
  0
VISUALSTYLE
  5
2D
102
{ACAD_REACTORS
330
29
102
}
330
29
100
AcDbVisualStyle
  2
GouraudWithEdges
 70
     3
177
     3
291
     1
 70
    58
 90
        2
176
     1
 90
        2
176
     1
 90
        1
176
     1
 90
        2
176
     1
 40
0.6
176
     1
 40
30.0
176
     1
 62
     7
420
 16777215
176
     1
 90
        1
176
     1
 90
        0
176
     1
 62
     7
176
     1
 62
   257
176
     1
 90
        1
176
     1
 90
        1
176
     1
 40
1.0
176
     1
 90
        0
176
     1
 62
   257
176
     1
 40
1.0
176
     1
 90
        1
176
     1
 90
        6
176
     1
 90
        2
176
     1
 62
     7
176
     1
 90
        5
176
     1
 90
        0
176
     1
 90
        0
176
     1
290
     0
176
     1
 90
       13
176
     1
 40
0.0
176
     1
 90
        0
176
     1
290
     0
176
     1
290
     1
176
     1
290
     1
176
     1
290
     0
176
     1
290
     0
176
     1
290
     0
176
     1
290
     0
176
     1
290
     0
176
     1
290
     0
176
     1
 90
       50
176
     1
 40
0.0
176
     1
 40
1.0
176
     1
 90
        0
176
     1
 62
    18
176
     1
 90
       50
176
     1
 90
        3
176
     1
 62
     5
420
      255
176
     1
290
     0
176
     1
 90
       50
176
     1
 90
       50
176
     1
 90
       50
176
     1
290
     0
176
     1
 90
       50
176
     1
 62
   256
176
     0
 40
1.0
176
     0
 90
        2
176
     1
  1
strokes_ogs.tif
176
     1
290
     0
176
     1
 40
1.0
176
     1
 40
1.0
176
     1
  0
VISUALSTYLE
  5
31
102
{ACAD_REACTORS
330
29
102
}
330
29
100
AcDbVisualStyle
  2
Hidden
 70
     6
177
     3
291
     0
 70
    58
 90
        1
176
     1
 90
        2
176
     1
 90
        2
176
     1
 90
        0
176
     1
 40
0.6
176
     1
 40
30.0
176
     1
 62
     7
420
 16777215
176
     1
 90
        2
176
     1
 90
        2
176
     1
 62
     7
176
     1
 62
   257
176
     1
 90
        2
176
     1
 90
        1
176
     1
 40
40.0
176
     1
 90
        0
176
     1
 62
   257
176
     1
 40
1.0
176
     1
 90
        1
176
     1
 90
        6
176
     1
 90
        2
176
     1
 62
     7
176
     1
 90
        3
176
     1
 90
        0
176
     1
 90
        0
176
     1
290
     0
176
     1
 90
        1
176
     1
 40
0.0
176
     1
 90
        0
176
     1
290
     0
176
     1
290
     1
176
     1
290
     1
176
     1
290
     0
176
     1
290
     0
176
     1
290
     0
176
     1
290
     0
176
     1
290
     0
176
     1
290
     0
176
     1
 90
       50
176
     1
 40
0.0
176
     1
 40
1.0
176
     1
 90
        0
176
     1
 62
    18
176
     1
 90
       50
176
     1
 90
        3
176
     1
 62
     5
420
      255
176
     1
290
     0
176
     1
 90
       50
176
     1
 90
       50
176
     1
 90
       50
176
     1
290
     0
176
     1
 90
       50
176
     1
 62
   256
176
     0
 40
1.0
176
     0
 90
        2
176
     1
  1
strokes_ogs.tif
176
     1
290
     0
176
     1
 40
1.0
176
     1
 40
1.0
176
     1
  0
VISUALSTYLE
  5
3F
102
{ACAD_REACTORS
330
29
102
}
330
29
100
AcDbVisualStyle
  2
JitterOff
 70
    20
177
     3
291
     1
 70
    58
 90
        2
176
     0
 90
        2
176
     0
 90
        0
176
     0
 90
        0
176
     0
 40
0.6
176
     0
 40
30.0
176
     0
 62
     7
420
 16777215
176
     0
 90
        1
176
     0
 90
        4
176
     0
 62
     7
176
     0
 62
   257
176
     0
 90
        1
176
     0
 90
        1
176
     0
 40
1.0
176
     0
 90
       10
176
     2
 62
     7
176
     0
 40
1.0
176
     0
 90
        1
176
     0
 90
        6
176
     0
 90
        2
176
     0
 62
     7
176
     0
 90
        5
176
     0
 90
        0
176
     0
 90
        0
176
     0
290
     0
176
     0
 90
        1
176
     0
 40
0.0
176
     0
 90
        0
176
     0
290
     0
176
     1
290
     1
176
     1
290
     1
176
     1
290
     0
176
     1
290
     0
176
     1
290
     0
176
     1
290
     0
176
     1
290
     0
176
     1
290
     0
176
     1
 90
       50
176
     0
 40
0.0
176
     0
 40
1.0
176
     0
 90
        0
176
     0
 62
    18
176
     0
 90
       50
176
     0
 90
        3
176
     0
 62
     5
420
      255
176
     0
290
     0
176
     1
 90
       50
176
     0
 90
       50
176
     0
 90
       50
176
     0
290
     0
176
     1
 90
       50
176
     0
 62
   256
176
     0
 40
1.0
176
     0
 90
        2
176
     0
  1
strokes_ogs.tif
176
     0
290
     0
176
     1
 40
1.0
176
     0
 40
1.0
176
     0
  0
VISUALSTYLE
  5
37
102
{ACAD_REACTORS
330
29
102
}
330
29
100
AcDbVisualStyle
  2
Linepattern
 70
    14
177
     3
291
     1
 70
    58
 90
        2
176
     1
 90
        2
176
     1
 90
        0
176
     1
 90
        0
176
     1
 40
0.6
176
     1
 40
30.0
176
     1
 62
     7
420
 16777215
176
     1
 90
        1
176
     1
 90
        4
176
     1
 62
     7
176
     1
 62
   257
176
     1
 90
        7
176
     1
 90
        7
176
     1
 40
1.0
176
     1
 90
        8
176
     1
 62
     7
176
     1
 40
1.0
176
     1
 90
        1
176
     1
 90
        6
176
     1
 90
        2
176
     1
 62
     7
176
     1
 90
        5
176
     1
 90
        0
176
     1
 90
        0
176
     1
290
     0
176
     1
 90
        1
176
     1
 40
0.0
176
     1
 90
        0
176
     1
290
     0
176
     1
290
     1
176
     1
290
     1
176
     1
290
     0
176
     1
290
     0
176
     1
290
     0
176
     1
290
     0
176
     1
290
     0
176
     1
290
     0
176
     1
 90
       50
176
     1
 40
0.0
176
     1
 40
1.0
176
     1
 90
        0
176
     1
 62
    18
176
     1
 90
       50
176
     1
 90
        3
176
     1
 62
     5
420
      255
176
     1
290
     0
176
     1
 90
       50
176
     1
 90
       50
176
     1
 90
       50
176
     1
290
     0
176
     1
 90
       50
176
     1
 62
   256
176
     0
 40
1.0
176
     0
 90
        2
176
     1
  1
strokes_ogs.tif
176
     1
290
     0
176
     1
 40
1.0
176
     1
 40
1.0
176
     1
  0
VISUALSTYLE
  5
40
102
{ACAD_REACTORS
330
29
102
}
330
29
100
AcDbVisualStyle
  2
OverhangOff
 70
    21
177
     3
291
     1
 70
    58
 90
        2
176
     0
 90
        2
176
     0
 90
        0
176
     0
 90
        0
176
     0
 40
0.6
176
     0
 40
30.0
176
     0
 62
     7
420
 16777215
176
     0
 90
        1
176
     0
 90
        4
176
     0
 62
     7
176
     0
 62
   257
176
     0
 90
        1
176
     0
 90
        1
176
     0
 40
1.0
176
     0
 90
        9
176
     2
 62
     7
176
     0
 40
1.0
176
     0
 90
        1
176
     0
 90
        6
176
     0
 90
        2
176
     0
 62
     7
176
     0
 90
        5
176
     0
 90
        0
176
     0
 90
        0
176
     0
290
     0
176
     0
 90
        1
176
     0
 40
0.0
176
     0
 90
        0
176
     0
290
     0
176
     1
290
     1
176
     1
290
     1
176
     1
290
     0
176
     1
290
     0
176
     1
290
     0
176
     1
290
     0
176
     1
290
     0
176
     1
290
     0
176
     1
 90
       50
176
     0
 40
0.0
176
     0
 40
1.0
176
     0
 90
        0
176
     0
 62
    18
176
     0
 90
       50
176
     0
 90
        3
176
     0
 62
     5
420
      255
176
     0
290
     0
176
     1
 90
       50
176
     0
 90
       50
176
     0
 90
       50
176
     0
290
     0
176
     1
 90
       50
176
     0
 62
   256
176
     0
 40
1.0
176
     0
 90
        2
176
     0
  1
strokes_ogs.tif
176
     0
290
     0
176
     1
 40
1.0
176
     0
 40
1.0
176
     0
  0
VISUALSTYLE
  5
33
102
{ACAD_REACTORS
330
29
102
}
330
29
100
AcDbVisualStyle
  2
Realistic
 70
     8
177
     3
291
     0
 70
    58
 90
        2
176
     1
 90
        3
176
     1
 90
        0
176
     1
 90
        2
176
     1
 40
0.6
176
     1
 40
30.0
176
     1
 62
     7
420
 16777215
176
     1
 90
        0
176
     1
 90
        0
176
     1
 62
     7
176
     1
 62
   257
176
     1
 90
        1
176
     1
 90
        1
176
     1
 40
1.0
176
     1
 90
        8
176
     1
 62
   257
176
     1
 40
1.0
176
     1
 90
        1
176
     1
 90
        6
176
     1
 90
        2
176
     1
 62
     7
176
     1
 90
        3
176
     1
 90
        0
176
     1
 90
        0
176
     1
290
     0
176
     1
 90
       13
176
     1
 40
0.0
176
     1
 90
        0
176
     1
290
     0
176
     1
290
     1
176
     1
290
     1
176
     1
290
     0
176
     1
290
     0
176
     1
290
     0
176
     1
290
     0
176
     1
290
     0
176
     1
290
     0
176
     1
 90
       50
176
     1
 40
0.0
176
     1
 40
1.0
176
     1
 90
        0
176
     1
 62
    18
176
     1
 90
       50
176
     1
 90
        3
176
     1
 62
     5
420
      255
176
     1
290
     0
176
     1
 90
       50
176
     1
 90
       50
176
     1
 90
       50
176
     1
290
     0
176
     1
 90
       50
176
     1
 62
   256
176
     0
 40
1.0
176
     0
 90
        2
176
     1
  1
strokes_ogs.tif
176
     1
290
     0
176
     1
 40
1.0
176
     1
 40
1.0
176
     1
  0
VISUALSTYLE
  5
3E
102
{ACAD_REACTORS
330
29
102
}
330
29
100
AcDbVisualStyle
  2
Shaded
 70
    27
177
     3
291
     0
 70
    58
 90
        2
176
     1
 90
        2
176
     1
 90
        1
176
     1
 90
        2
176
     1
 40
0.6
176
     1
 40
30.0
176
     1
 62
     7
420
 16777215
176
     1
 90
        0
176
     1
 90
        4
176
     1
 62
     7
176
     1
 62
   257
176
     1
 90
        1
176
     1
 90
        1
176
     1
 40
1.0
176
     1
 90
        8
176
     1
 62
   257
176
     1
 40
1.0
176
     1
 90
        1
176
     1
 90
        6
176
     1
 90
        2
176
     1
 62
     8
420
  7895160
176
     1
 90
        3
176
     1
 90
        0
176
     1
 90
        0
176
     1
290
     0
176
     1
 90
        5
176
     1
 40
0.0
176
     1
 90
        0
176
     1
290
     0
176
     1
290
     1
176
     1
290
     1
176
     1
290
     0
176
     1
290
     0
176
     1
290
     0
176
     1
290
     0
176
     1
290
     0
176
     1
290
     0
176
     1
 90
       50
176
     1
 40
0.0
176
     1
 40
1.0
176
     1
 90
        0
176
     1
 62
    18
176
     1
 90
       50
176
     1
 90
        3
176
     1
 62
     5
420
      255
176
     1
290
     0
176
     1
 90
       50
176
     1
 90
       50
176
     1
 90
       50
176
     1
290
     0
176
     1
 90
       50
176
     1
 62
   256
176
     0
 40
1.0
176
     0
 90
        2
176
     1
  1
strokes_ogs.tif
176
     1
290
     0
176
     1
 40
1.0
176
     1
 40
1.0
176
     1
  0
VISUALSTYLE
  5
3D
102
{ACAD_REACTORS
330
29
102
}
330
29
100
AcDbVisualStyle
  2
Shaded with edges
 70
    26
177
     3
291
     0
 70
    58
 90
        2
176
     1
 90
        2
176
     1
 90
        1
176
     1
 90
        2
176
     1
 40
0.6
176
     1
 40
30.0
176
     1
 62
     7
420
 16777215
176
     1
 90
        1
176
     1
 90
        2
176
     1
 62
     7
176
     1
 62
   257
176
     1
 90
        2
176
     1
 90
        1
176
     1
 40
1.0
176
     1
 90
        8
176
     1
 62
   257
176
     1
 40
1.0
176
     1
 90
        1
176
     1
 90
        6
176
     1
 90
        2
176
     1
 62
     7
176
     1
 90
        3
176
     1
 90
        0
176
     1
 90
        0
176
     1
290
     0
176
     1
 90
        5
176
     1
 40
0.0
176
     1
 90
        0
176
     1
290
     0
176
     1
290
     1
176
     1
290
     1
176
     1
290
     0
176
     1
290
     0
176
     1
290
     0
176
     1
290
     0
176
     1
290
     0
176
     1
290
     0
176
     1
 90
       50
176
     1
 40
0.0
176
     1
 40
1.0
176
     1
 90
        0
176
     1
 62
    18
176
     1
 90
       50
176
     1
 90
        3
176
     1
 62
     5
420
      255
176
     1
290
     0
176
     1
 90
       50
176
     1
 90
       50
176
     1
 90
       50
176
     1
290
     0
176
     1
 90
       50
176
     1
 62
   256
176
     0
 40
1.0
176
     0
 90
        2
176
     1
  1
strokes_ogs.tif
176
     1
290
     0
176
     1
 40
1.0
176
     1
 40
1.0
176
     1
  0
VISUALSTYLE
  5
3A
102
{ACAD_REACTORS
330
29
102
}
330
29
100
AcDbVisualStyle
  2
Shades of Gray
 70
    23
177
     3
291
     0
 70
    58
 90
        2
176
     1
 90
        2
176
     1
 90
        3
176
     1
 90
        0
176
     1
 40
0.6
176
     1
 40
30.0
176
     1
 62
     7
420
 16777215
176
     1
 90
        2
176
     1
 90
        2
176
     1
 62
     7
176
     1
 62
     7
176
     1
 90
        1
176
     1
 90
        1
176
     1
 40
40.0
176
     1
 90
        8
176
     1
 62
     7
176
     1
 40
1.0
176
     1
 90
        1
176
     1
 90
        6
176
     1
 90
        2
176
     1
 62
     7
176
     1
 90
        3
176
     1
 90
        0
176
     1
 90
        0
176
     1
290
     0
176
     1
 90
        1
176
     1
 40
0.0
176
     1
 90
        0
176
     1
290
     0
176
     1
290
     1
176
     1
290
     1
176
     1
290
     0
176
     1
290
     0
176
     1
290
     0
176
     1
290
     0
176
     1
290
     0
176
     1
290
     0
176
     1
 90
       50
176
     1
 40
0.0
176
     1
 40
1.0
176
     1
 90
        0
176
     1
 62
    18
176
     1
 90
       50
176
     1
 90
        3
176
     1
 62
     5
420
      255
176
     1
290
     0
176
     1
 90
       50
176
     1
 90
       50
176
     1
 90
       50
176
     1
290
     0
176
     1
 90
       50
176
     1
 62
   256
176
     0
 40
1.0
176
     0
 90
        2
176
     1
  1
strokes_ogs.tif
176
     1
290
     0
176
     1
 40
1.0
176
     1
 40
1.0
176
     1
  0
VISUALSTYLE
  5
3B
102
{ACAD_REACTORS
330
29
102
}
330
29
100
AcDbVisualStyle
  2
Sketchy
 70
    24
177
     3
291
     0
 70
    58
 90
        1
176
     1
 90
        2
176
     1
 90
        2
176
     1
 90
        0
176
     1
 40
0.6
176
     1
 40
30.0
176
     1
 62
     7
420
 16777215
176
     1
 90
        2
176
     1
 90
        2
176
     1
 62
     7
176
     1
 62
     7
176
     1
 90
        1
176
     1
 90
        1
176
     1
 40
40.0
176
     1
 90
       11
176
     1
 62
     7
176
     1
 40
1.0
176
     1
 90
        1
176
     1
 90
        6
176
     1
 90
        2
176
     1
 62
     7
176
     1
 90
        6
176
     1
 90
        0
176
     1
 90
        0
176
     1
290
     0
176
     1
 90
        1
176
     1
 40
0.0
176
     1
 90
        0
176
     1
290
     0
176
     1
290
     1
176
     1
290
     1
176
     1
290
     0
176
     1
290
     0
176
     1
290
     0
176
     1
290
     0
176
     1
290
     0
176
     1
290
     0
176
     1
 90
       50
176
     1
 40
0.0
176
     1
 40
1.0
176
     1
 90
        0
176
     1
 62
    18
176
     1
 90
       50
176
     1
 90
        3
176
     1
 62
     5
420
      255
176
     1
290
     0
176
     1
 90
       50
176
     1
 90
       50
176
     1
 90
       50
176
     1
290
     0
176
     1
 90
       50
176
     1
 62
   256
176
     0
 40
1.0
176
     0
 90
        2
176
     1
  1
strokes_ogs.tif
176
     1
290
     0
176
     1
 40
1.0
176
     1
 40
1.0
176
     1
  0
VISUALSTYLE
  5
36
102
{ACAD_REACTORS
330
29
102
}
330
29
100
AcDbVisualStyle
  2
Thicken
 70
    13
177
     3
291
     1
 70
    58
 90
        2
176
     1
 90
        2
176
     1
 90
        0
176
     1
 90
        0
176
     1
 40
0.6
176
     1
 40
30.0
176
     1
 62
     7
420
 16777215
176
     1
 90
        1
176
     1
 90
        4
176
     1
 62
     7
176
     1
 62
   257
176
     1
 90
        1
176
     1
 90
        1
176
     1
 40
1.0
176
     1
 90
       12
176
     1
 62
     7
176
     1
 40
1.0
176
     1
 90
        1
176
     1
 90
        6
176
     1
 90
        2
176
     1
 62
     7
176
     1
 90
        5
176
     1
 90
        0
176
     1
 90
        0
176
     1
290
     0
176
     1
 90
        1
176
     1
 40
0.0
176
     1
 90
        0
176
     1
290
     0
176
     1
290
     1
176
     1
290
     1
176
     1
290
     0
176
     1
290
     0
176
     1
290
     0
176
     1
290
     0
176
     1
290
     0
176
     1
290
     0
176
     1
 90
       50
176
     1
 40
0.0
176
     1
 40
1.0
176
     1
 90
        0
176
     1
 62
    18
176
     1
 90
       50
176
     1
 90
        3
176
     1
 62
     5
420
      255
176
     1
290
     0
176
     1
 90
       50
176
     1
 90
       50
176
     1
 90
       50
176
     1
290
     0
176
     1
 90
       50
176
     1
 62
   256
176
     0
 40
1.0
176
     0
 90
        2
176
     1
  1
strokes_ogs.tif
176
     1
290
     0
176
     1
 40
1.0
176
     1
 40
1.0
176
     1
  0
VISUALSTYLE
  5
30
102
{ACAD_REACTORS
330
29
102
}
330
29
100
AcDbVisualStyle
  2
Wireframe
 70
     5
177
     3
291
     0
 70
    58
 90
        0
176
     1
 90
        2
176
     1
 90
        0
176
     1
 90
        0
176
     1
 40
0.6
176
     1
 40
30.0
176
     1
 62
     7
420
 16777215
176
     1
 90
        1
176
     1
 90
        4
176
     1
 62
     7
176
     1
 62
   257
176
     1
 90
        1
176
     1
 90
        1
176
     1
 40
1.0
176
     1
 90
        0
176
     1
 62
   257
176
     1
 40
1.0
176
     1
 90
        1
176
     1
 90
        6
176
     1
 90
        2
176
     1
 62
     7
176
     1
 90
        3
176
     1
 90
        0
176
     1
 90
        0
176
     1
290
     0
176
     1
 90
        1
176
     1
 40
0.0
176
     1
 90
        0
176
     1
290
     0
176
     1
290
     1
176
     1
290
     1
176
     1
290
     0
176
     1
290
     0
176
     1
290
     0
176
     1
290
     0
176
     1
290
     0
176
     1
290
     0
176
     1
 90
       50
176
     1
 40
0.0
176
     1
 40
1.0
176
     1
 90
        0
176
     1
 62
    18
176
     1
 90
       50
176
     1
 90
        3
176
     1
 62
     5
420
      255
176
     1
290
     0
176
     1
 90
       50
176
     1
 90
       50
176
     1
 90
       50
176
     1
290
     0
176
     1
 90
       50
176
     1
 62
   256
176
     0
 40
1.0
176
     0
 90
        2
176
     1
  1
strokes_ogs.tif
176
     1
290
     0
176
     1
 40
1.0
176
     1
 40
1.0
176
     1
  0
VISUALSTYLE
  5
3C
102
{ACAD_REACTORS
330
29
102
}
330
29
100
AcDbVisualStyle
  2
X-Ray
 70
    25
177
     3
291
     0
 70
    58
 90
        2
176
     1
 90
        2
176
     1
 90
        1
176
     1
 90
        1
176
     1
 40
0.5
176
     1
 40
30.0
176
     1
 62
     7
420
 16777215
176
     1
 90
        1
176
     1
 90
        0
176
     1
 62
     7
176
     1
 62
   257
176
     1
 90
        1
176
     1
 90
        1
176
     1
 40
1.0
176
     1
 90
        8
176
     1
 62
     7
176
     1
 40
1.0
176
     1
 90
        1
176
     1
 90
        6
176
     1
 90
        2
176
     1
 62
     7
176
     1
 90
        3
176
     1
 90
        0
176
     1
 90
        0
176
     1
290
     0
176
     1
 90
       13
176
     1
 40
0.0
176
     1
 90
        0
176
     1
290
     0
176
     1
290
     1
176
     1
290
     1
176
     1
290
     0
176
     1
290
     0
176
     1
290
     0
176
     1
290
     0
176
     1
290
     0
176
     1
290
     0
176
     1
 90
       50
176
     1
 40
0.0
176
     1
 40
1.0
176
     1
 90
        0
176
     1
 62
    18
176
     1
 90
       50
176
     1
 90
        3
176
     1
 62
     5
420
      255
176
     1
290
     0
176
     1
 90
       50
176
     1
 90
       50
176
     1
 90
       50
176
     1
290
     0
176
     1
 90
       50
176
     1
 62
   256
176
     0
 40
1.0
176
     0
 90
        2
176
     1
  1
strokes_ogs.tif
176
     1
290
     0
176
     1
 40
1.0
176
     1
 40
1.0
176
     1
  0
DICTIONARYVAR
  5
416
102
{ACAD_REACTORS
330
410
102
}
330
410
100
DictionaryVariables
280
     0
  1
0
  0
DICTIONARYVAR
  5
417
102
{ACAD_REACTORS
330
410
102
}
330
410
100
DictionaryVariables
280
     0
  1
1:1
  0
DICTIONARYVAR
  5
412
102
{ACAD_REACTORS
330
410
102
}
330
410
100
DictionaryVariables
280
     0
  1
STANDARD
  0
DICTIONARYVAR
  5
411
102
{ACAD_REACTORS
330
410
102
}
330
410
100
DictionaryVariables
280
     0
  1
STANDARD
  0
DICTIONARYVAR
  5
413
102
{ACAD_REACTORS
330
410
102
}
330
410
100
DictionaryVariables
280
     0
  1
Imperial24
  0
DICTIONARYVAR
  5
414
102
{ACAD_REACTORS
330
410
102
}
330
410
100
DictionaryVariables
280
     0
  1
Imperial24
  0
DICTIONARYVAR
  5
419
102
{ACAD_REACTORS
330
410
102
}
330
410
100
DictionaryVariables
280
     0
  1
1
  0
DICTIONARYVAR
  5
41A
102
{ACAD_REACTORS
330
410
102
}
330
410
100
DictionaryVariables
280
     0
  1
15
  0
DICTIONARYVAR
  5
418
102
{ACAD_REACTORS
330
410
102
}
330
410
100
DictionaryVariables
280
     0
  1
0
  0
DICTIONARYVAR
  5
415
102
{ACAD_REACTORS
330
410
102
}
330
410
100
DictionaryVariables
280
     0
  1
0
  0
DICTIONARY
  5
40D
330
6A
100
AcDbDictionary
280
     1
281
     1
  3
ACAD_XREC_ROUNDTRIP
360
80A
  0
DICTIONARY
  5
1A
330
19
100
AcDbDictionary
280
     1
281
     1
  3
BUMPTILE
360
1C
  3
DIFFUSETILE
360
1B
  3
OPACITYTILE
360
1F
  3
REFLECTIONTILE
360
1E
  3
REFRACTIONTILE
360
20
  3
SPECULARTILE
360
1D
  0
DICTIONARY
  5
12
330
11
100
AcDbDictionary
280
     1
281
     1
  3
BUMPTILE
360
14
  3
DIFFUSETILE
360
13
  3
OPACITYTILE
360
17
  3
REFLECTIONTILE
360
16
  3
REFRACTIONTILE
360
18
  3
SPECULARTILE
360
15
  0
DICTIONARY
  5
22
330
21
100
AcDbDictionary
280
     1
281
     1
  3
BUMPTILE
360
24
  3
DIFFUSETILE
360
23
  3
OPACITYTILE
360
27
  3
REFLECTIONTILE
360
26
  3
REFRACTIONTILE
360
28
  3
SPECULARTILE
360
25
  0
DICTIONARY
  5
40B
330
68
100
AcDbDictionary
280
     1
281
     1
  3
ACAD_XREC_ROUNDTRIP
360
809
  0
DICTIONARY
  5
5B6
330
64
100
AcDbDictionary
280
     1
281
     1
  3
ACAD_ROUNDTRIP_2008_TABLESTYLE_CELLSTYLEMAP
360
808
  0
XRECORD
  5
80A
102
{ACAD_REACTORS
330
40D
102
}
330
40D
100
AcDbXrecord
280
     1
102
DISPLAYNAME
  1
Imperial24
102
FLAGS
 90
        0
  0
XRECORD
  5
1C
102
{ACAD_REACTORS
330
1A
102
}
330
1A
100
AcDbXrecord
280
     1
270
     1
271
     1
  0
XRECORD
  5
1B
102
{ACAD_REACTORS
330
1A
102
}
330
1A
100
AcDbXrecord
280
     1
270
     1
271
     1
  0
XRECORD
  5
1F
102
{ACAD_REACTORS
330
1A
102
}
330
1A
100
AcDbXrecord
280
     1
270
     1
271
     1
  0
XRECORD
  5
1E
102
{ACAD_REACTORS
330
1A
102
}
330
1A
100
AcDbXrecord
280
     1
270
     1
271
     1
  0
XRECORD
  5
20
102
{ACAD_REACTORS
330
1A
102
}
330
1A
100
AcDbXrecord
280
     1
270
     1
271
     1
  0
XRECORD
  5
1D
102
{ACAD_REACTORS
330
1A
102
}
330
1A
100
AcDbXrecord
280
     1
270
     1
271
     1
  0
XRECORD
  5
14
102
{ACAD_REACTORS
330
12
102
}
330
12
100
AcDbXrecord
280
     1
270
     1
271
     1
  0
XRECORD
  5
13
102
{ACAD_REACTORS
330
12
102
}
330
12
100
AcDbXrecord
280
     1
270
     1
271
     1
  0
XRECORD
  5
17
102
{ACAD_REACTORS
330
12
102
}
330
12
100
AcDbXrecord
280
     1
270
     1
271
     1
  0
XRECORD
  5
16
102
{ACAD_REACTORS
330
12
102
}
330
12
100
AcDbXrecord
280
     1
270
     1
271
     1
  0
XRECORD
  5
18
102
{ACAD_REACTORS
330
12
102
}
330
12
100
AcDbXrecord
280
     1
270
     1
271
     1
  0
XRECORD
  5
15
102
{ACAD_REACTORS
330
12
102
}
330
12
100
AcDbXrecord
280
     1
270
     1
271
     1
  0
XRECORD
  5
24
102
{ACAD_REACTORS
330
22
102
}
330
22
100
AcDbXrecord
280
     1
270
     1
271
     1
  0
XRECORD
  5
23
102
{ACAD_REACTORS
330
22
102
}
330
22
100
AcDbXrecord
280
     1
270
     1
271
     1
  0
XRECORD
  5
27
102
{ACAD_REACTORS
330
22
102
}
330
22
100
AcDbXrecord
280
     1
270
     1
271
     1
  0
XRECORD
  5
26
102
{ACAD_REACTORS
330
22
102
}
330
22
100
AcDbXrecord
280
     1
270
     1
271
     1
  0
XRECORD
  5
28
102
{ACAD_REACTORS
330
22
102
}
330
22
100
AcDbXrecord
280
     1
270
     1
271
     1
  0
XRECORD
  5
25
102
{ACAD_REACTORS
330
22
102
}
330
22
100
AcDbXrecord
280
     1
270
     1
271
     1
  0
XRECORD
  5
809
102
{ACAD_REACTORS
330
40B
102
}
330
40B
100
AcDbXrecord
280
     1
102
DISPLAYNAME
  1
Imperial24
102
FLAGS
 90
        0
  0
CELLSTYLEMAP
  5
808
102
{ACAD_REACTORS
330
5B6
102
}
330
5B6
100
AcDbCellStyleMap
 90
        3
300
CELLSTYLE
  1
TABLEFORMAT_BEGIN
 90
        5
170
     1
 91
        0
 92
    32768
 62
   257
 93
        1
300
CONTENTFORMAT
  1
CONTENTFORMAT_BEGIN
 90
        0
 91
        0
 92
      512
 93
        0
300

 40
0.0
140
1.0
 94
        5
 62
     0
340
55
144
0.25
309
CONTENTFORMAT_END
171
     1
301
MARGIN
  1
CELLMARGIN_BEGIN
 40
0.06
 40
0.06
 40
0.06
 40
0.06
 40
0.18
 40
0.18
309
CELLMARGIN_END
 94
        6
 95
        1
302
GRIDFORMAT
  1
GRIDFORMAT_BEGIN
 90
        0
 91
        1
 62
     0
 92
       -2
340
0
 93
        0
 40
0.045
309
GRIDFORMAT_END
 95
        2
302
GRIDFORMAT
  1
GRIDFORMAT_BEGIN
 90
        0
 91
        1
 62
     0
 92
       -2
340
0
 93
        0
 40
0.045
309
GRIDFORMAT_END
 95
        4
302
GRIDFORMAT
  1
GRIDFORMAT_BEGIN
 90
        0
 91
        1
 62
     0
 92
       -2
340
0
 93
        0
 40
0.045
309
GRIDFORMAT_END
 95
        8
302
GRIDFORMAT
  1
GRIDFORMAT_BEGIN
 90
        0
 91
        1
 62
     0
 92
       -2
340
0
 93
        0
 40
0.045
309
GRIDFORMAT_END
 95
       16
302
GRIDFORMAT
  1
GRIDFORMAT_BEGIN
 90
        0
 91
        1
 62
     0
 92
       -2
340
0
 93
        0
 40
0.045
309
GRIDFORMAT_END
 95
       32
302
GRIDFORMAT
  1
GRIDFORMAT_BEGIN
 90
        0
 91
        1
 62
     0
 92
       -2
340
0
 93
        0
 40
0.045
309
GRIDFORMAT_END
309
TABLEFORMAT_END
  1
CELLSTYLE_BEGIN
 90
        1
 91
        1
300
_TITLE
309
CELLSTYLE_END
300
CELLSTYLE
  1
TABLEFORMAT_BEGIN
 90
        5
170
     1
 91
        0
 92
        0
 62
   257
 93
        1
300
CONTENTFORMAT
  1
CONTENTFORMAT_BEGIN
 90
        0
 91
        0
 92
      512
 93
        0
300

 40
0.0
140
1.0
 94
        5
 62
     0
340
55
144
0.18
309
CONTENTFORMAT_END
171
     1
301
MARGIN
  1
CELLMARGIN_BEGIN
 40
0.06
 40
0.06
 40
0.06
 40
0.06
 40
0.18
 40
0.18
309
CELLMARGIN_END
 94
        6
 95
        1
302
GRIDFORMAT
  1
GRIDFORMAT_BEGIN
 90
        0
 91
        1
 62
     0
 92
       -2
340
0
 93
        0
 40
0.045
309
GRIDFORMAT_END
 95
        2
302
GRIDFORMAT
  1
GRIDFORMAT_BEGIN
 90
        0
 91
        1
 62
     0
 92
       -2
340
0
 93
        0
 40
0.045
309
GRIDFORMAT_END
 95
        4
302
GRIDFORMAT
  1
GRIDFORMAT_BEGIN
 90
        0
 91
        1
 62
     0
 92
       -2
340
0
 93
        0
 40
0.045
309
GRIDFORMAT_END
 95
        8
302
GRIDFORMAT
  1
GRIDFORMAT_BEGIN
 90
        0
 91
        1
 62
     0
 92
       -2
340
0
 93
        0
 40
0.045
309
GRIDFORMAT_END
 95
       16
302
GRIDFORMAT
  1
GRIDFORMAT_BEGIN
 90
        0
 91
        1
 62
     0
 92
       -2
340
0
 93
        0
 40
0.045
309
GRIDFORMAT_END
 95
       32
302
GRIDFORMAT
  1
GRIDFORMAT_BEGIN
 90
        0
 91
        1
 62
     0
 92
       -2
340
0
 93
        0
 40
0.045
309
GRIDFORMAT_END
309
TABLEFORMAT_END
  1
CELLSTYLE_BEGIN
 90
        2
 91
        1
300
_HEADER
309
CELLSTYLE_END
300
CELLSTYLE
  1
TABLEFORMAT_BEGIN
 90
        5
170
     1
 91
        0
 92
        0
 62
   257
 93
        1
300
CONTENTFORMAT
  1
CONTENTFORMAT_BEGIN
 90
        0
 91
        0
 92
      512
 93
        0
300

 40
0.0
140
1.0
 94
        2
 62
     0
340
55
144
0.18
309
CONTENTFORMAT_END
171
     1
301
MARGIN
  1
CELLMARGIN_BEGIN
 40
0.06
 40
0.06
 40
0.06
 40
0.06
 40
0.18
 40
0.18
309
CELLMARGIN_END
 94
        6
 95
        1
302
GRIDFORMAT
  1
GRIDFORMAT_BEGIN
 90
        0
 91
        1
 62
     0
 92
       -2
340
0
 93
        0
 40
0.045
309
GRIDFORMAT_END
 95
        2
302
GRIDFORMAT
  1
GRIDFORMAT_BEGIN
 90
        0
 91
        1
 62
     0
 92
       -2
340
0
 93
        0
 40
0.045
309
GRIDFORMAT_END
 95
        4
302
GRIDFORMAT
  1
GRIDFORMAT_BEGIN
 90
        0
 91
        1
 62
     0
 92
       -2
340
0
 93
        0
 40
0.045
309
GRIDFORMAT_END
 95
        8
302
GRIDFORMAT
  1
GRIDFORMAT_BEGIN
 90
        0
 91
        1
 62
     0
 92
       -2
340
0
 93
        0
 40
0.045
309
GRIDFORMAT_END
 95
       16
302
GRIDFORMAT
  1
GRIDFORMAT_BEGIN
 90
        0
 91
        1
 62
     0
 92
       -2
340
0
 93
        0
 40
0.045
309
GRIDFORMAT_END
 95
       32
302
GRIDFORMAT
  1
GRIDFORMAT_BEGIN
 90
        0
 91
        1
 62
     0
 92
       -2
340
0
 93
        0
 40
0.045
309
GRIDFORMAT_END
309
TABLEFORMAT_END
  1
CELLSTYLE_BEGIN
 90
        3
 91
        2
300
_DATA
309
CELLSTYLE_END
  0
ENDSEC
  0
SECTION
  2
ACDSDATA
 70
     2
 71
     8
  0
ACDSSCHEMA
 90
        0
  1
AcDb_Thumbnail_Schema
  2
AcDbDs::ID
280
    10
 91
        8
  2
Thumbnail_Data
280
    15
 91
        0
101
ACDSRECORD
 95
        0
 90
        1
  2
AcDbDs::TreatedAsObjectData
280
     1
291
     1
101
ACDSRECORD
 95
        0
 90
        2
  2
AcDbDs::Legacy
280
     1
291
     1
101
ACDSRECORD
  1
AcDbDs::ID
 90
        3
  2
AcDs:Indexable
280
     1
291
     1
101
ACDSRECORD
  1
AcDbDs::ID
 90
        4
  2
AcDbDs::HandleAttribute
280
     7
282
     1
  0
ACDSSCHEMA
 90
        1
  1
AcDbDs::TreatedAsObjectDataSchema
  2
AcDbDs::TreatedAsObjectData
280
     1
 91
        0
  0
ACDSSCHEMA
 90
        2
  1
AcDbDs::LegacySchema
  2
AcDbDs::Legacy
280
     1
 91
        0
  0
ACDSSCHEMA
 90
        3
  1
AcDbDs::IndexedPropertySchema
  2
AcDs:Indexable
280
     1
 91
        0
  0
ACDSSCHEMA
 90
        4
  1
AcDbDs::HandleAttributeSchema
  2
AcDbDs::HandleAttribute
280
     7
 91
        1
284
     1
  0
ACDSRECORD
 90
        0
  2
AcDbDs::ID
280
    10
320
6E
  2
Thumbnail_Data
280
    15
 94
     1578
310
89504E470D0A1A0A0000000D4948445200000100000000C508030000008CFEDCE700000300504C5445FFFFFF000000C8C8C80000000000000000000000000000000000000000000000000000330000660000990000CC0000FF0033000033330033660033990033CC0033FF0066000066330066660066990066CC0066FF0099
310
000099330099660099990099CC0099FF00CC0000CC3300CC6600CC9900CCCC00CCFF00FF0000FF3300FF6600FF9900FFCC00FFFF3300003300333300663300993300CC3300FF3333003333333333663333993333CC3333FF3366003366333366663366993366CC3366FF3399003399333399663399993399CC3399FF33CC00
310
33CC3333CC6633CC9933CCCC33CCFF33FF0033FF3333FF6633FF9933FFCC33FFFF6600006600336600666600996600CC6600FF6633006633336633666633996633CC6633FF6666006666336666666666996666CC6666FF6699006699336699666699996699CC6699FF66CC0066CC3366CC6666CC9966CCCC66CCFF66FF0066
310
FF3366FF6666FF9966FFCC66FFFF9900009900339900669900999900CC9900FF9933009933339933669933999933CC9933FF9966009966339966669966999966CC9966FF9999009999339999669999999999CC9999FF99CC0099CC3399CC6699CC9999CCCC99CCFF99FF0099FF3399FF6699FF9999FFCC99FFFFCC0000CC00
310
33CC0066CC0099CC00CCCC00FFCC3300CC3333CC3366CC3399CC33CCCC33FFCC6600CC6633CC6666CC6699CC66CCCC66FFCC9900CC9933CC9966CC9999CC99CCCC99FFCCCC00CCCC33CCCC66CCCC99CCCCCCCCCCFFCCFF00CCFF33CCFF66CCFF99CCFFCCCCFFFFFF0000FF0033FF0066FF0099FF00CCFF00FFFF3300FF3333
310
FF3366FF3399FF33CCFF33FFFF6600FF6633FF6666FF6699FF66CCFF66FFFF9900FF9933FF9966FF9999FF99CCFF99FFFFCC00FFCC33FFCC66FFCC99FFCCCCFFCCFFFFFF00FFFF33FFFF66FFFF99FFFFCCFFFFFF0000000D0D0D1A1A1A2828283535354343435050505D5D5D6B6B6B787878868686939393A1A1A1AEAEAEBB
310
BBBBC9C9C9D6D6D6E4E4E4F1F1F1FFFFFF000000000000000000000000000000000000000000000000000000000000B0E2D235000002E54944415478DAEDDDDB92A3201080E17EFFC7ECEB798899494D260A88280D02FD5BB5A9CDA152F8993E88B82B5FCE3771BC0100000000BC01547FFF387A8C009C1D7CF700E400EF00
310
E4000000A00A5005A802E4000000A00A5005A802E4801C80CEBE5503AC70A401A8488200100200000000491000420000000020090240080000000024410008010000008024080021000000009004012004000000009220006B87C0DCCB242D00A63EFEC6BF80C327BB35B5456FA8187EEF7BB0E14B460069D0ED1315D16B6F
310
049FAAFCDE6827B4E8F75B9604015812C07D080000C06200AF51EEDF7FB541264970863EE0EF61FBBE5801CCD1F3696AE48E5AE10480BA0268792E00407C96D123B1DDF8DE68A46649302CB03D4ADB8DEF8D46DA0440755880DD9DA26A1A02BB6CAB8302A808001D00F6336D430174090192A04F80E5FA003A410000A83917
310
284D035DA64952232A3B7CF7AB406921E8325196F91B00AD1A210000008024381280EAD195122F007215E0DA0A91E11B2195D4A522A3354233AC144BECA86A76ECAB01684380E37F936F0616CB8BA3A72720DDA749F63B9B78D918E0ACF6769F2813C90EC97A3E000000005807C07D12BC7C5D40126BB09E07F814BD18C074
310
894C7A0DD6F37D806E7737E8034C1749A5D7608D3CEDDD1E60880639370A5689995701BF00E10948FE8A6CC9EFB6E6E327CF835BA64C4220ACBDF96BF20587A5EAE327CFF570EC0F02A89600A47E10D1A297E9003E053BD751EAF6FFC394A0D7991CE07F7A56F3F3F7FA99C6EA01702D093EF70B681602CD0176BB723907C4
310
BB3D5D0864EC0BAA80CA580037FA801CC0791FA0A223F5010D7AB04EFDA7F9CDD3EBDC3E7F2109CEBD01501F0200000000491000420000000020090240080000000024410008010000008024080021000000009004012004000000009220008400000B03CCBED5022CBD9524410016DDDC870000005005A802540172000000
310
5005A8025401720000AF173637F0BB78240902000000000000C00FC097F3CD3DC037B3BAAD8DEF98A3080000000049454E44AE426082
  0
ACDSRECORD
 90
        0
  2
AcDbDs::ID
280
    10
320
72
  2
Thumbnail_Data
280
    15
 94
     1339
310
89504E470D0A1A0A0000000D49484452000001000000006608030000001376BFA700000300504C5445212830000000C8C8C80000000000000000000000000000000000000000000000000000330000660000990000CC0000FF0033000033330033660033990033CC0033FF0066000066330066660066990066CC0066FF0099
310
000099330099660099990099CC0099FF00CC0000CC3300CC6600CC9900CCCC00CCFF00FF0000FF3300FF6600FF9900FFCC00FFFF3300003300333300663300993300CC3300FF3333003333333333663333993333CC3333FF3366003366333366663366993366CC3366FF3399003399333399663399993399CC3399FF33CC00
310
33CC3333CC6633CC9933CCCC33CCFF33FF0033FF3333FF6633FF9933FFCC33FFFF6600006600336600666600996600CC6600FF6633006633336633666633996633CC6633FF6666006666336666666666996666CC6666FF6699006699336699666699996699CC6699FF66CC0066CC3366CC6666CC9966CCCC66CCFF66FF0066
310
FF3366FF6666FF9966FFCC66FFFF9900009900339900669900999900CC9900FF9933009933339933669933999933CC9933FF9966009966339966669966999966CC9966FF9999009999339999669999999999CC9999FF99CC0099CC3399CC6699CC9999CCCC99CCFF99FF0099FF3399FF6699FF9999FFCC99FFFFCC0000CC00
310
33CC0066CC0099CC00CCCC00FFCC3300CC3333CC3366CC3399CC33CCCC33FFCC6600CC6633CC6666CC6699CC66CCCC66FFCC9900CC9933CC9966CC9999CC99CCCC99FFCCCC00CCCC33CCCC66CCCC99CCCCCCCCCCFFCCFF00CCFF33CCFF66CCFF99CCFFCCCCFFFFFF0000FF0033FF0066FF0099FF00CCFF00FFFF3300FF3333
310
FF3366FF3399FF33CCFF33FFFF6600FF6633FF6666FF6699FF66CCFF66FFFF9900FF9933FF9966FF9999FF99CCFF99FFFFCC00FFCC33FFCC66FFCC99FFCCCCFFCCFFFFFF00FFFF33FFFF66FFFF99FFFFCCFFFFFF0000000D0D0D1A1A1A2828283535354343435050505D5D5D6B6B6B787878868686939393A1A1A1AEAEAEBB
310
BBBBC9C9C9D6D6D6E4E4E4F1F1F1FFFFFF000000000000000000000000000000000000000000000000000000000000B21171F6000001AB4944415478DAED9B4B92C3200C0575FFFBBEFD2C325313836CF3910D36DDAB04AA12D2094208625689F4F5D8364FECB6AE9AD7F834386DB226F4CDE6D9B6EFDAAE8AD7F81590B7B5
310
0AB0A7E17DD4B504486EDB3202823F892C9B503173F5DA2E33270EB40B48354644EB6BBBCC9C950001110294C4934905FC4F847001D93BCF29204DE110C0142008228044885418010840404810CCDA2EAEF2D4843E2FFE750B7034DE5AE7AB59FC761F22000108400002DE2F20CBFBE5B4BD5A80336275ED06F5AC44484EEA
310
A64F85E4DE0C725CC21B7A30F64001B10763DBD2E2A3B742EADD0D96EC3A8616808E07DABF1D2E59708796008F4787000420000108E8A809E6E72C7F99E7240274F84D75DE11DABB79F720011620C0B98D375122241D5784FB05146C3AC6A6BA675BA4DE1810955B8F11C03D418EC6DA059C9DBBEF568C4E7E93FE5E6E7FA6
310
D58F23A93F055458E4AF337B0B4FD9D7A1C2B7AF1F872282F61C02B29B598B095052D45C4F80E5D7FEF80510035612B0FC2A3056405B22643189900D4F84DAFF6E17B3C789CAC5DBCF06DF82010000000000000000000000000000000000000000C08BF9017BA9A79648AC4B6F0000000049454E44AE426082082184104208
310
CDAC17487BE5EC6A2749550000000049454E44AE42608210420821841042082184109A4F7FE26676E880C93EB50000000049454E44AE4260820000000049454E44AE426082
  0
ENDSEC
  0
EOF
