  0
SECTION
  2
HEADER
  9
$ACADVER
  1
AC1009
  9
$INSBASE
 10
0.0
 20
0.0
 30
0.0
  9
$EXTMIN
 10
0.0937066
 20
0.0881944
 30
0.0
  9
$EXTMAX
 10
285.0939999999999941
 20
94.6877000000000066
 30
0.0
  9
$LIMMIN
 10
0.0
 20
0.0
  9
$LIMMAX
 10
12.0
 20
9.0
  9
$ORTHOMODE
 70
     0
  9
$REGENMODE
 70
     1
  9
$FILLMODE
 70
     0
  9
$QTEXTMODE
 70
     0
  9
$MIRRTEXT
 70
     0
  9
$DRAGMODE
 70
     2
  9
$LTSCALE
 40
1.0
  9
$OSMODE
 70
    39
  9
$ATTMODE
 70
     1
  9
$TEXTSIZE
 40
0.2
  9
$TRACEWID
 40
0.05
  9
$TEXTSTYLE
  7
STANDARD
  9
$CLAYER
  8
DEFPOINTS
  9
$CELTYPE
  6
CONTINUOUS
  9
$CECOLOR
 62
   256
  9
$DIMSCALE
 40
1.0
  9
$DIMASZ
 40
0.18
  9
$DIMEXO
 40
0.0625
  9
$DIMDLI
 40
0.38
  9
$DIMRND
 40
0.0
  9
$DIMDLE
 40
0.0
  9
$DIMEXE
 40
0.18
  9
$DIMTP
 40
0.0
  9
$DIMTM
 40
0.0
  9
$DIMTXT
 40
0.18
  9
$DIMCEN
 40
0.09
  9
$DIMTSZ
 40
0.0
  9
$DIMTOL
 70
     0
  9
$DIMLIM
 70
     0
  9
$DIMTIH
 70
     1
  9
$DIMTOH
 70
     1
  9
$DIMSE1
 70
     0
  9
$DIMSE2
 70
     0
  9
$DIMTAD
 70
     0
  9
$DIMZIN
 70
     0
  9
$DIMBLK
  1

  9
$DIMASO
 70
     1
  9
$DIMSHO
 70
     1
  9
$DIMPOST
  1

  9
$DIMAPOST
  1

  9
$DIMALT
 70
     0
  9
$DIMALTD
 70
     2
  9
$DIMALTF
 40
25.3999999999999986
  9
$DIMLFAC
 40
1.0
  9
$DIMTOFL
 70
     0
  9
$DIMTVP
 40
0.0
  9
$DIMTIX
 70
     0
  9
$DIMSOXD
 70
     0
  9
$DIMSAH
 70
     0
  9
$DIMBLK1
  1

  9
$DIMBLK2
  1

  9
$DIMSTYLE
  2
STANDARD
  9
$DIMCLRD
 70
     0
  9
$DIMCLRE
 70
     0
  9
$DIMCLRT
 70
     0
  9
$DIMTFAC
 40
1.0
  9
$DIMGAP
 40
0.09
  9
$LUNITS
 70
     2
  9
$LUPREC
 70
     4
  9
$SKETCHINC
 40
0.1
  9
$FILLETRAD
 40
0.0
  9
$AUNITS
 70
     0
  9
$AUPREC
 70
     0
  9
$MENU
  1
.
  9
$ELEVATION
 40
0.0
  9
$PELEVATION
 40
0.0
  9
$THICKNESS
 40
0.0
  9
$LIMCHECK
 70
     0
  9
$BLIPMODE
 70
     0
  9
$CHAMFERA
 40
0.0
  9
$CHAMFERB
 40
0.0
  9
$SKPOLY
 70
     0
  9
$TDCREATE
 40
2457557.9079861110076308
  9
$TDUPDATE
 40
2457653.5155555559322238
  9
$TDINDWG
 40
6.4208217592999999
  9
$TDUSRTIMER
 40
6.4208217592999999
  9
$USRTIMER
 70
     1
  9
$ANGBASE
 50
0.0
  9
$ANGDIR
 70
     0
  9
$PDMODE
 70
     0
  9
$PDSIZE
 40
0.0
  9
$PLINEWID
 40
0.0
  9
$COORDS
 70
     1
  9
$SPLFRAME
 70
     1
  9
$SPLINETYPE
 70
     6
  9
$SPLINESEGS
 70
     8
  9
$ATTDIA
 70
     1
  9
$ATTREQ
 70
     1
  9
$HANDLING
 70
     1
  9
$HANDSEED
  5
98F
  9
$SURFTAB1
 70
     6
  9
$SURFTAB2
 70
     6
  9
$SURFTYPE
 70
     6
  9
$SURFU
 70
     6
  9
$SURFV
 70
     6
  9
$UCSNAME
  2

  9
$UCSORG
 10
0.0
 20
0.0
 30
0.0
  9
$UCSXDIR
 10
1.0
 20
0.0
 30
0.0
  9
$UCSYDIR
 10
0.0
 20
1.0
 30
0.0
  9
$PUCSNAME
  2

  9
$PUCSORG
 10
0.0
 20
0.0
 30
0.0
  9
$PUCSXDIR
 10
1.0
 20
0.0
 30
0.0
  9
$PUCSYDIR
 10
0.0
 20
1.0
 30
0.0
  9
$USERI1
 70
     0
  9
$USERI2
 70
     0
  9
$USERI3
 70
     0
  9
$USERI4
 70
     0
  9
$USERI5
 70
     0
  9
$USERR1
 40
0.0
  9
$USERR2
 40
0.0
  9
$USERR3
 40
0.0
  9
$USERR4
 40
0.0
  9
$USERR5
 40
0.0
  9
$WORLDVIEW
 70
     1
  9
$SHADEDGE
 70
     3
  9
$SHADEDIF
 70
    70
  9
$TILEMODE
 70
     1
  9
$MAXACTVP
 70
    64
  9
$PLIMCHECK
 70
     0
  9
$PEXTMIN
 10
1.1356666144423599
 20
0.7793333549199142
 30
0.0
  9
$PEXTMAX
 10
10.2209995299812402
 20
7.0140001942792267
 30
0.0
  9
$PLIMMIN
 10
-0.1666668268639272
 20
-0.2366666718730776
  9
$PLIMMAX
 10
11.5266658752922009
 20
8.0316668232594886
  9
$UNITMODE
 70
     0
  9
$VISRETAIN
 70
     1
  9
$PLINEGEN
 70
     0
  9
$PSLTSCALE
 70
     1
  0
ENDSEC
  0
SECTION
  2
TABLES
  0
TABLE
  2
VPORT
 70
     1
  0
VPORT
  2
*ACTIVE
 70
     0
 10
0.0
 20
0.0
 11
1.0
 21
1.0
 12
143.794693486359705
 22
27.1506265591888187
 13
0.0
 23
0.0
 14
1.0
 24
1.0
 15
0.0
 25
0.0
 16
0.0
 26
0.0
 36
1.0
 17
0.0
 27
0.0
 37
0.0
 40
150.7286934098956124
 41
2.5847619047619039
 42
50.0
 43
0.0
 44
0.0
 50
0.0
 51
0.0
 71
     0
 72
   100
 73
     1
 74
     1
 75
     0
 76
     0
 77
     0
 78
     0
  0
ENDTAB
  0
TABLE
  2
LTYPE
 70
     2
  0
LTYPE
  2
CONTINUOUS
 70
     0
  3
Solid line
 72
    65
 73
     0
 40
0.0
  0
ENDTAB
  0
TABLE
  2
LAYER
 70
     2
  0
LAYER
  2
0
 70
     0
 62
     7
  6
CONTINUOUS
  0
LAYER
  2
DEFPOINTS
 70
     0
 62
     7
  6
CONTINUOUS
  0
ENDTAB
  0
TABLE
  2
STYLE
 70
     2
  0
STYLE
  2
STANDARD
 70
     0
 40
0.0
 41
1.0
 50
0.0
 71
     0
 42
0.2
  3
txt
  4

  0
STYLE
  2
ANNOTATIVE
 70
     0
 40
0.0
 41
1.0
 50
0.0
 71
     0
 42
0.2
  3
txt
  4

  0
ENDTAB
  0
TABLE
  2
VIEW
 70
     4
  0
ENDTAB
  0
TABLE
  2
UCS
 70
     0
  0
ENDTAB
  0
TABLE
  2
APPID
 70
     7
  0
APPID
  2
ACAD
 70
     0
  0
APPID
  2
ACADANNOTATIVE
 70
     0
  0
APPID
  2
ACAD_EXEMPT_FROM_CAD_STANDARDS
 70
     0
  0
APPID
  2
ACAD_NAV_VCDISPLAY
 70
     0
  0
APPID
  2
ACAD_PSEXT
 70
     0
  0
APPID
  2
ACAD_DSTYLE_DIMRADIAL_EXTENSION
 70
     0
  0
APPID
  2
ACAD_MLEADERVER
 70
     0
  0
ENDTAB
  0
TABLE
  2
DIMSTYLE
 70
     3
  0
DIMSTYLE
  2
STANDARD
 70
     0
  3

  4

  5

  6

  7

 40
1.0
 41
0.18
 42
0.0625
 43
0.38
 44
0.18
 45
0.0
 46
0.0
 47
0.0
 48
0.0
140
0.18
141
0.09
142
0.0
143
25.3999999999999986
144
1.0
145
0.0
146
1.0
147
0.09
 71
     0
 72
     0
 73
     1
 74
     1
 75
     0
 76
     0
 77
     0
 78
     0
170
     0
171
     2
172
     0
173
     0
174
     0
175
     0
176
     0
177
     0
178
     0
  0
DIMSTYLE
  2
ANNOTATIVE
 70
     0
  3

  4

  5

  6

  7

 40
1.0
 41
0.18
 42
0.0625
 43
0.38
 44
0.18
 45
0.0
 46
0.0
 47
0.0
 48
0.0
140
0.18
141
0.09
142
0.0
143
25.3999999999999986
144
1.0
145
0.0
146
1.0
147
0.09
 71
     0
 72
     0
 73
     1
 74
     1
 75
     0
 76
     0
 77
     0
 78
     0
170
     0
171
     2
172
     0
173
     0
174
     0
175
     0
176
     0
177
     0
178
     0
  0
ENDTAB
  0
ENDSEC
  0
SECTION
  2
BLOCKS
  0
BLOCK
  8
0
  2
$MODEL_SPACE
 70
     0
 10
0.0
 20
0.0
 30
0.0
  3
$MODEL_SPACE
  1

  0
ENDBLK
  5
71
  8
0
  0
BLOCK
 67
     1
  8
0
  2
$PAPER_SPACE
 70
     0
 10
0.0
 20
0.0
 30
0.0
  3
$PAPER_SPACE
  1

  0
ENDBLK
  5
6D
 67
     1
  8
0
  0
BLOCK
  8
0
  2
A$C65DF7F0A
 70
     0
 10
0.0
 20
0.0
 30
0.0
  3
A$C65DF7F0A
  1

  0
CIRCLE
  5
453
  8
0
  6
CONTINUOUS
 10
7.3750006263106789
 20
3.1249996482914741
 30
0.0
 40
3.125
  0
LINE
  5
454
  8
0
  6
CONTINUOUS
 10
2.5000006263107362
 20
4.3749996482914719
 30
0.0
 11
0.0000006263107366
 21
4.3749996482914719
 31
0.0
  0
LINE
  5
455
  8
0
  6
CONTINUOUS
 10
0.0000006263107366
 20
4.3749996482914719
 30
0.0
 11
0.0000006263107366
 21
1.8749996482914739
 31
0.0
  0
LINE
  5
456
  8
0
  6
CONTINUOUS
 10
0.0000006263107366
 20
1.8749996482914739
 30
0.0
 11
2.5000006263107362
 21
1.8749996482914739
 31
0.0
  0
LINE
  5
457
  8
0
  6
CONTINUOUS
 10
12.2500006263106798
 20
4.3749996482914719
 30
0.0
 11
14.7500006263107899
 21
4.3749996482914719
 31
0.0
  0
LINE
  5
458
  8
0
  6
CONTINUOUS
 10
14.7500006263107899
 20
4.3749996482914719
 30
0.0
 11
14.7500006263107899
 21
1.8749996482914739
 31
0.0
  0
LINE
  5
459
  8
0
  6
CONTINUOUS
 10
14.7500006263107899
 20
1.8749996482914739
 30
0.0
 11
12.2500006263106798
 21
1.8749996482914739
 31
0.0
  0
LINE
  5
45A
  8
0
  6
CONTINUOUS
 10
2.5000006263107362
 20
4.3749996482914719
 30
0.0
 11
2.5000006263107362
 21
1.8749996482914739
 31
0.0
  0
LINE
  5
45B
  8
0
  6
CONTINUOUS
 10
12.2500006263106798
 20
4.3749996482914719
 30
0.0
 11
12.2500006263106798
 21
1.8749996482914739
 31
0.0
  0
ENDBLK
  5
45D
  8
0
  0
BLOCK
  8
0
  2
A$C44CB54CB
 70
     0
 10
0.0
 20
0.0
 30
0.0
  3
A$C44CB54CB
  1

  0
CIRCLE
  5
45F
  8
0
  6
CONTINUOUS
 10
7.3750006263106789
 20
3.1249996482914741
 30
0.0
 40
3.125
  0
LINE
  5
460
  8
0
  6
CONTINUOUS
 10
2.5000006263107362
 20
4.3749996482914719
 30
0.0
 11
0.0000006263107366
 21
4.3749996482914719
 31
0.0
  0
LINE
  5
461
  8
0
  6
CONTINUOUS
 10
0.0000006263107366
 20
4.3749996482914719
 30
0.0
 11
0.0000006263107366
 21
1.8749996482914739
 31
0.0
  0
LINE
  5
462
  8
0
  6
CONTINUOUS
 10
0.0000006263107366
 20
1.8749996482914739
 30
0.0
 11
2.5000006263107362
 21
1.8749996482914739
 31
0.0
  0
LINE
  5
463
  8
0
  6
CONTINUOUS
 10
12.2500006263106798
 20
4.3749996482914719
 30
0.0
 11
14.7500006263107899
 21
4.3749996482914719
 31
0.0
  0
LINE
  5
464
  8
0
  6
CONTINUOUS
 10
14.7500006263107899
 20
4.3749996482914719
 30
0.0
 11
14.7500006263107899
 21
1.8749996482914739
 31
0.0
  0
LINE
  5
465
  8
0
  6
CONTINUOUS
 10
14.7500006263107899
 20
1.8749996482914739
 30
0.0
 11
12.2500006263106798
 21
1.8749996482914739
 31
0.0
  0
LINE
  5
466
  8
0
  6
CONTINUOUS
 10
2.5000006263107362
 20
4.3749996482914719
 30
0.0
 11
2.5000006263107362
 21
1.8749996482914739
 31
0.0
  0
LINE
  5
467
  8
0
  6
CONTINUOUS
 10
12.2500006263106798
 20
4.3749996482914719
 30
0.0
 11
12.2500006263106798
 21
1.8749996482914739
 31
0.0
  0
ENDBLK
  5
469
  8
0
  0
ENDSEC
  0
SECTION
  2
ENTITIES
  0
LINE
  5
75
  8
0
 62
     0
 10
5.7202199999999994
 20
19.252600000000001
 30
0.0
 11
5.7202199999999994
 21
24.4643000000000015
 31
0.0
  0
LINE
  5
76
  8
0
 62
     0
 10
5.7202199999999994
 20
24.4643000000000015
 30
0.0
 11
8.38673
 21
24.4643000000000015
 31
0.0
  0
LINE
  5
77
  8
0
 62
     0
 10
8.38673
 20
24.4643000000000015
 30
0.0
 11
8.38673
 21
19.2580999999999989
 31
0.0
  0
LINE
  5
78
  8
0
 62
     0
 10
8.38673
 20
19.2580999999999989
 30
0.0
 11
5.7202199999999994
 21
19.252600000000001
 31
0.0
  0
LINE
  5
79
  8
0
 62
     0
 10
1.44418
 20
91.8876999999999953
 30
0.0
 11
17.0436000000000014
 21
91.8876999999999953
 31
0.0
  0
LINE
  5
7A
  8
0
 62
     0
 10
17.0436000000000014
 20
91.8876999999999953
 30
0.0
 11
17.0436000000000014
 21
79.0884999999999962
 31
0.0
  0
LINE
  5
7B
  8
0
 62
     0
 10
17.0436000000000014
 20
79.0884999999999962
 30
0.0
 11
1.44418
 21
79.0884999999999962
 31
0.0
  0
LINE
  5
7C
  8
0
 62
     0
 10
1.44418
 20
79.0884999999999962
 30
0.0
 11
1.44418
 21
91.8876999999999953
 31
0.0
  0
LINE
  5
7D
  8
0
 62
     0
 10
6.2066999999999988
 20
72.8376999999999981
 30
0.0
 11
21.8061000000000007
 21
72.8376999999999981
 31
0.0
  0
LINE
  5
7E
  8
0
 62
     0
 10
21.8061000000000007
 20
72.8376999999999981
 30
0.0
 11
21.8061000000000007
 21
60.038499999999992
 31
0.0
  0
LINE
  5
7F
  8
0
 62
     0
 10
21.8061000000000007
 20
60.038499999999992
 30
0.0
 11
6.2066999999999988
 21
60.038499999999992
 31
0.0
  0
LINE
  5
80
  8
0
 62
     0
 10
6.2066999999999988
 20
60.038499999999992
 30
0.0
 11
6.2066999999999988
 21
72.8376999999999981
 31
0.0
  0
LINE
  5
81
  8
0
 62
     0
 10
6.2066999999999988
 20
15.6875999999999998
 30
0.0
 11
21.8061000000000007
 21
15.6875999999999998
 31
0.0
  0
LINE
  5
82
  8
0
 62
     0
 10
21.8061000000000007
 20
15.6875999999999998
 30
0.0
 11
21.8061000000000007
 21
2.8883700000000001
 31
0.0
  0
LINE
  5
83
  8
0
 62
     0
 10
21.8061000000000007
 20
2.8883700000000001
 30
0.0
 11
6.2066999999999988
 21
2.8883700000000001
 31
0.0
  0
LINE
  5
84
  8
0
 62
     0
 10
6.2066999999999988
 20
2.8883700000000001
 30
0.0
 11
6.2066999999999988
 21
15.6875999999999998
 31
0.0
  0
LINE
  5
9D
  8
0
 62
     0
 10
13.3505000000000003
 20
34.7376000000000005
 30
0.0
 11
28.9497999999999998
 21
34.7376000000000005
 31
0.0
  0
LINE
  5
9E
  8
0
 62
     0
 10
28.9497999999999998
 20
34.7376000000000005
 30
0.0
 11
28.9497999999999998
 21
21.9384000000000015
 31
0.0
  0
LINE
  5
9F
  8
0
 62
     0
 10
28.9497999999999998
 20
21.9384000000000015
 30
0.0
 11
13.3505000000000003
 21
21.9384000000000015
 31
0.0
  0
LINE
  5
A0
  8
0
 62
     0
 10
13.3505000000000003
 20
21.9384000000000015
 30
0.0
 11
13.3505000000000003
 21
34.7376000000000005
 31
0.0
  0
LINE
  5
A5
  8
0
 62
     0
 10
20.4941999999999993
 20
91.8876999999999953
 30
0.0
 11
36.0938000000000017
 21
91.8876999999999953
 31
0.0
  0
LINE
  5
A6
  8
0
 62
     0
 10
36.0938000000000017
 20
91.8876999999999953
 30
0.0
 11
36.0938000000000017
 21
79.0884999999999962
 31
0.0
  0
LINE
  5
A7
  8
0
 62
     0
 10
36.0938000000000017
 20
79.0884999999999962
 30
0.0
 11
20.4941999999999993
 21
79.0884999999999962
 31
0.0
  0
LINE
  5
A8
  8
0
 62
     0
 10
20.4941999999999993
 20
79.0884999999999962
 30
0.0
 11
20.4941999999999993
 21
91.8876999999999953
 31
0.0
  0
LINE
  5
A9
  8
0
 62
     0
 10
33.9121000000000024
 20
24.4643000000000015
 30
0.0
 11
36.5788000000000011
 21
24.4643000000000015
 31
0.0
  0
LINE
  5
AA
  8
0
 62
     0
 10
36.5788000000000011
 20
24.4643000000000015
 30
0.0
 11
36.5788000000000011
 21
19.2580999999999989
 31
0.0
  0
LINE
  5
AB
  8
0
 62
     0
 10
36.5788000000000011
 20
19.2580999999999989
 30
0.0
 11
33.9121000000000024
 21
19.2580999999999989
 31
0.0
  0
LINE
  5
AC
  8
0
 62
     0
 10
33.9121000000000024
 20
19.2580999999999989
 30
0.0
 11
33.9121000000000024
 21
24.4643000000000015
 31
0.0
  0
LINE
  5
AD
  8
0
 62
     0
 10
30.0192000000000014
 20
72.8376999999999981
 30
0.0
 11
45.6188000000000002
 21
72.8376999999999981
 31
0.0
  0
LINE
  5
AE
  8
0
 62
     0
 10
45.6188000000000002
 20
72.8376999999999981
 30
0.0
 11
45.6188000000000002
 21
60.038499999999992
 31
0.0
  0
LINE
  5
AF
  8
0
 62
     0
 10
45.6188000000000002
 20
60.038499999999992
 30
0.0
 11
30.0192000000000014
 21
60.038499999999992
 31
0.0
  0
LINE
  5
B0
  8
0
 62
     0
 10
30.0192000000000014
 20
60.038499999999992
 30
0.0
 11
30.0192000000000014
 21
72.8376999999999981
 31
0.0
  0
LINE
  5
B1
  8
0
 62
     0
 10
30.0192000000000014
 20
15.6875999999999998
 30
0.0
 11
45.6188000000000002
 21
15.6875999999999998
 31
0.0
  0
LINE
  5
B2
  8
0
 62
     0
 10
45.6188000000000002
 20
15.6875999999999998
 30
0.0
 11
45.6188000000000002
 21
2.8883700000000001
 31
0.0
  0
LINE
  5
B3
  8
0
 62
     0
 10
45.6188000000000002
 20
2.8883700000000001
 30
0.0
 11
30.0192000000000014
 21
2.8883700000000001
 31
0.0
  0
LINE
  5
B4
  8
0
 62
     0
 10
30.0192000000000014
 20
2.8883700000000001
 30
0.0
 11
30.0192000000000014
 21
15.6875999999999998
 31
0.0
  0
LINE
  5
B5
  8
0
 62
     0
 10
34.7817000000000007
 20
53.787700000000001
 30
0.0
 11
50.3813000000000031
 21
53.787700000000001
 31
0.0
  0
LINE
  5
B6
  8
0
 62
     0
 10
50.3813000000000031
 20
53.787700000000001
 30
0.0
 11
50.3813000000000031
 21
40.9885000000000019
 31
0.0
  0
LINE
  5
B7
  8
0
 62
     0
 10
50.3813000000000031
 20
40.9885000000000019
 30
0.0
 11
34.7817000000000007
 21
40.9885000000000019
 31
0.0
  0
LINE
  5
B8
  8
0
 62
     0
 10
34.7817000000000007
 20
40.9885000000000019
 30
0.0
 11
34.7817000000000007
 21
53.787700000000001
 31
0.0
  0
LINE
  5
B9
  8
0
 62
     0
 10
39.5442999999999998
 20
91.8876999999999953
 30
0.0
 11
55.1437999999999988
 21
91.8876999999999953
 31
0.0
  0
LINE
  5
BA
  8
0
 62
     0
 10
55.1437999999999988
 20
91.8876999999999953
 30
0.0
 11
55.1437999999999988
 21
79.0884999999999962
 31
0.0
  0
LINE
  5
BB
  8
0
 62
     0
 10
55.1437999999999988
 20
79.0884999999999962
 30
0.0
 11
39.5442999999999998
 21
79.0884999999999962
 31
0.0
  0
LINE
  5
BC
  8
0
 62
     0
 10
39.5442999999999998
 20
79.0884999999999962
 30
0.0
 11
39.5442999999999998
 21
91.8876999999999953
 31
0.0
  0
LINE
  5
BD
  8
0
 62
     0
 10
44.3068000000000026
 20
34.7376000000000005
 30
0.0
 11
59.9063000000000017
 21
34.7376000000000005
 31
0.0
  0
LINE
  5
BE
  8
0
 62
     0
 10
59.9063000000000017
 20
34.7376000000000005
 30
0.0
 11
59.9063000000000017
 21
21.9384000000000015
 31
0.0
  0
LINE
  5
BF
  8
0
 62
     0
 10
59.9063000000000017
 20
21.9384000000000015
 30
0.0
 11
44.3068000000000026
 21
21.9384000000000015
 31
0.0
  0
LINE
  5
C0
  8
0
 62
     0
 10
44.3068000000000026
 20
21.9384000000000015
 30
0.0
 11
44.3068000000000026
 21
34.7376000000000005
 31
0.0
  0
LINE
  5
C1
  8
0
 62
     0
 10
49.0692999999999984
 20
72.8376999999999981
 30
0.0
 11
64.6688000000000045
 21
72.8376999999999981
 31
0.0
  0
LINE
  5
C2
  8
0
 62
     0
 10
64.6688000000000045
 20
72.8376999999999981
 30
0.0
 11
64.6688000000000045
 21
60.038499999999992
 31
0.0
  0
LINE
  5
C3
  8
0
 62
     0
 10
64.6688000000000045
 20
60.038499999999992
 30
0.0
 11
49.0692999999999984
 21
60.038499999999992
 31
0.0
  0
LINE
  5
C4
  8
0
 62
     0
 10
49.0692999999999984
 20
60.038499999999992
 30
0.0
 11
49.0692999999999984
 21
72.8376999999999981
 31
0.0
  0
LINE
  5
C5
  8
0
 62
     0
 10
53.8303999999999974
 20
53.787700000000001
 30
0.0
 11
69.4312999999999931
 21
53.787700000000001
 31
0.0
  0
LINE
  5
C6
  8
0
 62
     0
 10
69.4312999999999931
 20
53.787700000000001
 30
0.0
 11
69.4312999999999931
 21
40.9885000000000019
 31
0.0
  0
LINE
  5
C7
  8
0
 62
     0
 10
69.4312999999999931
 20
40.9885000000000019
 30
0.0
 11
53.8303999999999974
 21
40.9885000000000019
 31
0.0
  0
LINE
  5
C8
  8
0
 62
     0
 10
53.8303999999999974
 20
40.9885000000000019
 30
0.0
 11
53.8303999999999974
 21
53.787700000000001
 31
0.0
  0
LINE
  5
C9
  8
0
 62
     0
 10
53.8303999999999974
 20
15.6875999999999998
 30
0.0
 11
69.4312999999999931
 21
15.6875999999999998
 31
0.0
  0
LINE
  5
CA
  8
0
 62
     0
 10
69.4312999999999931
 20
15.6875999999999998
 30
0.0
 11
69.4312999999999931
 21
2.8883700000000001
 31
0.0
  0
LINE
  5
CB
  8
0
 62
     0
 10
69.4312999999999931
 20
2.8883700000000001
 30
0.0
 11
53.8303999999999974
 21
2.8883700000000001
 31
0.0
  0
LINE
  5
CC
  8
0
 62
     0
 10
53.8303999999999974
 20
2.8883700000000001
 30
0.0
 11
53.8303999999999974
 21
15.6875999999999998
 31
0.0
  0
LINE
  5
CD
  8
0
 62
     0
 10
58.5942999999999898
 20
91.8876999999999953
 30
0.0
 11
74.193799999999996
 21
91.8876999999999953
 31
0.0
  0
LINE
  5
CE
  8
0
 62
     0
 10
74.193799999999996
 20
91.8876999999999953
 30
0.0
 11
74.193799999999996
 21
79.0884999999999962
 31
0.0
  0
LINE
  5
CF
  8
0
 62
     0
 10
74.193799999999996
 20
79.0884999999999962
 30
0.0
 11
58.5942999999999898
 21
79.0884999999999962
 31
0.0
  0
LINE
  5
D0
  8
0
 62
     0
 10
58.5942999999999898
 20
79.0884999999999962
 30
0.0
 11
58.5942999999999898
 21
91.8876999999999953
 31
0.0
  0
LINE
  5
D1
  8
0
 62
     0
 10
63.3567999999999927
 20
34.7376000000000005
 30
0.0
 11
78.9562999999999988
 21
34.7376000000000005
 31
0.0
  0
LINE
  5
D2
  8
0
 62
     0
 10
78.9562999999999988
 20
34.7376000000000005
 30
0.0
 11
78.9562999999999988
 21
21.9384000000000015
 31
0.0
  0
LINE
  5
D3
  8
0
 62
     0
 10
78.9562999999999988
 20
21.9384000000000015
 30
0.0
 11
63.3567999999999927
 21
21.9384000000000015
 31
0.0
  0
LINE
  5
D4
  8
0
 62
     0
 10
63.3567999999999927
 20
21.9384000000000015
 30
0.0
 11
63.3567999999999927
 21
34.7376000000000005
 31
0.0
  0
LINE
  5
D5
  8
0
 62
     0
 10
68.1192999999999955
 20
72.8376999999999981
 30
0.0
 11
83.7188000000000017
 21
72.8376999999999981
 31
0.0
  0
LINE
  5
D6
  8
0
 62
     0
 10
83.7188000000000017
 20
72.8376999999999981
 30
0.0
 11
83.7188000000000017
 21
60.038499999999992
 31
0.0
  0
LINE
  5
D7
  8
0
 62
     0
 10
83.7188000000000017
 20
60.038499999999992
 30
0.0
 11
68.1192999999999955
 21
60.038499999999992
 31
0.0
  0
LINE
  5
D8
  8
0
 62
     0
 10
68.1192999999999955
 20
60.038499999999992
 30
0.0
 11
68.1192999999999955
 21
72.8376999999999981
 31
0.0
  0
LINE
  5
DD
  8
0
 62
     0
 10
72.8803999999999945
 20
53.787700000000001
 30
0.0
 11
88.4813000000000045
 21
53.787700000000001
 31
0.0
  0
LINE
  5
DE
  8
0
 62
     0
 10
88.4813000000000045
 20
53.787700000000001
 30
0.0
 11
88.4813000000000045
 21
40.9885000000000019
 31
0.0
  0
LINE
  5
DF
  8
0
 62
     0
 10
88.4813000000000045
 20
40.9885000000000019
 30
0.0
 11
72.8803999999999945
 21
40.9885000000000019
 31
0.0
  0
LINE
  5
E0
  8
0
 62
     0
 10
72.8803999999999945
 20
40.9885000000000019
 30
0.0
 11
72.8803999999999945
 21
53.787700000000001
 31
0.0
  0
LINE
  5
E1
  8
0
 62
     0
 10
77.6443000000000012
 20
91.8876999999999953
 30
0.0
 11
93.243700000000004
 21
91.8876999999999953
 31
0.0
  0
LINE
  5
E2
  8
0
 62
     0
 10
93.243700000000004
 20
91.8876999999999953
 30
0.0
 11
93.243700000000004
 21
79.0884999999999962
 31
0.0
  0
LINE
  5
E3
  8
0
 62
     0
 10
93.243700000000004
 20
79.0884999999999962
 30
0.0
 11
77.6443000000000012
 21
79.0884999999999962
 31
0.0
  0
LINE
  5
E4
  8
0
 62
     0
 10
77.6443000000000012
 20
79.0884999999999962
 30
0.0
 11
77.6443000000000012
 21
91.8876999999999953
 31
0.0
  0
LINE
  5
E5
  8
0
 62
     0
 10
82.4054000000000144
 20
34.7376000000000005
 30
0.0
 11
98.0062000000000211
 21
34.7376000000000005
 31
0.0
  0
LINE
  5
E6
  8
0
 62
     0
 10
98.0062000000000211
 20
34.7376000000000005
 30
0.0
 11
98.0062000000000211
 21
21.9384000000000015
 31
0.0
  0
LINE
  5
E7
  8
0
 62
     0
 10
98.0062000000000211
 20
21.9384000000000015
 30
0.0
 11
82.4054000000000144
 21
21.9384000000000015
 31
0.0
  0
LINE
  5
E8
  8
0
 62
     0
 10
82.4054000000000144
 20
21.9384000000000015
 30
0.0
 11
82.4054000000000144
 21
34.7376000000000005
 31
0.0
  0
LINE
  5
E9
  8
0
 62
     0
 10
87.1693000000000069
 20
72.8376999999999981
 30
0.0
 11
102.7690000000000055
 21
72.8376999999999981
 31
0.0
  0
LINE
  5
EA
  8
0
 62
     0
 10
102.7690000000000055
 20
72.8376999999999981
 30
0.0
 11
102.7690000000000055
 21
60.038499999999992
 31
0.0
  0
LINE
  5
EB
  8
0
 62
     0
 10
102.7690000000000055
 20
60.038499999999992
 30
0.0
 11
87.1693000000000069
 21
60.038499999999992
 31
0.0
  0
LINE
  5
EC
  8
0
 62
     0
 10
87.1693000000000069
 20
60.038499999999992
 30
0.0
 11
87.1693000000000069
 21
72.8376999999999981
 31
0.0
  0
LINE
  5
ED
  8
0
 62
     0
 10
91.9304000000000059
 20
53.787700000000001
 30
0.0
 11
107.5310000000000059
 21
53.787700000000001
 31
0.0
  0
LINE
  5
EE
  8
0
 62
     0
 10
107.5310000000000059
 20
53.787700000000001
 30
0.0
 11
107.5310000000000059
 21
40.9885000000000019
 31
0.0
  0
LINE
  5
EF
  8
0
 62
     0
 10
107.5310000000000059
 20
40.9885000000000019
 30
0.0
 11
91.9304000000000059
 21
40.9885000000000019
 31
0.0
  0
LINE
  5
F0
  8
0
 62
     0
 10
91.9304000000000059
 20
40.9885000000000019
 30
0.0
 11
91.9304000000000059
 21
53.787700000000001
 31
0.0
  0
LINE
  5
F1
  8
0
 62
     0
 10
96.6942999999999984
 20
91.8876999999999953
 30
0.0
 11
112.2939999999999969
 21
91.8876999999999953
 31
0.0
  0
LINE
  5
F2
  8
0
 62
     0
 10
112.2939999999999969
 20
91.8876999999999953
 30
0.0
 11
112.2939999999999969
 21
79.0884999999999962
 31
0.0
  0
LINE
  5
F3
  8
0
 62
     0
 10
112.2939999999999969
 20
79.0884999999999962
 30
0.0
 11
96.6942999999999984
 21
79.0884999999999962
 31
0.0
  0
LINE
  5
F4
  8
0
 62
     0
 10
96.6942999999999984
 20
79.0884999999999962
 30
0.0
 11
96.6942999999999984
 21
91.8876999999999953
 31
0.0
  0
LINE
  5
F5
  8
0
 62
     0
 10
101.4549999999999983
 20
34.7376000000000005
 30
0.0
 11
117.0559999999999974
 21
34.7376000000000005
 31
0.0
  0
LINE
  5
F6
  8
0
 62
     0
 10
117.0559999999999974
 20
34.7376000000000005
 30
0.0
 11
117.0559999999999974
 21
21.9384000000000015
 31
0.0
  0
LINE
  5
F7
  8
0
 62
     0
 10
117.0559999999999974
 20
21.9384000000000015
 30
0.0
 11
101.4549999999999983
 21
21.9384000000000015
 31
0.0
  0
LINE
  5
F8
  8
0
 62
     0
 10
101.4549999999999983
 20
21.9384000000000015
 30
0.0
 11
101.4549999999999983
 21
34.7376000000000005
 31
0.0
  0
LINE
  5
F9
  8
0
 62
     0
 10
106.2189999999999941
 20
72.8376999999999981
 30
0.0
 11
121.8190000000000026
 21
72.8376999999999981
 31
0.0
  0
LINE
  5
FA
  8
0
 62
     0
 10
121.8190000000000026
 20
72.8376999999999981
 30
0.0
 11
121.8190000000000026
 21
60.038499999999992
 31
0.0
  0
LINE
  5
FB
  8
0
 62
     0
 10
121.8190000000000026
 20
60.038499999999992
 30
0.0
 11
106.2189999999999941
 21
60.038499999999992
 31
0.0
  0
LINE
  5
FC
  8
0
 62
     0
 10
106.2189999999999941
 20
60.038499999999992
 30
0.0
 11
106.2189999999999941
 21
72.8376999999999981
 31
0.0
  0
LINE
  5
FD
  8
0
 62
     0
 10
115.7439999999999998
 20
91.8876999999999953
 30
0.0
 11
131.3439999999999941
 21
91.8876999999999953
 31
0.0
  0
LINE
  5
FE
  8
0
 62
     0
 10
131.3439999999999941
 20
91.8876999999999953
 30
0.0
 11
131.3439999999999941
 21
79.0884999999999962
 31
0.0
  0
LINE
  5
FF
  8
0
 62
     0
 10
131.3439999999999941
 20
79.0884999999999962
 30
0.0
 11
115.7439999999999998
 21
79.0884999999999962
 31
0.0
  0
LINE
  5
100
  8
0
 62
     0
 10
115.7439999999999998
 20
79.0884999999999962
 30
0.0
 11
115.7439999999999998
 21
91.8876999999999953
 31
0.0
  0
LINE
  5
101
  8
0
 62
     0
 10
120.507000000000005
 20
34.7376000000000005
 30
0.0
 11
136.1059999999999945
 21
34.7376000000000005
 31
0.0
  0
LINE
  5
102
  8
0
 62
     0
 10
136.1059999999999945
 20
34.7376000000000005
 30
0.0
 11
136.1059999999999945
 21
21.9384000000000015
 31
0.0
  0
LINE
  5
103
  8
0
 62
     0
 10
136.1059999999999945
 20
21.9384000000000015
 30
0.0
 11
120.507000000000005
 21
21.9384000000000015
 31
0.0
  0
LINE
  5
104
  8
0
 62
     0
 10
120.507000000000005
 20
21.9384000000000015
 30
0.0
 11
120.507000000000005
 21
34.7376000000000005
 31
0.0
  0
LINE
  5
105
  8
0
 62
     0
 10
125.2690000000000055
 20
72.8376999999999981
 30
0.0
 11
140.8689999999999998
 21
72.8376999999999981
 31
0.0
  0
LINE
  5
106
  8
0
 62
     0
 10
140.8689999999999998
 20
72.8376999999999981
 30
0.0
 11
140.8689999999999998
 21
60.038499999999992
 31
0.0
  0
LINE
  5
107
  8
0
 62
     0
 10
140.8689999999999998
 20
60.038499999999992
 30
0.0
 11
125.2690000000000055
 21
60.038499999999992
 31
0.0
  0
LINE
  5
108
  8
0
 62
     0
 10
125.2690000000000055
 20
60.038499999999992
 30
0.0
 11
125.2690000000000055
 21
72.8376999999999981
 31
0.0
  0
LINE
  5
111
  8
0
 62
     0
 10
126.5810000000000031
 20
40.9885000000000019
 30
0.0
 11
110.980000000000004
 21
40.9885000000000019
 31
0.0
  0
LINE
  5
112
  8
0
 62
     0
 10
110.980000000000004
 20
40.9885000000000019
 30
0.0
 11
110.980000000000004
 21
53.787700000000001
 31
0.0
  0
LINE
  5
113
  8
0
 62
     0
 10
110.980000000000004
 20
53.787700000000001
 30
0.0
 11
126.5810000000000031
 21
53.787700000000001
 31
0.0
  0
LINE
  5
11C
  8
0
 62
     0
 10
130.0300000000000011
 20
53.787700000000001
 30
0.0
 11
145.6310000000000002
 21
53.787700000000001
 31
0.0
  0
LINE
  5
11D
  8
0
 62
     0
 10
145.6310000000000002
 20
53.787700000000001
 30
0.0
 11
145.6310000000000002
 21
40.9885000000000019
 31
0.0
  0
LINE
  5
11E
  8
0
 62
     0
 10
145.6310000000000002
 20
40.9885000000000019
 30
0.0
 11
130.0300000000000011
 21
40.9885000000000019
 31
0.0
  0
LINE
  5
11F
  8
0
 62
     0
 10
134.7940000000000111
 20
91.8876999999999953
 30
0.0
 11
150.3940000000000055
 21
91.8876999999999953
 31
0.0
  0
LINE
  5
120
  8
0
 62
     0
 10
150.3940000000000055
 20
91.8876999999999953
 30
0.0
 11
150.3940000000000055
 21
79.0884999999999962
 31
0.0
  0
LINE
  5
121
  8
0
 62
     0
 10
150.3940000000000055
 20
79.0884999999999962
 30
0.0
 11
134.7940000000000111
 21
79.0884999999999962
 31
0.0
  0
LINE
  5
122
  8
0
 62
     0
 10
134.7940000000000111
 20
79.0884999999999962
 30
0.0
 11
134.7940000000000111
 21
91.8876999999999953
 31
0.0
  0
LINE
  5
123
  8
0
 62
     0
 10
134.7940000000000111
 20
15.6875999999999998
 30
0.0
 11
150.3940000000000055
 21
15.6875999999999998
 31
0.0
  0
LINE
  5
124
  8
0
 62
     0
 10
150.3940000000000055
 20
15.6875999999999998
 30
0.0
 11
150.3940000000000055
 21
2.8883700000000001
 31
0.0
  0
LINE
  5
125
  8
0
 62
     0
 10
150.3940000000000055
 20
2.8883700000000001
 30
0.0
 11
134.7940000000000111
 21
2.8883700000000001
 31
0.0
  0
LINE
  5
126
  8
0
 62
     0
 10
134.7940000000000111
 20
2.8883700000000001
 30
0.0
 11
134.7940000000000111
 21
15.6875999999999998
 31
0.0
  0
LINE
  5
127
  8
0
 62
     0
 10
139.5569999999999879
 20
34.7376000000000005
 30
0.0
 11
155.1560000000000059
 21
34.7376000000000005
 31
0.0
  0
LINE
  5
128
  8
0
 62
     0
 10
155.1560000000000059
 20
34.7376000000000005
 30
0.0
 11
155.1560000000000059
 21
21.9384000000000015
 31
0.0
  0
LINE
  5
129
  8
0
 62
     0
 10
155.1560000000000059
 20
21.9384000000000015
 30
0.0
 11
139.5569999999999879
 21
21.9384000000000015
 31
0.0
  0
LINE
  5
12A
  8
0
 62
     0
 10
139.5569999999999879
 20
21.9384000000000015
 30
0.0
 11
139.5569999999999879
 21
34.7376000000000005
 31
0.0
  0
LINE
  5
12B
  8
0
 62
     0
 10
144.3189999999999884
 20
72.8376999999999981
 30
0.0
 11
159.9190000000000111
 21
72.8376999999999981
 31
0.0
  0
LINE
  5
12C
  8
0
 62
     0
 10
159.9190000000000111
 20
72.8376999999999981
 30
0.0
 11
159.9190000000000111
 21
60.038499999999992
 31
0.0
  0
LINE
  5
12D
  8
0
 62
     0
 10
159.9190000000000111
 20
60.038499999999992
 30
0.0
 11
144.3189999999999884
 21
60.038499999999992
 31
0.0
  0
LINE
  5
12E
  8
0
 62
     0
 10
144.3189999999999884
 20
60.038499999999992
 30
0.0
 11
144.3189999999999884
 21
72.8376999999999981
 31
0.0
  0
LINE
  5
12F
  8
0
 62
     0
 10
149.0800000000000125
 20
53.787700000000001
 30
0.0
 11
164.6810000000000116
 21
53.787700000000001
 31
0.0
  0
LINE
  5
130
  8
0
 62
     0
 10
164.6810000000000116
 20
53.787700000000001
 30
0.0
 11
164.6810000000000116
 21
40.9885000000000019
 31
0.0
  0
LINE
  5
131
  8
0
 62
     0
 10
164.6810000000000116
 20
40.9885000000000019
 30
0.0
 11
149.0800000000000125
 21
40.9885000000000019
 31
0.0
  0
LINE
  5
132
  8
0
 62
     0
 10
149.0800000000000125
 20
40.9885000000000019
 30
0.0
 11
149.0800000000000125
 21
53.787700000000001
 31
0.0
  0
LINE
  5
133
  8
0
 62
     0
 10
153.8439999999999941
 20
91.8876999999999953
 30
0.0
 11
169.4439999999999884
 21
91.8876999999999953
 31
0.0
  0
LINE
  5
134
  8
0
 62
     0
 10
169.4439999999999884
 20
91.8876999999999953
 30
0.0
 11
169.4439999999999884
 21
79.0884999999999962
 31
0.0
  0
LINE
  5
135
  8
0
 62
     0
 10
169.4439999999999884
 20
79.0884999999999962
 30
0.0
 11
153.8439999999999941
 21
79.0884999999999962
 31
0.0
  0
LINE
  5
136
  8
0
 62
     0
 10
153.8439999999999941
 20
79.0884999999999962
 30
0.0
 11
153.8439999999999941
 21
91.8876999999999953
 31
0.0
  0
LINE
  5
137
  8
0
 62
     0
 10
158.6069999999999993
 20
34.7376000000000005
 30
0.0
 11
174.2059999999999889
 21
34.7376000000000005
 31
0.0
  0
LINE
  5
138
  8
0
 62
     0
 10
174.2059999999999889
 20
34.7376000000000005
 30
0.0
 11
174.2059999999999889
 21
21.9384000000000015
 31
0.0
  0
LINE
  5
139
  8
0
 62
     0
 10
174.2059999999999889
 20
21.9384000000000015
 30
0.0
 11
158.6069999999999993
 21
21.9384000000000015
 31
0.0
  0
LINE
  5
13A
  8
0
 62
     0
 10
158.6069999999999993
 20
21.9384000000000015
 30
0.0
 11
158.6069999999999993
 21
34.7376000000000005
 31
0.0
  0
LINE
  5
13B
  8
0
 62
     0
 10
163.3689999999999998
 20
72.8376999999999981
 30
0.0
 11
178.9689999999999941
 21
72.8376999999999981
 31
0.0
  0
LINE
  5
13C
  8
0
 62
     0
 10
178.9689999999999941
 20
72.8376999999999981
 30
0.0
 11
178.9689999999999941
 21
60.038499999999992
 31
0.0
  0
LINE
  5
13D
  8
0
 62
     0
 10
178.9689999999999941
 20
60.038499999999992
 30
0.0
 11
163.3689999999999998
 21
60.038499999999992
 31
0.0
  0
LINE
  5
13E
  8
0
 62
     0
 10
163.3689999999999998
 20
60.038499999999992
 30
0.0
 11
163.3689999999999998
 21
72.8376999999999981
 31
0.0
  0
LINE
  5
13F
  8
0
 62
     0
 10
168.1299999999999955
 20
53.787700000000001
 30
0.0
 11
183.7309999999999945
 21
53.787700000000001
 31
0.0
  0
LINE
  5
140
  8
0
 62
     0
 10
183.7309999999999945
 20
53.787700000000001
 30
0.0
 11
183.7309999999999945
 21
40.9885000000000019
 31
0.0
  0
LINE
  5
141
  8
0
 62
     0
 10
183.7309999999999945
 20
40.9885000000000019
 30
0.0
 11
168.1299999999999955
 21
40.9885000000000019
 31
0.0
  0
LINE
  5
142
  8
0
 62
     0
 10
168.1299999999999955
 20
40.9885000000000019
 30
0.0
 11
168.1299999999999955
 21
53.787700000000001
 31
0.0
  0
LINE
  5
143
  8
0
 62
     0
 10
172.8940000000000055
 20
91.8876999999999953
 30
0.0
 11
188.4939999999999998
 21
91.8876999999999953
 31
0.0
  0
LINE
  5
144
  8
0
 62
     0
 10
188.4939999999999998
 20
91.8876999999999953
 30
0.0
 11
188.4939999999999998
 21
79.0884999999999962
 31
0.0
  0
LINE
  5
145
  8
0
 62
     0
 10
188.4939999999999998
 20
79.0884999999999962
 30
0.0
 11
172.8940000000000055
 21
79.0884999999999962
 31
0.0
  0
LINE
  5
146
  8
0
 62
     0
 10
172.8940000000000055
 20
79.0884999999999962
 30
0.0
 11
172.8940000000000055
 21
91.8876999999999953
 31
0.0
  0
LINE
  5
15B
  8
0
 62
     0
 10
177.6570000000000107
 20
34.7376000000000005
 30
0.0
 11
193.2560000000000002
 21
34.7376000000000005
 31
0.0
  0
LINE
  5
15C
  8
0
 62
     0
 10
193.2560000000000002
 20
34.7376000000000005
 30
0.0
 11
193.2560000000000002
 21
21.9384000000000015
 31
0.0
  0
LINE
  5
15D
  8
0
 62
     0
 10
193.2560000000000002
 20
21.9384000000000015
 30
0.0
 11
177.6570000000000107
 21
21.9384000000000015
 31
0.0
  0
LINE
  5
15E
  8
0
 62
     0
 10
177.6570000000000107
 20
21.9384000000000015
 30
0.0
 11
177.6570000000000107
 21
34.7376000000000005
 31
0.0
  0
LINE
  5
15F
  8
0
 62
     0
 10
182.4190000000000111
 20
72.8376999999999981
 30
0.0
 11
198.0190000000000055
 21
72.8376999999999981
 31
0.0
  0
LINE
  5
160
  8
0
 62
     0
 10
198.0190000000000055
 20
72.8376999999999981
 30
0.0
 11
198.0190000000000055
 21
60.038499999999992
 31
0.0
  0
LINE
  5
161
  8
0
 62
     0
 10
198.0190000000000055
 20
60.038499999999992
 30
0.0
 11
182.4190000000000111
 21
60.038499999999992
 31
0.0
  0
LINE
  5
162
  8
0
 62
     0
 10
182.4190000000000111
 20
60.038499999999992
 30
0.0
 11
182.4190000000000111
 21
72.8376999999999981
 31
0.0
  0
LINE
  5
167
  8
0
 62
     0
 10
187.1819999999999879
 20
53.787700000000001
 30
0.0
 11
202.7810000000000059
 21
53.787700000000001
 31
0.0
  0
LINE
  5
168
  8
0
 62
     0
 10
202.7810000000000059
 20
53.787700000000001
 30
0.0
 11
202.7810000000000059
 21
40.9885000000000019
 31
0.0
  0
LINE
  5
169
  8
0
 62
     0
 10
202.7810000000000059
 20
40.9885000000000019
 30
0.0
 11
187.1819999999999879
 21
40.9885000000000019
 31
0.0
  0
LINE
  5
16A
  8
0
 62
     0
 10
187.1819999999999879
 20
40.9885000000000019
 30
0.0
 11
187.1819999999999879
 21
53.787700000000001
 31
0.0
  0
LINE
  5
16B
  8
0
 62
     0
 10
191.9439999999999884
 20
91.8876999999999953
 30
0.0
 11
207.5440000000000111
 21
91.8876999999999953
 31
0.0
  0
LINE
  5
16C
  8
0
 62
     0
 10
207.5440000000000111
 20
91.8876999999999953
 30
0.0
 11
207.5440000000000111
 21
79.0884999999999962
 31
0.0
  0
LINE
  5
16D
  8
0
 62
     0
 10
207.5440000000000111
 20
79.0884999999999962
 30
0.0
 11
191.9439999999999884
 21
79.0884999999999962
 31
0.0
  0
LINE
  5
16E
  8
0
 62
     0
 10
191.9439999999999884
 20
79.0884999999999962
 30
0.0
 11
191.9439999999999884
 21
91.8876999999999953
 31
0.0
  0
LINE
  5
16F
  8
0
 62
     0
 10
196.7069999999999936
 20
34.7376000000000005
 30
0.0
 11
212.3060000000000116
 21
34.7376000000000005
 31
0.0
  0
LINE
  5
170
  8
0
 62
     0
 10
212.3060000000000116
 20
34.7376000000000005
 30
0.0
 11
212.3060000000000116
 21
21.9384000000000015
 31
0.0
  0
LINE
  5
171
  8
0
 62
     0
 10
212.3060000000000116
 20
21.9384000000000015
 30
0.0
 11
196.7069999999999936
 21
21.9384000000000015
 31
0.0
  0
LINE
  5
172
  8
0
 62
     0
 10
196.7069999999999936
 20
21.9384000000000015
 30
0.0
 11
196.7069999999999936
 21
34.7376000000000005
 31
0.0
  0
LINE
  5
173
  8
0
 62
     0
 10
201.4689999999999941
 20
72.8376999999999981
 30
0.0
 11
217.0689999999999884
 21
72.8376999999999981
 31
0.0
  0
LINE
  5
174
  8
0
 62
     0
 10
217.0689999999999884
 20
72.8376999999999981
 30
0.0
 11
217.0689999999999884
 21
60.038499999999992
 31
0.0
  0
LINE
  5
175
  8
0
 62
     0
 10
217.0689999999999884
 20
60.038499999999992
 30
0.0
 11
201.4689999999999941
 21
60.038499999999992
 31
0.0
  0
LINE
  5
176
  8
0
 62
     0
 10
201.4689999999999941
 20
60.038499999999992
 30
0.0
 11
201.4689999999999941
 21
72.8376999999999981
 31
0.0
  0
LINE
  5
177
  8
0
 62
     0
 10
206.2319999999999993
 20
53.787700000000001
 30
0.0
 11
221.8309999999999889
 21
53.787700000000001
 31
0.0
  0
LINE
  5
178
  8
0
 62
     0
 10
221.8309999999999889
 20
53.787700000000001
 30
0.0
 11
221.8309999999999889
 21
40.9885000000000019
 31
0.0
  0
LINE
  5
179
  8
0
 62
     0
 10
221.8309999999999889
 20
40.9885000000000019
 30
0.0
 11
206.2319999999999993
 21
40.9885000000000019
 31
0.0
  0
LINE
  5
17A
  8
0
 62
     0
 10
206.2319999999999993
 20
40.9885000000000019
 30
0.0
 11
206.2319999999999993
 21
53.787700000000001
 31
0.0
  0
LINE
  5
17B
  8
0
 62
     0
 10
210.9939999999999998
 20
91.8876999999999953
 30
0.0
 11
226.5939999999999941
 21
91.8876999999999953
 31
0.0
  0
LINE
  5
17C
  8
0
 62
     0
 10
226.5939999999999941
 20
91.8876999999999953
 30
0.0
 11
226.5939999999999941
 21
79.0884999999999962
 31
0.0
  0
LINE
  5
17D
  8
0
 62
     0
 10
226.5939999999999941
 20
79.0884999999999962
 30
0.0
 11
210.9939999999999998
 21
79.0884999999999962
 31
0.0
  0
LINE
  5
17E
  8
0
 62
     0
 10
210.9939999999999998
 20
79.0884999999999962
 30
0.0
 11
210.9939999999999998
 21
91.8876999999999953
 31
0.0
  0
LINE
  5
17F
  8
0
 62
     0
 10
215.7549999999999955
 20
15.6875999999999998
 30
0.0
 11
231.3559999999999945
 21
15.6875999999999998
 31
0.0
  0
LINE
  5
180
  8
0
 62
     0
 10
231.3559999999999945
 20
15.6875999999999998
 30
0.0
 11
231.3559999999999945
 21
2.8883700000000001
 31
0.0
  0
LINE
  5
181
  8
0
 62
     0
 10
231.3559999999999945
 20
2.8883700000000001
 30
0.0
 11
215.7549999999999955
 21
2.8883700000000001
 31
0.0
  0
LINE
  5
182
  8
0
 62
     0
 10
215.7549999999999955
 20
2.8883700000000001
 30
0.0
 11
215.7549999999999955
 21
15.6875999999999998
 31
0.0
  0
LINE
  5
183
  8
0
 62
     0
 10
215.757000000000005
 20
34.7376000000000005
 30
0.0
 11
231.3559999999999945
 21
34.7376000000000005
 31
0.0
  0
LINE
  5
184
  8
0
 62
     0
 10
231.3559999999999945
 20
34.7376000000000005
 30
0.0
 11
231.3559999999999945
 21
21.9384000000000015
 31
0.0
  0
LINE
  5
185
  8
0
 62
     0
 10
231.3559999999999945
 20
21.9384000000000015
 30
0.0
 11
215.757000000000005
 21
21.9384000000000015
 31
0.0
  0
LINE
  5
186
  8
0
 62
     0
 10
215.757000000000005
 20
21.9384000000000015
 30
0.0
 11
215.757000000000005
 21
34.7376000000000005
 31
0.0
  0
LINE
  5
187
  8
0
 62
     0
 10
220.5190000000000055
 20
72.8376999999999981
 30
0.0
 11
236.1189999999999998
 21
72.8376999999999981
 31
0.0
  0
LINE
  5
188
  8
0
 62
     0
 10
236.1189999999999998
 20
72.8376999999999981
 30
0.0
 11
236.1189999999999998
 21
60.038499999999992
 31
0.0
  0
LINE
  5
189
  8
0
 62
     0
 10
236.1189999999999998
 20
60.038499999999992
 30
0.0
 11
220.5190000000000055
 21
60.038499999999992
 31
0.0
  0
LINE
  5
18A
  8
0
 62
     0
 10
220.5190000000000055
 20
60.038499999999992
 30
0.0
 11
220.5190000000000055
 21
72.8376999999999981
 31
0.0
  0
LINE
  5
18B
  8
0
 62
     0
 10
236.3520000000000039
 20
19.252600000000001
 30
0.0
 11
236.3520000000000039
 21
24.4643000000000015
 31
0.0
  0
LINE
  5
18C
  8
0
 62
     0
 10
236.3520000000000039
 20
24.4643000000000015
 30
0.0
 11
239.0180000000000007
 21
24.4643000000000015
 31
0.0
  0
LINE
  5
18D
  8
0
 62
     0
 10
239.0180000000000007
 20
24.4643000000000015
 30
0.0
 11
239.0180000000000007
 21
19.2580999999999989
 31
0.0
  0
LINE
  5
18E
  8
0
 62
     0
 10
239.0180000000000007
 20
19.2580999999999989
 30
0.0
 11
236.3520000000000039
 21
19.252600000000001
 31
0.0
  0
LINE
  5
18F
  8
0
 62
     0
 10
225.2820000000000107
 20
53.787700000000001
 30
0.0
 11
240.8810000000000002
 21
53.787700000000001
 31
0.0
  0
LINE
  5
190
  8
0
 62
     0
 10
240.8810000000000002
 20
53.787700000000001
 30
0.0
 11
240.8810000000000002
 21
40.9885000000000019
 31
0.0
  0
LINE
  5
191
  8
0
 62
     0
 10
240.8810000000000002
 20
40.9885000000000019
 30
0.0
 11
225.2820000000000107
 21
40.9885000000000019
 31
0.0
  0
LINE
  5
192
  8
0
 62
     0
 10
225.2820000000000107
 20
40.9885000000000019
 30
0.0
 11
225.2820000000000107
 21
53.787700000000001
 31
0.0
  0
LINE
  5
193
  8
0
 62
     0
 10
230.0440000000000111
 20
91.8876999999999953
 30
0.0
 11
245.6440000000000055
 21
91.8876999999999953
 31
0.0
  0
LINE
  5
194
  8
0
 62
     0
 10
245.6440000000000055
 20
91.8876999999999953
 30
0.0
 11
245.6440000000000055
 21
79.0884999999999962
 31
0.0
  0
LINE
  5
195
  8
0
 62
     0
 10
245.6440000000000055
 20
79.0884999999999962
 30
0.0
 11
230.0440000000000111
 21
79.0884999999999962
 31
0.0
  0
LINE
  5
196
  8
0
 62
     0
 10
230.0440000000000111
 20
79.0884999999999962
 30
0.0
 11
230.0440000000000111
 21
91.8876999999999953
 31
0.0
  0
LINE
  5
197
  8
0
 62
     0
 10
248.6090000000000089
 20
38.302500000000002
 30
0.0
 11
248.6090000000000089
 21
43.514400000000002
 31
0.0
  0
LINE
  5
198
  8
0
 62
     0
 10
248.6090000000000089
 20
43.514400000000002
 30
0.0
 11
251.2740000000000009
 21
43.514400000000002
 31
0.0
  0
LINE
  5
199
  8
0
 62
     0
 10
251.2740000000000009
 20
43.514400000000002
 30
0.0
 11
251.2740000000000009
 21
38.3081000000000103
 31
0.0
  0
LINE
  5
19A
  8
0
 62
     0
 10
251.2740000000000009
 20
38.3081000000000103
 30
0.0
 11
248.6090000000000089
 21
38.302500000000002
 31
0.0
  0
LINE
  5
19B
  8
0
 62
     0
 10
250.9900000000000091
 20
76.4025000000000034
 30
0.0
 11
250.9900000000000091
 21
81.6144000000000034
 31
0.0
  0
LINE
  5
19C
  8
0
 62
     0
 10
250.9900000000000091
 20
81.6144000000000034
 30
0.0
 11
253.6550000000000011
 21
81.6144000000000034
 31
0.0
  0
LINE
  5
19D
  8
0
 62
     0
 10
253.6550000000000011
 20
81.6144000000000034
 30
0.0
 11
253.6550000000000011
 21
76.4081000000000046
 31
0.0
  0
LINE
  5
19E
  8
0
 62
     0
 10
253.6550000000000011
 20
76.4081000000000046
 30
0.0
 11
250.9900000000000091
 21
76.4025000000000034
 31
0.0
  0
LINE
  5
19F
  8
0
 62
     0
 10
239.5689999999999884
 20
15.6875999999999998
 30
0.0
 11
255.1690000000000111
 21
15.6875999999999998
 31
0.0
  0
LINE
  5
1A0
  8
0
 62
     0
 10
255.1690000000000111
 20
15.6875999999999998
 30
0.0
 11
255.1690000000000111
 21
2.8883700000000001
 31
0.0
  0
LINE
  5
1A1
  8
0
 62
     0
 10
255.1690000000000111
 20
2.8883700000000001
 30
0.0
 11
239.5689999999999884
 21
2.8883700000000001
 31
0.0
  0
LINE
  5
1A2
  8
0
 62
     0
 10
239.5689999999999884
 20
2.8883700000000001
 30
0.0
 11
239.5689999999999884
 21
15.6875999999999998
 31
0.0
  0
LINE
  5
1A3
  8
0
 62
     0
 10
239.5689999999999884
 20
72.8376999999999981
 30
0.0
 11
255.1690000000000111
 21
72.8376999999999981
 31
0.0
  0
LINE
  5
1A4
  8
0
 62
     0
 10
255.1690000000000111
 20
72.8376999999999981
 30
0.0
 11
255.1690000000000111
 21
60.038499999999992
 31
0.0
  0
LINE
  5
1A5
  8
0
 62
     0
 10
255.1690000000000111
 20
60.038499999999992
 30
0.0
 11
239.5689999999999884
 21
60.038499999999992
 31
0.0
  0
LINE
  5
1A6
  8
0
 62
     0
 10
239.5689999999999884
 20
60.038499999999992
 30
0.0
 11
239.5689999999999884
 21
72.8376999999999981
 31
0.0
  0
LINE
  5
1BB
  8
0
 62
     0
 10
251.4739999999999895
 20
34.7376000000000005
 30
0.0
 11
267.0749999999999886
 21
34.7376000000000005
 31
0.0
  0
LINE
  5
1BC
  8
0
 62
     0
 10
267.0749999999999886
 20
34.7376000000000005
 30
0.0
 11
267.0749999999999886
 21
21.9384000000000015
 31
0.0
  0
LINE
  5
1BD
  8
0
 62
     0
 10
267.0749999999999886
 20
21.9384000000000015
 30
0.0
 11
251.4739999999999895
 21
21.9384000000000015
 31
0.0
  0
LINE
  5
1BE
  8
0
 62
     0
 10
251.4739999999999895
 20
21.9384000000000015
 30
0.0
 11
251.4739999999999895
 21
34.7376000000000005
 31
0.0
  0
LINE
  5
1BF
  8
0
 62
     0
 10
256.2379999999999995
 20
53.787700000000001
 30
0.0
 11
271.8369999999999891
 21
53.787700000000001
 31
0.0
  0
LINE
  5
1C0
  8
0
 62
     0
 10
271.8369999999999891
 20
53.787700000000001
 30
0.0
 11
271.8369999999999891
 21
40.9885000000000019
 31
0.0
  0
LINE
  5
1C1
  8
0
 62
     0
 10
271.8369999999999891
 20
40.9885000000000019
 30
0.0
 11
256.2379999999999995
 21
40.9885000000000019
 31
0.0
  0
LINE
  5
1C2
  8
0
 62
     0
 10
256.2379999999999995
 20
40.9885000000000019
 30
0.0
 11
256.2379999999999995
 21
53.787700000000001
 31
0.0
  0
LINE
  5
1C3
  8
0
 62
     0
 10
258.6190000000000282
 20
91.8876999999999953
 30
0.0
 11
274.2189999999999941
 21
91.8876999999999953
 31
0.0
  0
LINE
  5
1C4
  8
0
 62
     0
 10
274.2189999999999941
 20
91.8876999999999953
 30
0.0
 11
274.2189999999999941
 21
79.0884999999999962
 31
0.0
  0
LINE
  5
1C5
  8
0
 62
     0
 10
274.2189999999999941
 20
79.0884999999999962
 30
0.0
 11
258.6190000000000282
 21
79.0884999999999962
 31
0.0
  0
LINE
  5
1C6
  8
0
 62
     0
 10
258.6190000000000282
 20
79.0884999999999962
 30
0.0
 11
258.6190000000000282
 21
91.8876999999999953
 31
0.0
  0
LINE
  5
1C7
  8
0
 62
     0
 10
263.3799999999999955
 20
15.6875999999999998
 30
0.0
 11
278.9809999999999945
 21
15.6875999999999998
 31
0.0
  0
LINE
  5
1C8
  8
0
 62
     0
 10
278.9809999999999945
 20
15.6875999999999998
 30
0.0
 11
278.9809999999999945
 21
2.8883700000000001
 31
0.0
  0
LINE
  5
1C9
  8
0
 62
     0
 10
278.9809999999999945
 20
2.8883700000000001
 30
0.0
 11
263.3799999999999955
 21
2.8883700000000001
 31
0.0
  0
LINE
  5
1CA
  8
0
 62
     0
 10
263.3799999999999955
 20
2.8883700000000001
 30
0.0
 11
263.3799999999999955
 21
15.6875999999999998
 31
0.0
  0
LINE
  5
1CB
  8
0
 62
     0
 10
263.382000000000005
 20
72.8376999999999981
 30
0.0
 11
278.9809999999999945
 21
72.8376999999999981
 31
0.0
  0
LINE
  5
1CC
  8
0
 62
     0
 10
278.9809999999999945
 20
72.8376999999999981
 30
0.0
 11
278.9809999999999945
 21
60.038499999999992
 31
0.0
  0
LINE
  5
1CD
  8
0
 62
     0
 10
278.9809999999999945
 20
60.038499999999992
 30
0.0
 11
263.382000000000005
 21
60.038499999999992
 31
0.0
  0
LINE
  5
1CE
  8
0
 62
     0
 10
263.382000000000005
 20
60.038499999999992
 30
0.0
 11
263.382000000000005
 21
72.8376999999999981
 31
0.0
  0
LINE
  5
1CF
  8
0
 62
     0
 10
279.1820000000000164
 20
81.6144000000000034
 30
0.0
 11
281.8480000000000132
 21
81.6144000000000034
 31
0.0
  0
LINE
  5
1D0
  8
0
 62
     0
 10
281.8480000000000132
 20
81.6144000000000034
 30
0.0
 11
281.8480000000000132
 21
76.4081000000000046
 31
0.0
  0
LINE
  5
1D1
  8
0
 62
     0
 10
281.8480000000000132
 20
76.4081000000000046
 30
0.0
 11
279.1820000000000164
 21
76.4081000000000046
 31
0.0
  0
LINE
  5
1D2
  8
0
 62
     0
 10
279.1820000000000164
 20
76.4081000000000046
 30
0.0
 11
279.1820000000000164
 21
81.6144000000000034
 31
0.0
  0
LINE
  5
1D3
  8
0
 62
     0
 10
279.5319999999999823
 20
24.4643000000000015
 30
0.0
 11
282.1979999999999791
 21
24.4643000000000015
 31
0.0
  0
LINE
  5
1D4
  8
0
 62
     0
 10
282.1979999999999791
 20
24.4643000000000015
 30
0.0
 11
282.1979999999999791
 21
19.2580999999999989
 31
0.0
  0
LINE
  5
1D5
  8
0
 62
     0
 10
282.1979999999999791
 20
19.2580999999999989
 30
0.0
 11
279.5319999999999823
 21
19.2580999999999989
 31
0.0
  0
LINE
  5
1D6
  8
0
 62
     0
 10
279.5319999999999823
 20
19.2580999999999989
 30
0.0
 11
279.5319999999999823
 21
24.4643000000000015
 31
0.0
  0
LINE
  5
1D7
  8
0
 62
     0
 10
285.0939999999999941
 20
92.1878999999999991
 30
0.0
 11
285.0860000000000127
 21
92.3837000000000046
 31
0.0
  0
LINE
  5
1D8
  8
0
 62
     0
 10
285.0860000000000127
 20
92.3837000000000046
 30
0.0
 11
285.0620000000000118
 21
92.5794999999999959
 31
0.0
  0
LINE
  5
1D9
  8
0
 62
     0
 10
285.0620000000000118
 20
92.5794999999999959
 30
0.0
 11
285.0249999999999773
 21
92.7724000000000046
 31
0.0
  0
LINE
  5
1DA
  8
0
 62
     0
 10
285.0249999999999773
 20
92.7724000000000046
 30
0.0
 11
284.9710000000000036
 21
92.9612000000000052
 31
0.0
  0
LINE
  5
1DB
  8
0
 62
     0
 10
284.9710000000000036
 20
92.9612000000000052
 30
0.0
 11
284.9039999999999964
 21
93.144299999999987
 31
0.0
  0
LINE
  5
1DC
  8
0
 62
     0
 10
284.9039999999999964
 20
93.144299999999987
 30
0.0
 11
284.8210000000000264
 21
93.322100000000006
 31
0.0
  0
LINE
  5
1DD
  8
0
 62
     0
 10
284.8210000000000264
 20
93.322100000000006
 30
0.0
 11
284.7259999999999991
 21
93.4942000000000064
 31
0.0
  0
LINE
  5
1DE
  8
0
 62
     0
 10
284.7259999999999991
 20
93.4942000000000064
 30
0.0
 11
284.6170000000000186
 21
93.6568999999999789
 31
0.0
  0
LINE
  5
1DF
  8
0
 62
     0
 10
284.6170000000000186
 20
93.6568999999999789
 30
0.0
 11
284.4940000000000282
 21
93.8114000000000061
 31
0.0
  0
LINE
  5
1E0
  8
0
 62
     0
 10
284.4940000000000282
 20
93.8114000000000061
 30
0.0
 11
284.36200000000008
 21
93.9559999999999889
 31
0.0
  0
LINE
  5
1E1
  8
0
 62
     0
 10
284.36200000000008
 20
93.9559999999999889
 30
0.0
 11
284.2180000000000177
 21
94.0883000000000038
 31
0.0
  0
LINE
  5
1E2
  8
0
 62
     0
 10
284.2180000000000177
 20
94.0883000000000038
 30
0.0
 11
284.0629999999999882
 21
94.2111000000000018
 31
0.0
  0
LINE
  5
1E3
  8
0
 62
     0
 10
284.0629999999999882
 20
94.2111000000000018
 30
0.0
 11
283.8990000000000009
 21
94.3196999999999832
 31
0.0
  0
LINE
  5
1E4
  8
0
 62
     0
 10
283.8990000000000009
 20
94.3196999999999832
 30
0.0
 11
283.728999999999985
 21
94.4163999999999959
 31
0.0
  0
LINE
  5
1E5
  8
0
 62
     0
 10
283.728999999999985
 20
94.4163999999999959
 30
0.0
 11
283.5509999999999877
 21
94.4974999999999881
 31
0.0
  0
LINE
  5
1E6
  8
0
 62
     0
 10
283.5509999999999877
 20
94.4974999999999881
 30
0.0
 11
283.3670000000000186
 21
94.5652999999999793
 31
0.0
  0
LINE
  5
1E7
  8
0
 62
     0
 10
283.3670000000000186
 20
94.5652999999999793
 30
0.0
 11
283.1770000000000209
 21
94.6188999999999965
 31
0.0
  0
LINE
  5
1E8
  8
0
 62
     0
 10
283.1770000000000209
 20
94.6188999999999965
 30
0.0
 11
282.9839999999999804
 21
94.6559000000000026
 31
0.0
  0
LINE
  5
1E9
  8
0
 62
     0
 10
282.9839999999999804
 20
94.6559000000000026
 30
0.0
 11
282.7900000000000205
 21
94.6795999999999935
 31
0.0
  0
LINE
  5
1EA
  8
0
 62
     0
 10
282.7900000000000205
 20
94.6795999999999935
 30
0.0
 11
282.5939999999999941
 21
94.6877000000000066
 31
0.0
  0
LINE
  5
1EB
  8
0
 62
     0
 10
282.5939999999999941
 20
94.6877000000000066
 30
0.0
 11
2.5934699999999991
 21
94.6877000000000066
 31
0.0
  0
LINE
  5
1EC
  8
0
 62
     0
 10
2.5934699999999991
 20
94.6877000000000066
 30
0.0
 11
2.3977900000000001
 21
94.6795999999999935
 31
0.0
  0
LINE
  5
1ED
  8
0
 62
     0
 10
2.3977900000000001
 20
94.6795999999999935
 30
0.0
 11
2.2021099999999989
 21
94.6559000000000026
 31
0.0
  0
LINE
  5
1EE
  8
0
 62
     0
 10
2.2021099999999989
 20
94.6559000000000026
 30
0.0
 11
2.0091799999999989
 21
94.6188999999999965
 31
0.0
  0
LINE
  5
1EF
  8
0
 62
     0
 10
2.0091799999999989
 20
94.6188999999999965
 30
0.0
 11
1.82039
 21
94.5652999999999793
 31
0.0
  0
LINE
  5
1F0
  8
0
 62
     0
 10
1.82039
 20
94.5652999999999793
 30
0.0
 11
1.6371100000000001
 21
94.4974999999999881
 31
0.0
  0
LINE
  5
1F1
  8
0
 62
     0
 10
1.6371100000000001
 20
94.4974999999999881
 30
0.0
 11
1.459339999999999
 21
94.4163999999999959
 31
0.0
  0
LINE
  5
1F2
  8
0
 62
     0
 10
1.459339999999999
 20
94.4163999999999959
 30
0.0
 11
1.2870900000000001
 21
94.3196999999999832
 31
0.0
  0
LINE
  5
1F3
  8
0
 62
     0
 10
1.2870900000000001
 20
94.3196999999999832
 30
0.0
 11
1.124479999999999
 21
94.2111000000000018
 31
0.0
  0
LINE
  5
1F4
  8
0
 62
     0
 10
1.124479999999999
 20
94.2111000000000018
 30
0.0
 11
0.9701389999999999
 21
94.0883000000000038
 31
0.0
  0
LINE
  5
1F5
  8
0
 62
     0
 10
0.9701389999999999
 20
94.0883000000000038
 30
0.0
 11
0.825444
 21
93.9559999999999889
 31
0.0
  0
LINE
  5
1F6
  8
0
 62
     0
 10
0.825444
 20
93.9559999999999889
 30
0.0
 11
0.693152
 21
93.8114000000000061
 31
0.0
  0
LINE
  5
1F7
  8
0
 62
     0
 10
0.693152
 20
93.8114000000000061
 30
0.0
 11
0.5705090000000002
 21
93.6568999999999789
 31
0.0
  0
LINE
  5
1F8
  8
0
 62
     0
 10
0.5705090000000002
 20
93.6568999999999789
 30
0.0
 11
0.4616410000000001
 21
93.4942000000000064
 31
0.0
  0
LINE
  5
1F9
  8
0
 62
     0
 10
0.4616410000000001
 20
93.4942000000000064
 30
0.0
 11
0.365181
 21
93.322100000000006
 31
0.0
  0
LINE
  5
1FA
  8
0
 62
     0
 10
0.365181
 20
93.322100000000006
 30
0.0
 11
0.283876
 21
93.144299999999987
 31
0.0
  0
LINE
  5
1FB
  8
0
 62
     0
 10
0.283876
 20
93.144299999999987
 30
0.0
 11
0.216352
 21
92.9612000000000052
 31
0.0
  0
LINE
  5
1FC
  8
0
 62
     0
 10
0.216352
 20
92.9612000000000052
 30
0.0
 11
0.162609
 21
92.7724000000000046
 31
0.0
  0
LINE
  5
1FD
  8
0
 62
     0
 10
0.162609
 20
92.7724000000000046
 30
0.0
 11
0.125402
 21
92.5794999999999959
 31
0.0
  0
LINE
  5
1FE
  8
0
 62
     0
 10
0.125402
 20
92.5794999999999959
 30
0.0
 11
0.101975
 21
92.3837000000000046
 31
0.0
  0
LINE
  5
1FF
  8
0
 62
     0
 10
0.101975
 20
92.3837000000000046
 30
0.0
 11
0.0937066
 21
92.1878999999999991
 31
0.0
  0
LINE
  5
200
  8
0
 62
     0
 10
0.0937066
 20
92.1878999999999991
 30
0.0
 11
0.0937066
 21
40.6880000000000024
 31
0.0
  0
LINE
  5
20E
  8
0
 62
     0
 10
0.0937066
 20
35.6869999999999976
 30
0.0
 11
0.0937066
 21
2.5879599999999989
 31
0.0
  0
LINE
  5
20F
  8
0
 62
     0
 10
0.0937066
 20
2.5879599999999989
 30
0.0
 11
0.101975
 21
2.392269999999999
 31
0.0
  0
LINE
  5
210
  8
0
 62
     0
 10
0.101975
 20
2.392269999999999
 30
0.0
 11
0.125402
 21
2.19659
 31
0.0
  0
LINE
  5
211
  8
0
 62
     0
 10
0.125402
 20
2.19659
 30
0.0
 11
0.162609
 21
2.0036700000000001
 31
0.0
  0
LINE
  5
212
  8
0
 62
     0
 10
0.162609
 20
2.0036700000000001
 30
0.0
 11
0.216352
 21
1.8148799999999989
 31
0.0
  0
LINE
  5
213
  8
0
 62
     0
 10
0.216352
 20
1.8148799999999989
 30
0.0
 11
0.283876
 21
1.63022
 31
0.0
  0
LINE
  5
214
  8
0
 62
     0
 10
0.283876
 20
1.63022
 30
0.0
 11
0.365181
 21
1.4524499999999989
 31
0.0
  0
LINE
  5
215
  8
0
 62
     0
 10
0.365181
 20
1.4524499999999989
 30
0.0
 11
0.4616410000000001
 21
1.2815700000000001
 31
0.0
  0
LINE
  5
216
  8
0
 62
     0
 10
0.4616410000000001
 20
1.2815700000000001
 30
0.0
 11
0.5705090000000002
 21
1.11897
 31
0.0
  0
LINE
  5
217
  8
0
 62
     0
 10
0.5705090000000002
 20
1.11897
 30
0.0
 11
0.693152
 21
0.963249
 31
0.0
  0
LINE
  5
218
  8
0
 62
     0
 10
0.693152
 20
0.963249
 30
0.0
 11
0.825444
 21
0.8199329999999999
 31
0.0
  0
LINE
  5
219
  8
0
 62
     0
 10
0.825444
 20
0.8199329999999999
 30
0.0
 11
0.9701389999999999
 21
0.6862620000000001
 31
0.0
  0
LINE
  5
21A
  8
0
 62
     0
 10
0.9701389999999999
 20
0.6862620000000001
 30
0.0
 11
1.124479999999999
 21
0.5649950000000001
 31
0.0
  0
LINE
  5
21B
  8
0
 62
     0
 10
1.124479999999999
 20
0.5649950000000001
 30
0.0
 11
1.2870900000000001
 21
0.4561310000000001
 31
0.0
  0
LINE
  5
21C
  8
0
 62
     0
 10
1.2870900000000001
 20
0.4561310000000001
 30
0.0
 11
1.459339999999999
 21
0.359668
 31
0.0
  0
LINE
  5
21D
  8
0
 62
     0
 10
1.459339999999999
 20
0.359668
 30
0.0
 11
1.6371100000000001
 21
0.278364
 31
0.0
  0
LINE
  5
21E
  8
0
 62
     0
 10
1.6371100000000001
 20
0.278364
 30
0.0
 11
1.82039
 21
0.209462
 31
0.0
  0
LINE
  5
21F
  8
0
 62
     0
 10
1.82039
 20
0.209462
 30
0.0
 11
2.0091799999999989
 21
0.157097
 31
0.0
  0
LINE
  5
220
  8
0
 62
     0
 10
2.0091799999999989
 20
0.157097
 30
0.0
 11
2.2021099999999989
 21
0.118511
 31
0.0
  0
LINE
  5
221
  8
0
 62
     0
 10
2.2021099999999989
 20
0.118511
 30
0.0
 11
2.3977900000000001
 21
0.0950846
 31
0.0
  0
LINE
  5
222
  8
0
 62
     0
 10
2.3977900000000001
 20
0.0950846
 30
0.0
 11
2.5934699999999991
 21
0.0881944
 31
0.0
  0
LINE
  5
223
  8
0
 62
     0
 10
2.5934699999999991
 20
0.0881944
 30
0.0
 11
282.5939999999999941
 21
0.0881944
 31
0.0
  0
LINE
  5
224
  8
0
 62
     0
 10
282.5939999999999941
 20
0.0881944
 30
0.0
 11
282.7900000000000205
 21
0.0950846
 31
0.0
  0
LINE
  5
225
  8
0
 62
     0
 10
282.7900000000000205
 20
0.0950846
 30
0.0
 11
282.9839999999999804
 21
0.118511
 31
0.0
  0
LINE
  5
226
  8
0
 62
     0
 10
282.9839999999999804
 20
0.118511
 30
0.0
 11
283.1770000000000209
 21
0.157097
 31
0.0
  0
LINE
  5
227
  8
0
 62
     0
 10
283.1770000000000209
 20
0.157097
 30
0.0
 11
283.3670000000000186
 21
0.209462
 31
0.0
  0
LINE
  5
228
  8
0
 62
     0
 10
283.3670000000000186
 20
0.209462
 30
0.0
 11
283.5509999999999877
 21
0.278364
 31
0.0
  0
LINE
  5
229
  8
0
 62
     0
 10
283.5509999999999877
 20
0.278364
 30
0.0
 11
283.728999999999985
 21
0.359668
 31
0.0
  0
LINE
  5
22A
  8
0
 62
     0
 10
283.728999999999985
 20
0.359668
 30
0.0
 11
283.8990000000000009
 21
0.4561310000000001
 31
0.0
  0
LINE
  5
22B
  8
0
 62
     0
 10
283.8990000000000009
 20
0.4561310000000001
 30
0.0
 11
284.0629999999999882
 21
0.5649950000000001
 31
0.0
  0
LINE
  5
22C
  8
0
 62
     0
 10
284.0629999999999882
 20
0.5649950000000001
 30
0.0
 11
284.2180000000000177
 21
0.6862620000000001
 31
0.0
  0
LINE
  5
22D
  8
0
 62
     0
 10
284.2180000000000177
 20
0.6862620000000001
 30
0.0
 11
284.36200000000008
 21
0.8199329999999999
 31
0.0
  0
LINE
  5
22E
  8
0
 62
     0
 10
284.36200000000008
 20
0.8199329999999999
 30
0.0
 11
284.4940000000000282
 21
0.963249
 31
0.0
  0
LINE
  5
22F
  8
0
 62
     0
 10
284.4940000000000282
 20
0.963249
 30
0.0
 11
284.6170000000000186
 21
1.11897
 31
0.0
  0
LINE
  5
230
  8
0
 62
     0
 10
284.6170000000000186
 20
1.11897
 30
0.0
 11
284.7259999999999991
 21
1.2815700000000001
 31
0.0
  0
LINE
  5
231
  8
0
 62
     0
 10
284.7259999999999991
 20
1.2815700000000001
 30
0.0
 11
284.8210000000000264
 21
1.4524499999999989
 31
0.0
  0
LINE
  5
232
  8
0
 62
     0
 10
284.8210000000000264
 20
1.4524499999999989
 30
0.0
 11
284.9039999999999964
 21
1.63022
 31
0.0
  0
LINE
  5
233
  8
0
 62
     0
 10
284.9039999999999964
 20
1.63022
 30
0.0
 11
284.9710000000000036
 21
1.8148799999999989
 31
0.0
  0
LINE
  5
234
  8
0
 62
     0
 10
284.9710000000000036
 20
1.8148799999999989
 30
0.0
 11
285.0249999999999773
 21
2.0036700000000001
 31
0.0
  0
LINE
  5
235
  8
0
 62
     0
 10
285.0249999999999773
 20
2.0036700000000001
 30
0.0
 11
285.0620000000000118
 21
2.19659
 31
0.0
  0
LINE
  5
236
  8
0
 62
     0
 10
285.0620000000000118
 20
2.19659
 30
0.0
 11
285.0860000000000127
 21
2.392269999999999
 31
0.0
  0
LINE
  5
237
  8
0
 62
     0
 10
285.0860000000000127
 20
2.392269999999999
 30
0.0
 11
285.0939999999999941
 21
2.5879599999999989
 31
0.0
  0
LINE
  5
238
  8
0
 62
     0
 10
285.0939999999999941
 20
2.5879599999999989
 30
0.0
 11
285.0939999999999941
 21
35.6869999999999976
 31
0.0
  0
LINE
  5
241
  8
0
 62
     0
 10
279.1139999999999759
 20
38.3081000000000103
 30
0.0
 11
276.8009999999999877
 21
38.3081000000000103
 31
0.0
  0
LINE
  5
242
  8
0
 62
     0
 10
276.8009999999999877
 20
38.3081000000000103
 30
0.0
 11
276.8009999999999877
 21
43.514400000000002
 31
0.0
  0
LINE
  5
243
  8
0
 62
     0
 10
276.8009999999999877
 20
43.514400000000002
 30
0.0
 11
279.4660000000000082
 21
43.514400000000002
 31
0.0
  0
LINE
  5
24A
  8
0
 62
     0
 10
285.0939999999999941
 20
40.6880000000000024
 30
0.0
 11
285.0939999999999941
 21
92.1878999999999991
 31
0.0
  0
LINE
  5
27B
  8
0
  6
CONTINUOUS
 10
0.0937066
 20
40.6880000000000024
 30
0.0
 11
2.5937065999999991
 21
40.6880000000000024
 31
0.0
  0
LINE
  5
27C
  8
0
  6
CONTINUOUS
 10
0.0937066
 20
35.6869999999999976
 30
0.0
 11
2.5937065999999991
 21
35.6869999999999976
 31
0.0
  0
ARC
  5
298
  8
0
  6
CONTINUOUS
 10
2.5937065999999991
 20
38.1875
 30
0.0
 40
2.5005000000000019
 50
270.0
 51
90.0000000000000995
  0
LINE
  5
2B0
  8
0
  6
CONTINUOUS
 10
279.4660000000000082
 20
38.3081000000000103
 30
0.0
 11
279.1139999999999759
 21
38.3081000000000103
 31
0.0
  0
LINE
  5
2C7
  8
0
  6
CONTINUOUS
 10
285.0939999999999941
 20
40.6880000000000024
 30
0.0
 11
282.5939999999999941
 21
40.6880000000000024
 31
0.0
  0
LINE
  5
2C8
  8
0
  6
CONTINUOUS
 10
285.0939999999999941
 20
35.6869999999999976
 30
0.0
 11
282.5939999999999941
 21
35.6869999999999976
 31
0.0
  0
ARC
  5
2C9
  8
0
  6
CONTINUOUS
 10
282.5939999999999941
 20
38.1875
 30
0.0
 40
2.5005000000000019
 50
89.9999999999998437
 51
270.0
  0
LINE
  5
362
  8
0
  6
CONTINUOUS
 10
126.5810000000000031
 20
53.787700000000001
 30
0.0
 11
126.5810000000000031
 21
40.9885000000000019
 31
0.0
  0
LINE
  5
363
  8
0
  6
CONTINUOUS
 10
130.0300000000000011
 20
53.787700000000001
 30
0.0
 11
130.0300000000000011
 21
40.9885000000000019
 31
0.0
  0
LINE
  5
37A
  8
0
  6
CONTINUOUS
 10
279.4660000000000082
 20
43.514400000000002
 30
0.0
 11
279.4660000000000082
 21
38.3081000000000103
 31
0.0
  0
LINE
  5
3A0
  8
0
  6
CONTINUOUS
 10
6.2066999999999988
 20
53.787700000000001
 30
0.0
 11
21.8061000000000007
 21
53.787700000000001
 31
0.0
  0
LINE
  5
3A1
  8
0
  6
CONTINUOUS
 10
21.8061000000000007
 20
53.787700000000001
 30
0.0
 11
21.8061000000000007
 21
40.9885000000000019
 31
0.0
  0
LINE
  5
3A2
  8
0
  6
CONTINUOUS
 10
21.8061000000000007
 20
40.9885000000000019
 30
0.0
 11
6.206699999999997
 21
40.9885000000000019
 31
0.0
  0
LINE
  5
3A3
  8
0
  6
CONTINUOUS
 10
6.206699999999997
 20
40.9885000000000019
 30
0.0
 11
6.2066999999999988
 21
53.787700000000001
 31
0.0
  0
CIRCLE
  5
42A
  8
0
  6
CONTINUOUS
 10
107.2939999999999969
 20
9.2879850000000026
 30
0.0
 40
3.125
  0
CIRCLE
  5
481
  8
0
  6
CONTINUOUS
 10
177.8940000000000055
 20
9.2879850000000026
 30
0.0
 40
3.125
  0
LINE
  5
4B6
  8
0
 62
     0
 10
99.2606500000000409
 20
5.4114944000000094
 30
0.0
 11
101.9273500000000041
 21
5.4114944000000094
 31
0.0
  0
LINE
  5
4B7
  8
0
 62
     0
 10
101.9273500000000041
 20
5.4114944000000094
 30
0.0
 11
101.9273500000000041
 21
0.2052944000000065
 31
0.0
  0
LINE
  5
4B8
  8
0
 62
     0
 10
101.9273500000000041
 20
0.2052944000000065
 30
0.0
 11
99.2606500000000409
 21
0.2052944000000065
 31
0.0
  0
LINE
  5
4B9
  8
0
 62
     0
 10
99.2606500000000409
 20
0.2052944000000065
 30
0.0
 11
99.2606500000000409
 21
5.4114944000000094
 31
0.0
  0
LINE
  5
4D6
  8
0
 62
     0
 10
183.2606499999999983
 20
5.4115011686384777
 30
0.0
 11
185.9273499999999899
 21
5.4115011686384777
 31
0.0
  0
LINE
  5
4D7
  8
0
 62
     0
 10
185.9273499999999899
 20
5.4115011686384777
 30
0.0
 11
185.9273499999999899
 21
0.2053011686384766
 31
0.0
  0
LINE
  5
4D8
  8
0
 62
     0
 10
185.9273499999999899
 20
0.2053011686384766
 30
0.0
 11
183.2606499999999983
 21
0.2053011686384766
 31
0.0
  0
LINE
  5
4D9
  8
0
 62
     0
 10
183.2606499999999983
 20
0.2053011686384766
 30
0.0
 11
183.2606499999999983
 21
5.4115011686384777
 31
0.0
  0
CIRCLE
  5
577
  8
0
  6
CONTINUOUS
 10
190.5939999999999941
 20
9.4877800000000025
 30
0.0
 40
2.5
  0
CIRCLE
  5
590
  8
0
  6
CONTINUOUS
 10
25.2939000000000007
 20
66.7878999999999934
 30
0.0
 40
2.5
  0
CIRCLE
  5
59D
  8
0
  6
CONTINUOUS
 10
260.1429999999999723
 20
66.7878999999999792
 30
0.0
 40
2.5
  0
LINE
  5
7EF
  8
0
  6
CONTINUOUS
 10
102.4189999999999969
 20
10.3879850000000005
 30
0.0
 11
100.2189999999999941
 21
10.3879850000000005
 31
0.0
  0
LINE
  5
7F0
  8
0
  6
CONTINUOUS
 10
100.2189999999999941
 20
10.3879850000000005
 30
0.0
 11
100.2189999999999941
 21
8.1879850000000012
 31
0.0
  0
LINE
  5
7F1
  8
0
  6
CONTINUOUS
 10
100.2189999999999941
 20
8.1879850000000012
 30
0.0
 11
102.4189999999999969
 21
8.1879850000000012
 31
0.0
  0
LINE
  5
7F2
  8
0
  6
CONTINUOUS
 10
102.4189999999999969
 20
10.3879850000000005
 30
0.0
 11
102.4189999999999969
 21
8.1879850000000012
 31
0.0
  0
LINE
  5
7FE
  8
0
  6
CONTINUOUS
 10
112.1689999999999969
 20
10.3879850000000005
 30
0.0
 11
114.3689999999999998
 21
10.3879850000000005
 31
0.0
  0
LINE
  5
7FF
  8
0
  6
CONTINUOUS
 10
114.3689999999999998
 20
10.3879850000000005
 30
0.0
 11
114.3689999999999998
 21
8.1879850000000012
 31
0.0
  0
LINE
  5
800
  8
0
  6
CONTINUOUS
 10
114.3689999999999998
 20
8.1879850000000012
 30
0.0
 11
112.1689999999999969
 21
8.1879850000000012
 31
0.0
  0
LINE
  5
801
  8
0
  6
CONTINUOUS
 10
112.1689999999999969
 20
8.1879850000000012
 30
0.0
 11
112.1689999999999969
 21
10.3879850000000005
 31
0.0
  0
LINE
  5
822
  8
0
  6
CONTINUOUS
 10
182.7690000000000055
 20
10.3879850000000005
 30
0.0
 11
184.9689999999999941
 21
10.3879850000000005
 31
0.0
  0
LINE
  5
823
  8
0
  6
CONTINUOUS
 10
184.9689999999999941
 20
10.3879850000000005
 30
0.0
 11
184.9689999999999941
 21
8.1879850000000012
 31
0.0
  0
LINE
  5
824
  8
0
  6
CONTINUOUS
 10
184.9689999999999941
 20
8.1879850000000012
 30
0.0
 11
182.7690000000000055
 21
8.1879850000000012
 31
0.0
  0
LINE
  5
830
  8
0
  6
CONTINUOUS
 10
182.7690000000000055
 20
10.3879850000000005
 30
0.0
 11
182.7690000000000055
 21
8.1879850000000012
 31
0.0
  0
LINE
  5
847
  8
0
  6
CONTINUOUS
 10
173.0190000000000055
 20
10.3879850000000005
 30
0.0
 11
170.8189999999999884
 21
10.3879850000000005
 31
0.0
  0
LINE
  5
848
  8
0
  6
CONTINUOUS
 10
170.8189999999999884
 20
10.3879850000000005
 30
0.0
 11
170.8189999999999884
 21
8.1879850000000012
 31
0.0
  0
LINE
  5
849
  8
0
  6
CONTINUOUS
 10
170.8189999999999884
 20
8.1879850000000012
 30
0.0
 11
173.0190000000000055
 21
8.1879850000000012
 31
0.0
  0
LINE
  5
854
  8
0
  6
CONTINUOUS
 10
173.0190000000000055
 20
10.3879850000000005
 30
0.0
 11
173.0190000000000055
 21
8.1879850000000012
 31
0.0
  0
VIEWPORT
  5
8E2
 67
     1
  8
0
  6
CONTINUOUS
 10
-17.8231243168856892
 20
6.055033983686064
 30
0.0
 40
66.9443055249163734
 41
25.8996023585711903
 68
     1
 69
     1
1001
ACAD
1000
MVIEW
1002
{
1070
    16
1010
0.0
1020
0.0
1030
0.0
1010
0.0
1020
0.0
1030
1.0
1040
0.0
1040
25.8996023585711903
1040
-17.8231243168856892
1040
6.055033983686064
1040
50.0
1040
0.0
1040
0.0
1070
     0
1070
   100
1070
     1
1070
     1
1070
     0
1070
     0
1070
     0
1070
     0
1040
0.0
1040
0.0
1040
0.0
1040
0.5
1040
0.5
1040
0.5
1040
0.5
1070
     0
1002
{
1002
}
1002
}
  0
VIEWPORT
  5
8E6
 67
     1
  8
DEFPOINTS
  6
CONTINUOUS
 10
5.6783330722117986
 20
3.89666677459957
 30
0.0
 40
9.0853329155388778
 41
6.2346668393593134
 68
     2
 69
     2
1001
ACAD
1000
MVIEW
1002
{
1070
    16
1010
0.0
1020
0.0
1030
0.0
1010
0.0
1020
0.0
1030
1.0
1040
0.0
1040
2107.8546951404027823
1040
550.4662765446282719
1040
-942.5986894506721683
1040
50.0
1040
0.0
1040
0.0
1070
     0
1070
   100
1070
     1
1070
     1
1070
     0
1070
     0
1070
     0
1070
     0
1040
0.0
1040
0.0
1040
0.0
1040
1.0
1040
1.0
1040
0.0
1040
0.0
1070
     0
1002
{
1002
}
1002
}
  0
ENDSEC
  0
EOF
